<svg width="142" height="142" viewBox="0 0 142 142" fill="none" xmlns="http://www.w3.org/2000/svg">
<rect width="142" height="142" fill="#10B981"/>
<path d="M72.9218 43H52.0001C50.3432 43 49.0001 44.3432 49.0001 46.0001L49.0018 82.1429C49.0018 83.7997 50.345 85.1428 52.0018 85.1428H69.7936C71.4504 85.1428 72.7936 86.4859 72.7936 88.1428V104.447C72.7936 107.541 76.9092 108.61 78.4145 105.907L99.5164 68.0163C100.63 66.0166 99.1842 63.5566 96.8954 63.5566H78.9222C77.2654 63.5566 75.9223 62.2135 75.9222 60.5567L75.9218 45.9999C75.9218 44.3431 74.5787 43 72.9218 43Z" fill="black"/>
<path d="M68.9059 39H49.0001C47.3432 39 46.0001 40.3432 46.0001 42.0001L46.0017 77.5656C46.0018 79.2224 47.3449 80.5655 49.0017 80.5655H65.8957C67.5525 80.5655 68.8957 81.9086 68.8957 83.5655V99.1948C68.8957 102.305 73.0466 103.36 74.5317 100.627L94.5918 63.7073C95.6779 61.7083 94.2308 59.275 91.9557 59.275H74.9063C73.2495 59.275 71.9063 57.9319 71.9063 56.2751L71.9059 41.9999C71.9059 40.3431 70.5627 39 68.9059 39Z" fill="white"/>
</svg>
