<svg width="130" height="45" viewBox="0 0 130 45" fill="none" xmlns="http://www.w3.org/2000/svg">
<path d="M69.0451 32.216C68.2771 32.216 67.7571 31.864 67.4851 31.16L61.3651 15.296C61.5251 15.216 61.7411 15.144 62.0131 15.08C62.2851 15.016 62.5251 14.984 62.7331 14.984C63.9971 14.984 64.8131 15.496 65.1811 16.52L68.8771 26.864L68.3011 28.4L68.5651 28.496L72.8851 16.52C73.2691 15.496 74.0851 14.984 75.3331 14.984C75.5411 14.984 75.7811 15.016 76.0531 15.08C76.3251 15.144 76.5491 15.216 76.7251 15.296L70.6051 31.16C70.4771 31.496 70.2771 31.76 70.0051 31.952C69.7491 32.128 69.4291 32.216 69.0451 32.216ZM81.7679 32.216C80.7279 32.216 79.7839 32.032 78.9359 31.664C78.1039 31.28 77.4479 30.752 76.9679 30.08C76.4879 29.408 76.2479 28.648 76.2479 27.8V24.416C76.2479 23.552 76.4799 22.768 76.9439 22.064C77.4239 21.36 78.0799 20.808 78.9119 20.408C79.7439 19.992 80.6959 19.784 81.7679 19.784C82.8399 19.784 83.7919 19.992 84.6239 20.408C85.4719 20.808 86.1279 21.36 86.5919 22.064C87.0719 22.768 87.3119 23.552 87.3119 24.416V27.8C87.3119 28.648 87.0639 29.408 86.5679 30.08C86.0879 30.752 85.4239 31.28 84.5759 31.664C83.7439 32.032 82.8079 32.216 81.7679 32.216ZM81.7679 29.648C82.5679 29.648 83.1919 29.464 83.6399 29.096C84.1039 28.728 84.3359 28.232 84.3359 27.608V24.56C84.3359 23.904 84.1039 23.376 83.6399 22.976C83.1919 22.56 82.5679 22.352 81.7679 22.352C80.9839 22.352 80.3599 22.56 79.8959 22.976C79.4319 23.376 79.1999 23.904 79.1999 24.56V27.608C79.1999 28.232 79.4319 28.728 79.8959 29.096C80.3599 29.464 80.9839 29.648 81.7679 29.648ZM93.5786 32.216C92.2506 32.216 91.2426 31.84 90.5546 31.088C89.8826 30.32 89.5466 29.352 89.5466 28.184V16.808C89.5466 16.152 89.7866 15.688 90.2666 15.416C90.7626 15.128 91.5226 14.984 92.5466 14.984V28.064C92.5466 28.608 92.6666 29.008 92.9066 29.264C93.1466 29.504 93.5306 29.624 94.0586 29.624C94.6506 29.624 95.2426 29.472 95.8346 29.168C95.9946 29.312 96.1146 29.496 96.1946 29.72C96.2906 29.928 96.3386 30.144 96.3386 30.368C96.3386 30.848 96.0986 31.28 95.6186 31.664C95.1386 32.032 94.4586 32.216 93.5786 32.216ZM102.198 32.216C100.902 32.216 99.9423 31.84 99.3183 31.088C98.6943 30.336 98.3823 29.368 98.3823 28.184V22.232H95.9103C95.9103 21.48 96.0543 20.92 96.3423 20.552C96.6303 20.184 97.0143 20 97.4943 20H98.4303V18.008C98.4303 17.352 98.6703 16.888 99.1503 16.616C99.6303 16.328 100.358 16.184 101.334 16.184V20H104.526C104.526 20.8 104.374 21.376 104.07 21.728C103.766 22.064 103.278 22.232 102.606 22.232H101.382V28.064C101.382 28.624 101.486 29.024 101.694 29.264C101.918 29.504 102.294 29.624 102.822 29.624C103.382 29.624 103.942 29.472 104.502 29.168C104.662 29.312 104.79 29.496 104.886 29.72C104.982 29.928 105.03 30.144 105.03 30.368C105.03 30.848 104.782 31.28 104.286 31.664C103.79 32.032 103.094 32.216 102.198 32.216ZM107.771 17.384C107.771 16.632 108.051 16.048 108.611 15.632C109.171 15.2 109.963 14.984 110.987 14.984V29.816C110.987 30.584 110.707 31.176 110.147 31.592C109.587 32.008 108.795 32.216 107.771 32.216V17.384ZM126.899 32.72C126.387 32.72 125.915 32.6 125.483 32.36C125.067 32.12 124.723 31.792 124.451 31.376C123.379 31.936 122.195 32.216 120.899 32.216C119.587 32.216 118.387 31.96 117.299 31.448C116.211 30.92 115.347 30.208 114.707 29.312C114.083 28.416 113.771 27.44 113.771 26.384V20.792C113.771 19.736 114.083 18.768 114.707 17.888C115.347 16.992 116.211 16.288 117.299 15.776C118.387 15.248 119.587 14.984 120.899 14.984C122.211 14.984 123.411 15.248 124.499 15.776C125.603 16.288 126.467 16.992 127.091 17.888C127.731 18.768 128.051 19.736 128.051 20.792V26.384C128.051 27.056 127.923 27.696 127.667 28.304C127.427 28.912 127.059 29.456 126.563 29.936C126.787 30.224 127.083 30.448 127.451 30.608C127.835 30.768 128.227 30.832 128.627 30.8C128.627 31.472 128.491 31.96 128.219 32.264C127.947 32.568 127.507 32.72 126.899 32.72ZM124.547 27.416C124.755 27.144 124.859 26.792 124.859 26.36V20.864C124.859 19.936 124.499 19.192 123.779 18.632C123.059 18.056 122.099 17.768 120.899 17.768C119.715 17.768 118.763 18.056 118.043 18.632C117.323 19.192 116.963 19.936 116.963 20.864V24.992C117.555 24.832 118.075 24.752 118.523 24.752C119.803 24.752 120.907 24.944 121.835 25.328C122.779 25.712 123.683 26.408 124.547 27.416ZM120.899 29.456C121.539 29.456 122.179 29.344 122.819 29.12C122.179 28.288 121.523 27.736 120.851 27.464C120.195 27.192 119.355 27.056 118.331 27.056C118.011 27.056 117.611 27.12 117.131 27.248C117.371 27.904 117.819 28.44 118.475 28.856C119.147 29.256 119.955 29.456 120.899 29.456Z" fill="black"/>
<g clip-path="url(#clip0_2369_2307)">
<rect width="45" height="45" rx="22.5" fill="#10B981"/>
<path d="M23.9055 11H15.0001C13.8955 11 13 11.8955 13.0001 13.0001L13.0008 29.4993C13.0009 30.6038 13.8963 31.4992 15.0008 31.4992H22.4059C23.5104 31.4992 24.4059 32.3947 24.4059 33.4992V38.708C24.4059 40.7772 27.1636 41.4843 28.1592 39.6703L36.7807 23.9615C37.5122 22.6286 36.5478 20.9992 35.0274 20.9992H27.9056C26.8011 20.9992 25.9057 20.1038 25.9056 18.9993L25.9055 12.9999C25.9055 11.8954 25.01 11 23.9055 11Z" fill="black"/>
<path d="M21.9055 9H13.0001C11.8955 9 11 9.89549 11.0001 11.0001L11.0008 27.4993C11.0009 28.6038 11.8963 29.4992 13.0008 29.4992H20.4059C21.5104 29.4992 22.4059 30.3947 22.4059 31.4992V36.708C22.4059 38.7772 25.1636 39.4843 26.1592 37.6703L34.7807 21.9615C35.5122 20.6286 34.5478 18.9992 33.0274 18.9992H25.9056C24.8011 18.9992 23.9057 18.1038 23.9056 16.9993L23.9055 10.9999C23.9055 9.8954 23.01 9 21.9055 9Z" fill="white"/>
</g>
<defs>
<clipPath id="clip0_2369_2307">
<rect width="45" height="45" rx="22.5" fill="white"/>
</clipPath>
</defs>
</svg>
