<svg width="351" height="351" viewBox="0 0 351 351" fill="none" xmlns="http://www.w3.org/2000/svg">
<path fill-rule="evenodd" clip-rule="evenodd" d="M199.41 290.996C233.307 290.996 263.053 265.782 246.347 231.534C229.642 197.287 291.714 198.393 309.947 174.724C332.184 145.857 325.744 23.3255 182.994 98.0269C160.128 109.993 101.401 85.7164 81.9207 97.7621C58.9908 111.941 26.7298 140.975 58.9908 170.716C74.882 185.366 17.9084 223.391 42.8617 257.451C67.2099 290.685 84.2775 259.003 121.347 265.782C158.417 272.56 174.235 290.996 199.41 290.996Z" fill="#10B981"/>
<path d="M160.066 231.416C160.066 231.416 167.871 227.745 170.785 225.19C173.699 222.636 177.321 216.29 177.321 216.29C177.321 216.29 217.112 245.027 243.057 240.928C249.035 239.983 260.683 236.01 261.426 229.009C263.454 209.892 235.391 205.006 241.521 195.312C245.263 189.394 256.887 198.201 256.887 198.201L305.099 221.916C305.099 221.916 288.443 262.973 248.023 264.619C198.3 266.643 160.066 231.416 160.066 231.416Z" fill="white"/>
<path fill-rule="evenodd" clip-rule="evenodd" d="M121.841 70.6244C121.389 70.4467 118.959 67.4711 115.873 66.9295C114.472 66.6834 115.744 68.4686 114.201 68.4847C109.606 68.5325 102.138 67.6692 100.754 68.4847C99.7263 69.0888 101.991 71.1994 100.754 71.2963C89.0912 72.2105 71.298 83.8559 67.4376 89.5057C66.209 91.3037 76.1453 88.2531 74.5622 89.142C72.7853 90.1397 70.8146 96.6723 69.6363 101.718C68.8206 105.192 68.307 109.663 68.1257 114.527C67.9747 118.727 68.0351 119.422 68.6393 121.718C69.3342 124.286 69.878 125.041 70.8146 124.679C71.1469 124.558 71.298 124.105 71.298 123.259C71.298 122.594 71.6605 120.6 72.1137 118.818L72.8992 115.615L73.2315 116.944C73.6545 118.485 76.1319 123.259 78.3675 126.733C78.4881 126.917 79.0069 126.683 79.4747 125.552C79.901 124.522 79.728 122.876 80.4522 121.111C82.1017 117.093 85.3407 111.868 89.0912 107.686C94.6341 101.504 96.4731 94.3508 101.669 88.6085C111.365 77.8922 123.535 71.2894 121.841 70.6244Z" fill="white"/>
<path fill-rule="evenodd" clip-rule="evenodd" d="M74.7006 90.6001C73.1452 91.8508 70.8362 101.996 70.7966 102.166C69.9809 105.64 69.1946 117.705 69.9984 119.99C70.8021 122.274 73.0527 114.04 73.0527 114.04C73.0527 114.04 76.4545 122.873 79.4602 125.295C79.5886 125.398 75.8875 114.366 74.7006 107.926C73.1339 99.4244 75.5859 89.8882 74.7006 90.6001Z" fill="#E7EAEE"/>
<path fill-rule="evenodd" clip-rule="evenodd" d="M132.676 268.282C135.577 267.648 140.47 265.438 142.344 264.683C144.218 263.927 149.927 255.865 151.982 246.771C153.462 240.064 154.217 230.518 153.372 228.916C153.247 228.689 152.79 224.348 154.006 225.765C156.71 228.916 159.92 233.863 170.048 224.999C172.807 222.585 176.463 219.469 175.5 216.714C172.807 209.007 161.13 193.488 159.35 192.313C157.222 190.907 146.465 192.102 130.456 187.377C112.301 182.018 104.741 166.239 97.6362 168.293C91.8905 169.954 78.1244 180.162 74.6695 186.626C58.3591 217.145 78.1244 238.53 82.6257 244.672L86.9962 246.56L87.1472 250.457L87.3587 252.904C87.7515 257.587 87.9025 258.01 90.0174 259.581C95.3044 263.599 105.727 267.346 115.154 268.675C119.534 269.279 129.051 269.068 132.676 268.282Z" fill="white"/>
<path fill-rule="evenodd" clip-rule="evenodd" d="M88.7144 249.028L88.9259 251.476C89.3186 256.158 89.4697 256.581 91.5845 258.152C94.7035 260.523 99.61 262.799 105.045 264.539C108.822 265.75 112.855 266.701 116.721 267.246C121.101 267.85 130.618 267.639 134.244 266.853C136.036 266.465 121.295 254.885 112.612 258.152C105.943 260.662 90.2257 241.521 96.6163 236.52C103.785 230.911 90.6487 208.785 90.2257 203.982C89.8028 199.178 88.1371 198.031 88.0884 198.199C88.0398 198.368 88.0398 198.942 88.1706 200.327C88.7342 206.296 88.7144 249.028 88.7144 249.028Z" fill="#E7EAEE"/>
<path fill-rule="evenodd" clip-rule="evenodd" d="M87.14 202.612C87.7743 202.488 88.3886 202.902 88.512 203.537C90.7922 215.251 100.437 223.182 117.684 227.329C135.032 231.5 146.85 231.275 153.076 226.823C153.602 226.447 153.21 229.666 152.825 229.913C148.764 232.517 134.957 236.403 118.479 232.891C97.4115 228.4 87.5195 210.685 86.2151 203.984C86.0917 203.349 86.5058 202.735 87.14 202.612Z" fill="#FFB61D"/>
<path fill-rule="evenodd" clip-rule="evenodd" d="M78.3548 181.476C78.9156 181.155 99.8407 205.137 128.557 210.565C157.273 215.994 164.226 212.541 165.344 205.137C165.44 204.498 166.036 204.058 166.675 204.155C167.314 204.251 167.754 204.847 167.658 205.486C166.241 214.87 152.953 217.102 128.163 212.872C103.685 208.695 86.9022 198.77 77.9203 183.072C77.5994 182.512 77.7939 181.797 78.3548 181.476Z" fill="#FFB61D"/>
<path d="M152.114 63.6486C164.175 63.6285 169.174 65.5633 176.693 68.4738L179.547 69.5705C201.62 77.932 209.339 94.5024 211.259 98.6242L211.262 98.63C211.341 98.7998 211.41 98.9486 211.47 99.0744C217.784 112.367 219.698 124.888 217.221 139.42C216.888 141.383 216.677 143.045 216.737 143.106C216.798 143.166 217.493 142.864 218.308 142.441C219.517 141.776 220.031 141.686 221.118 141.837C222.991 142.109 223.807 142.562 224.502 143.68C225.529 145.372 225.559 148.03 224.593 152.652C224.411 153.468 224.411 153.468 226.043 153.468C228.097 153.468 228.822 153.982 229.456 155.855C229.818 156.972 229.879 157.698 229.668 158.997C229.417 160.532 232.181 161.757 244.93 167.407C245.986 167.876 247.111 168.375 248.308 168.906C255.401 172.045 261.348 173.707 261.511 173.71C261.692 173.71 262.145 173.045 262.508 172.199C263.746 169.45 266.768 167.487 270.998 166.701C272.932 166.342 275.708 166.416 277.311 167.215C279.12 168.117 281.45 171.233 282.145 173.469L282.509 174.556L284.23 173.771C285.711 173.076 286.346 172.955 288.672 172.955C291.662 172.955 292.146 173.106 295.47 175.312C297.705 176.762 299.155 178.696 299.849 181.112L300.333 182.713L301.904 182.11C305.258 180.841 309.306 181.898 312.297 184.828C313.989 186.55 315.227 188.227 315.227 191.777C315.227 194.775 312.871 206.792 311.904 209.814C309.699 216.521 303.085 235.947 295.65 244.316C289.022 251.776 286.6 253.21 282.535 255.616C282.04 255.909 281.521 256.217 280.968 256.551C269.306 263.59 256.466 266.793 240.181 266.793C230.484 266.793 223.263 265.917 213.112 263.44C192.749 258.515 173.142 248.001 159.97 234.919C159.548 234.497 158.934 233.869 158.25 233.166C155.994 230.85 152.964 227.739 153.473 228.665C154.319 230.266 153.564 239.814 152.084 246.521C150.03 255.614 144.32 263.676 142.446 264.432C142.078 264.58 141.594 264.784 141.032 265.022L141.03 265.023C138.727 265.995 135.109 267.522 132.778 268.031C129.153 268.817 119.636 269.028 115.256 268.424C105.83 267.095 95.4071 263.348 90.12 259.33C88.0051 257.759 87.8535 257.336 87.4608 252.653L87.2499 250.206L85.8592 249.209C83.6536 247.608 78.3675 242.412 76.6151 240.026C75.1729 238.117 73.1601 233.895 72.121 231.715C71.7461 230.929 71.498 230.408 71.4491 230.358C70.9053 229.904 68.9413 223.499 68.4579 220.538C66.3734 208.061 69.3338 193.439 75.9198 183.529C80.6026 176.46 87.4909 170.931 94.077 168.906C96.1008 168.272 99.7859 168.001 99.2137 168.544C99.0627 168.665 97.733 169.149 96.2225 169.602C86.9778 172.411 80.6632 178.212 75.5272 188.665C69.4849 200.931 67.9445 214.559 72.3251 226.704C72.4846 227.137 72.6524 227.631 72.8348 228.166C73.6195 230.468 74.6687 233.544 76.4335 235.946C78.5181 238.756 84.5001 244.829 86.0711 245.736L87.0985 246.309L86.9169 244.829C86.1011 238.333 85.9506 207.427 86.7059 201.505C87.0382 198.907 87.3403 198.182 88.0956 198.182C88.4578 198.183 88.5184 199.392 88.5184 204.889C88.5184 218.182 90.0284 246.914 91.1161 254.376C91.1756 254.76 91.2325 255.128 91.285 255.469L91.286 255.473C91.4724 256.683 91.6058 257.552 91.6297 257.578C92.0227 257.85 97.8541 260.297 100.12 261.143C108.67 264.345 119.878 266.038 127.491 265.282C133.503 264.678 137.846 263.686 140.746 261.481C141.532 260.876 144.139 258.665 145.498 255.705C147.975 250.237 150.422 241.445 151.902 232.532C152.355 229.755 152.839 227.58 152.99 227.698C153.141 227.819 152.718 227.064 152.054 225.977C150.392 223.227 148.942 220.447 148.942 219.994C148.943 218.968 150.211 220.056 152.446 223.076C153.775 224.889 155.497 226.853 156.223 227.427C156.948 228.031 158.972 229.753 160.724 231.264C170.785 240.025 180.181 246.279 190.785 251.385C207.371 259.3 226.496 263.651 242.055 263.017C266.012 262.05 285.59 252.804 295.65 237.698C296.709 236.095 304.36 223.442 303.929 222.955C303.709 222.707 302.662 222.937 301.638 223.162C300.871 223.331 300.116 223.497 299.728 223.458C298.036 223.277 291.682 221.477 291.089 217.185C291.012 216.635 289.753 215.028 289.753 215.028C289.736 215.032 288.48 215.317 286.949 216.037C283.989 217.427 281.058 216.671 277.282 213.529C275.288 211.868 274.351 210.206 274.321 208.394C274.321 207.336 273.35 206.029 273.082 205.871C272.813 205.714 271.512 206.234 271.119 206.656C269.578 208.318 263.991 208.156 261.723 206.944C260.431 206.253 258.43 204.224 258.007 202.653C257.968 202.527 257.923 202.322 257.869 202.069V202.068L257.766 201.603C257.501 200.439 257.038 198.804 256.103 198.544C255.741 198.363 253.958 197.517 252.115 196.671C250.302 195.795 248.097 194.768 247.251 194.375C245.831 193.68 245.589 193.65 244.32 193.983C242.931 194.315 241.994 195.946 241.994 196.671C241.994 197.789 242.478 199.874 243.777 201.717C245.832 204.647 248.943 207.397 253.988 210.75C258.52 213.771 259.517 214.738 261.027 217.548C262.568 220.448 263.203 223.439 263.264 228.001C263.293 231.325 253.127 244.315 238.973 243.046C224.819 241.777 209.336 237.759 199.638 232.925C189.335 227.759 180.242 221.082 171.903 212.472C167.976 208.454 167.673 208.061 164.139 202.11C159.697 194.587 159.425 194.073 159.637 193.227C159.678 193.053 159.708 192.926 159.663 192.839C159.543 192.609 158.899 192.651 156.556 192.804C152.9 193.076 146.193 192.683 142.144 191.988C131.691 190.176 122.385 185.976 113.201 178.967C112.416 178.363 111.842 178.061 111.932 178.303C112.083 178.665 111.63 178.846 110.029 179.088C107.582 179.511 105.377 179.027 104.319 177.879C102.688 176.096 100.573 170.658 100.422 167.819C100.361 166.399 100.15 165.584 99.8475 165.372C99.6058 165.191 99.3944 164.797 99.3944 164.495C99.3942 164.163 99.2432 164.042 98.9715 164.133C98.7298 164.224 98.3069 164.042 98.0047 163.71C97.973 163.675 97.7796 163.54 97.4598 163.316L97.4579 163.315C95.0222 161.608 85.2682 154.771 83.5331 147.879C81.5693 140.079 80.7239 135.009 80.452 132.924C79.9385 129.239 79.9078 129.087 78.367 126.731C76.1316 123.257 73.6545 118.484 73.2313 116.943L72.8993 115.612L72.1131 118.816C71.66 120.598 71.2978 122.592 71.2977 123.257C71.2977 124.102 71.1465 124.556 70.8143 124.677C69.8778 125.039 69.3334 124.284 68.6385 121.716C68.0343 119.42 67.9738 118.725 68.1249 114.526C68.3061 109.662 68.82 105.19 69.6356 101.716C70.8139 96.6707 72.6873 91.9267 74.1073 90.3859C74.7416 89.6913 75.5271 89.48 75.5272 90.0236C75.5272 90.2048 75.3157 90.3253 75.0741 90.3253C73.8958 90.3253 71.2674 98.7847 70.2704 105.643C69.787 109.117 69.576 119.933 70.0292 119.933C70.1507 119.93 70.5434 119.025 70.9354 117.94C71.7511 115.613 72.9895 113.589 73.6239 113.589C73.9258 113.589 73.9564 113.74 73.7752 114.072C73.443 114.647 73.896 116.369 74.6815 117.517C74.7872 117.681 75.0299 118.068 75.3573 118.592L75.3583 118.594C75.8742 119.419 76.6011 120.583 77.3397 121.746L79.4852 125.22L79.3036 121.293C79.1525 118.816 79.2132 116.398 79.4549 114.797C79.7872 112.169 80.5723 110.055 81.1161 110.205C81.4785 110.296 81.4793 111.354 81.0262 115.371C80.8148 117.092 80.7238 118.572 80.784 118.664C80.8747 118.725 81.1166 118.393 81.3583 117.909C81.6302 117.456 82.4156 116.368 83.1405 115.523C83.8958 114.677 84.8631 113.226 85.3163 112.289C86.1628 110.567 89.7871 106.186 91.6297 104.646C92.3547 104.041 93.0504 102.954 93.8358 101.202C98.9416 89.5406 108.066 79.2982 119.274 72.7121C122.143 71.021 122.355 70.8394 121.691 70.5978C121.329 70.4468 119.969 69.8114 118.73 69.2072C117.844 68.7749 117.02 68.3895 116.578 68.1828C116.403 68.1007 116.287 68.0467 116.253 68.0295C116.162 67.969 115.981 68.2109 115.86 68.5431C115.588 69.4494 115.135 69.328 114.742 68.2404C114.561 67.727 114.107 67.2137 113.715 67.0627C112.778 66.7001 112.778 65.9148 113.715 65.673C114.53 65.4919 116.132 66.2167 118.73 67.9689C119.637 68.5731 120.875 69.3289 121.449 69.631C122.023 69.933 122.596 70.2953 122.687 70.4464C122.778 70.5673 123.866 70.2343 125.104 69.6603C134.017 65.5818 138.596 63.6711 152.114 63.6486ZM193.534 179.179C184.924 185.674 174.259 190.236 163.293 192.11C160.695 192.533 160.151 192.713 160.785 192.895C161.389 193.046 161.903 193.62 162.598 194.828C165.921 200.719 174.32 211.353 180.785 216.821C196.133 229.752 217.341 238.121 234.894 239.662C240.483 240.146 247.825 238.937 251.994 236.853C254.441 235.614 257.131 233.499 258.098 232.079C259.578 229.844 260.689 227.366 260.725 226.369C261.027 218.118 253.06 212.472 248.43 209.602C242.536 205.948 239.457 200.629 239.457 197.668C239.457 195.04 240.696 193.318 241.36 192.411L241.994 191.566L241.33 191.143C237.191 188.605 232.84 186.158 228.731 184.043C225.982 182.623 222.78 180.84 221.632 180.025L219.486 178.605L218.731 179.299C217.342 180.628 214.833 181.566 212.749 181.566C210.937 181.566 210.755 181.505 209.789 180.538L208.731 179.481L207.431 180.357C205.528 181.656 202.387 183.076 201.45 183.076C199.124 183.076 195.982 181.082 195.166 179.118L194.804 178.242L193.534 179.179ZM231.179 162.864C229.366 161.807 229.003 161.716 229.003 162.411C229.002 163.318 227.16 167.517 225.74 169.782C224.985 171.021 223.505 173.257 222.447 174.737L220.574 177.426L222.749 178.393C223.2 178.601 228.176 180.992 234.153 183.863C243.79 188.494 256.029 194.375 256.103 194.375C256.225 194.373 256.791 193.063 256.919 191.535C257.221 188.242 258.339 183.771 259.638 180.659C260.242 179.27 260.725 177.532 260.725 177.381C260.725 177.312 260.234 177.114 259.431 176.79C258.473 176.404 257.073 175.839 255.529 175.1C247.916 171.444 233.023 163.983 231.179 162.864ZM225.076 175.704C224.442 174.889 225.045 174.526 226.828 174.677C227.901 174.768 253.718 187.852 255.59 188.937C256.456 189.439 254.956 190.175 254.593 190.296C252.458 190.477 249.945 190.076 247.886 188.876C246.808 188.112 238.331 183.404 232.708 180.279C230.137 178.851 228.163 177.754 227.765 177.517C226.496 176.762 225.288 175.946 225.076 175.704ZM221.933 144.344C221.178 143.831 219.426 144.133 217.886 145.039C216.587 145.764 216.133 146.248 215.529 147.517C215.136 148.393 214.804 149.239 214.804 149.45C214.803 150.086 212.054 156.641 210.967 158.605C207.704 164.496 203.927 169.451 199.003 174.284L195.801 177.456L196.707 178.574C197.251 179.269 198.096 179.874 198.882 180.146C201.027 180.931 202.296 180.78 204.472 179.571C206.677 178.333 208.308 176.731 210.815 173.408C211.752 172.17 213.051 170.387 213.746 169.481C218.187 163.529 220.332 159.39 221.933 153.619C223.384 148.362 223.384 145.311 221.933 144.344ZM225.485 155.679C224.342 155.679 223.494 156.746 222.055 160.508C220.173 165.424 209.697 178.74 209.638 178.816L210.272 179.45C210.816 179.994 211.118 180.055 212.176 179.903C213.837 179.631 216.692 178.423 217.961 177.245C218.505 176.701 219.743 175.13 220.71 173.71C224.879 167.517 226.268 164.647 227.175 160.296C227.718 157.608 227.311 156.822 226.889 156.188C226.647 155.825 226.125 155.679 225.485 155.679ZM90.7538 108.785C90.5422 108.574 83.4425 116.728 82.4754 119.329C82.2631 119.9 81.6902 120.9 81.2372 121.504L80.452 122.513C80.4548 122.529 80.6977 123.936 80.9657 125.7C81.6023 129.892 81.4487 131.021 82.1737 134.526C82.657 137.003 83.1407 139.148 83.2616 139.299C83.3523 139.481 83.7449 140.87 84.1376 142.41C84.9835 145.824 86.4038 149.209 87.6727 150.87C90.1198 154.012 93.3526 157.577 94.8631 158.785C95.7694 159.51 96.5547 160.114 96.6151 160.114C96.6409 160.106 95.9779 158.72 95.1346 157.033C91.7208 150.236 89.7265 143.468 88.7899 135.674C88.5784 133.952 88.2462 132.501 87.8836 131.897C87.1588 130.688 87.1587 129.117 87.9139 127.637C88.3066 126.851 88.5184 125.854 88.5184 124.767V123.106L87.0682 124.616C85.6483 126.097 84.2889 126.7 84.2889 125.794C84.2896 125.129 86.5249 121.927 87.703 120.93C88.639 120.145 88.7603 119.872 89.0624 117.516C89.2739 116.096 89.7566 113.588 90.1493 111.927C90.5721 110.266 90.814 108.846 90.7538 108.785ZM74.3788 101.897C74.8315 101.444 75.2248 101.233 75.2254 101.383C75.2254 101.776 73.7142 103.166 72.9588 103.468C72.4759 103.679 72.6276 103.77 73.8055 104.042C74.6201 104.223 75.1632 104.494 75.0438 104.615C74.651 105.008 72.5663 104.827 72.0829 104.344C71.3278 103.619 71.5091 103.105 72.5663 102.894C73.11 102.803 73.9256 102.35 74.3788 101.897ZM84.6512 102.35C85.1344 101.383 85.3457 101.202 85.4364 101.595C85.4967 101.897 85.3458 102.471 85.0741 102.863C84.4095 103.891 84.4699 104.012 85.4969 103.861C86.5239 103.71 86.7049 104.042 85.829 104.526C85.1041 104.888 84.3785 104.888 83.4422 104.495C82.7176 104.223 82.7781 103.619 83.5331 103.619C83.7748 103.619 84.2888 103.044 84.6512 102.35ZM92.7176 72.0177C95.648 71.1719 98.941 71.0505 99.8778 71.7453C100.391 72.138 100.21 72.1682 97.9745 72.1984C93.1407 72.1984 87.5513 74.6759 78.4579 80.7482C73.7452 83.89 68.277 88.3918 68.2762 89.1173C68.2769 89.268 69.1529 88.9658 70.2401 88.4826C72.5663 87.4252 74.9532 86.8815 76.0106 87.1232C77.1283 87.4253 76.8862 87.818 75.3758 88.0295C74.6505 88.1505 72.3851 89.0571 70.3915 90.0539C68.3684 91.0201 66.6469 91.835 66.5243 91.8058C63.4427 91.4735 67.7327 86.338 75.5272 81.0812C82.9893 76.036 88.0349 73.3773 92.7176 72.0177ZM91.6903 80.5373C93.1704 80.5071 93.5029 80.5978 93.5936 81.0207C93.6841 81.4434 93.5029 81.5038 92.6874 81.383C92.1437 81.2924 91.3584 81.3531 90.9354 81.5041L90.1795 81.7755L90.8749 81.9875C91.7809 82.2896 91.7209 82.8035 90.6034 83.5285C90.0898 83.8608 88.6389 85.2804 87.4002 86.7003L85.1346 89.2687L87.5819 89.3586C88.9408 89.419 90.0284 89.5708 90.0292 89.7218C90.029 90.0236 89.9066 90.0544 87.0682 90.6281C83.8357 91.2625 83.3222 90.9905 84.2586 89.2082C84.8632 87.9995 89.7259 83.0752 90.3006 83.0744C90.4818 83.0743 90.6326 82.954 90.6327 82.8332C90.6321 82.6821 89.8472 82.4402 88.911 82.2892C85.5274 81.7454 87.3702 80.5977 91.6903 80.5373ZM105.921 76.6398C106.165 76.3987 109.123 76.7305 109.546 77.0627C109.727 77.2137 109.999 77.1834 110.181 77.0021C110.603 76.5798 111.178 76.912 111.178 77.5763C111.178 77.9388 111.086 77.9693 110.814 77.6974C110.573 77.4558 110.362 77.4558 110.09 77.6671C109.848 77.8786 109.667 77.8784 109.515 77.6369C109.425 77.4859 108.851 77.3342 108.247 77.3341C107.69 77.3341 107.426 77.3348 107.372 77.4406C107.324 77.5359 107.444 77.7169 107.673 78.0597C108.154 78.8125 108.126 78.8147 107.018 78.9045L107.008 78.9054C106.132 78.9659 105.92 79.1174 105.98 79.5402C105.984 79.5614 105.987 79.582 105.99 79.6017C106.024 79.8249 106.043 79.9532 105.993 79.9923C105.925 80.0446 105.731 79.9349 105.274 79.6759C105.249 79.6615 105.222 79.6464 105.195 79.631C104.621 79.3289 104.561 79.1774 104.893 78.9357C105.105 78.7544 105.679 78.4823 106.132 78.3918L106.977 78.1808L106.344 77.5158C106.011 77.123 105.83 76.7606 105.921 76.6398ZM95.286 68.7238C94.7126 67.2135 97.7637 66.6397 103.806 67.0627C108.851 67.4252 111.48 67.9388 113.534 68.9962C114.712 69.6305 114.832 69.7511 114.198 69.7511C113.775 69.7511 112.627 69.5699 111.631 69.3283C110.634 69.0564 107.793 68.7851 105.286 68.6642L100.754 68.4826L101.6 69.3283C102.054 69.7814 102.416 70.4766 102.416 70.8693C102.416 71.7454 102.174 71.7454 101.298 70.8693C100.482 70.0536 98.0652 69.177 96.5848 69.1769C95.8598 69.1769 95.3766 69.0259 95.286 68.7238Z" fill="#00160A"/>
<path d="M293.929 209.004C297.688 198.763 297.119 196.581 296.467 196.368C296.467 196.368 295.031 197.183 294.397 198.906C293.219 202.138 289.186 210.597 287.675 212.108C285.893 213.891 285.893 213.891 284.08 213.891C282.267 213.891 277.039 211.161 276.327 208.47C275.189 204.164 280.092 189.208 280.213 188.362L279.397 187.788C278.853 188.301 271.78 209.752 262.478 204.162C261.413 203.522 259.155 200.507 258.974 198.906C257.967 194.253 262.586 177.984 263.372 174.642C264.075 171.651 267.735 168.875 272.237 168.875C279.155 168.875 278.226 174.923 281.325 177.054C282.698 177.998 284.955 176.286 285.651 176.156C289.548 175.431 291.042 176.275 293.899 178.543C296.104 180.293 297.736 183.757 299.532 184.978C300.53 185.656 301.588 184.729 301.935 184.555C303.356 183.841 306.406 184.374 307.252 184.978C308.492 185.519 311.531 188.44 312.011 190.139C314.187 197.839 307.317 214.911 304.723 218.113C300.429 223.414 290.17 219.245 293.929 209.004Z" fill="white"/>
<path fill-rule="evenodd" clip-rule="evenodd" d="M120.241 180.944C128.519 186.171 137.055 189.585 146.783 190.521C154.457 191.246 164.803 190.249 172.236 187.832C178.489 185.808 186.949 180.201 192.598 175.457C203.565 166.273 210.484 151.927 213.505 136.7C213.928 134.555 214.573 129.163 214.543 123.816C214.543 117.592 211.804 100.585 203.505 90.7783C186.388 70.5526 158.252 61.4415 134.606 69.2263C126.076 72.0346 116.994 77.1225 110.136 83.7691C101.495 92.1982 95.1208 103.679 92.583 115.401C89.9243 127.788 93.3827 142.592 99.3949 154.737C104.199 164.404 112.114 175.778 120.241 180.944ZM200.907 144.434C195.227 161.504 180.423 174.253 161.812 178.121C158.973 178.695 157.009 178.906 153.021 178.967C150.211 179.057 147.401 179.027 146.827 178.967C133.806 177.396 123.897 172.592 114.773 163.468C110.785 159.45 109.093 157.274 106.616 152.984C102.718 146.187 100.634 139.238 99.9991 130.869C97.8239 102.198 118.338 78.3008 147.22 75.8234C158.55 74.8567 171.118 78.331 180.665 85.0985C184.199 87.606 190.604 93.9505 192.598 96.9113C193.414 98.0895 201.33 109.661 202.719 116.307C204.502 124.948 203.807 135.764 200.907 144.434Z" fill="white"/>
<path fill-rule="evenodd" clip-rule="evenodd" d="M214.554 123.816C214.554 144.095 204.961 166.264 192.582 175.732C186.676 180.25 178.957 185.719 172.236 187.833C162.385 190.929 146.783 190.521 146.783 190.521C146.783 190.521 162.701 188.394 168.599 186.02C185.514 179.212 194.748 168.763 200.45 158.736C211.705 138.945 214.554 123.323 214.554 123.816Z" fill="#E7EAEE"/>
<path fill-rule="evenodd" clip-rule="evenodd" d="M147.129 175.343C139.063 174.316 131.056 171.446 124.591 167.186C120.754 164.678 114.954 158.787 112.144 154.587C108.126 148.545 105.467 142.08 104.168 135.131C103.231 130.086 103.262 122.321 104.198 117.82C105.165 113.227 106.404 109.723 108.609 105.282C111.177 100.146 113.896 96.3692 117.975 92.2906C124.923 85.3419 132.99 80.931 142.597 78.8161C145.709 78.1515 156.978 77.6077 157.371 78.1213C157.462 78.2723 158.066 78.6651 158.7 78.9974C159.335 79.36 161.027 80.6289 162.416 81.8675C164.501 83.6802 165.437 84.8283 167.25 87.6682C168.489 89.6018 169.486 91.354 169.486 91.5051C169.486 91.8374 170.453 92.4417 170.996 92.4417C171.752 92.4417 172.265 90.1758 172.416 86.1878C172.507 83.9824 172.688 82.1697 172.809 82.1697C173.232 82.1697 177.885 84.7377 180.06 86.1878C184.32 89.0277 188.58 93.0157 191.722 97.1849C193.142 99.0581 193.353 99.5414 193.353 100.689C193.353 101.747 193.655 102.563 194.592 104.194C196.948 108.303 198.791 113.469 199.909 119.179C200.634 123.016 200.634 130.267 199.879 134.285C197.825 145.343 191.722 156.34 183.776 163.319C177.039 169.21 169.879 172.835 161.419 174.618C158.519 175.252 149.818 175.675 147.129 175.343ZM125.528 154.678C125.8 154.376 125.981 153.923 125.89 153.711C125.863 153.648 125.485 153.47 124.931 153.21C123.64 152.603 121.396 151.548 120.424 150.448C116.557 146.037 115.137 142.744 114.26 135.947C113.414 129.33 114.125 124.857 115.65 117.669C116.394 114.162 118.371 111.265 119.602 109.463C120.438 108.237 120.929 107.518 120.452 107.457C119.274 107.276 119.093 107.366 117.854 108.545C115.195 111.082 113.987 113.107 112.718 117.004C110.754 123.107 110.375 139.599 114.26 147.034C118.146 154.469 124.833 155.463 125.528 154.678ZM168.489 129.3C167.976 133.993 165.8 140.781 163.262 143.741C162.084 145.131 157.759 147.518 154.108 147.034C150.582 146.567 147.824 144.92 145.467 141.385C143.443 138.333 142.398 134.63 141.691 129.965C140.47 121.91 145.8 112.533 148.096 110.206C150.422 107.819 152.084 106.974 154.199 106.943C156.253 106.943 157.582 107.397 159.667 108.877C163.474 111.536 169.486 120.18 168.489 129.3ZM127.763 104.315C128.368 103.62 128.458 103.288 128.277 101.989C128.156 100.78 127.914 100.297 127.28 99.7831C126.162 98.8768 124.772 98.8768 123.745 99.8436C123.02 100.538 122.929 100.78 123.02 102.442C123.111 104.224 123.171 104.345 124.168 104.889C125.497 105.614 126.797 105.403 127.763 104.315ZM146.616 85.6742C141.177 89.5715 138.821 91.1728 136.374 92.6834C134.44 93.8918 133.836 93.922 133.836 92.8344C133.836 92.2604 134.259 91.6259 135.347 90.629L136.857 89.2392L133.927 88.8465C130.634 88.4235 127.431 87.5171 126.736 86.8223C125.588 85.644 126.585 85.3721 129.848 85.9763C131.298 86.218 134.108 86.5202 136.102 86.5806L139.727 86.7316L142.356 84.8283C148.126 80.6591 154.108 78.3025 156.978 79.0276C158.761 79.4506 158.549 79.934 156.525 80.1757C154.199 80.4476 152.779 81.2331 146.616 85.6742Z" fill="white"/>
<path d="M154.38 142.896C154.38 142.745 154.561 142.594 154.803 142.594C155.045 142.594 155.347 142.745 155.437 142.896C155.528 143.077 155.347 143.198 155.014 143.198C154.652 143.198 154.38 143.077 154.38 142.896Z" fill="white"/>
<path d="M156.192 142.623C156.192 142.29 156.948 141.988 157.794 141.988C158.458 142.018 158.458 142.018 157.884 142.441C157.22 142.955 156.192 143.046 156.192 142.623Z" fill="white"/>
<path d="M151.51 141.836C151.42 141.594 151.299 141.171 151.208 140.93C151.117 140.628 151.269 140.477 151.661 140.477C151.994 140.477 152.266 140.658 152.266 140.9C152.266 141.141 152.356 141.534 152.447 141.806C152.568 142.138 152.477 142.289 152.145 142.289C151.873 142.289 151.571 142.078 151.51 141.836Z" fill="white"/>
<path d="M153.112 141.08C152.961 140.173 153.293 139.871 154.38 139.871C154.713 139.871 154.985 140.173 155.106 140.687C155.347 141.563 154.954 141.986 153.897 141.986C153.414 141.986 153.202 141.774 153.112 141.08Z" fill="white"/>
<path d="M150.03 141.231C149.456 140.777 149.456 140.777 150.09 140.777C150.483 140.777 150.755 140.959 150.755 141.231C150.755 141.774 150.755 141.774 150.03 141.231Z" fill="white"/>
<path d="M156.103 141.203C155.71 140.81 155.891 139.632 156.375 139.451C157.251 139.118 157.643 139.27 157.825 140.055C157.946 140.508 158.006 140.901 157.946 140.931C157.704 141.203 156.284 141.384 156.103 141.203Z" fill="white"/>
<path d="M158.791 140.568C158.7 140.477 158.609 140.084 158.609 139.722C158.609 139.208 158.851 138.997 159.576 138.846C160.211 138.725 160.603 138.785 160.785 139.027C161.087 139.51 161.087 140.114 160.815 140.266C160.271 140.568 159.002 140.749 158.791 140.568Z" fill="white"/>
<path d="M148.64 139.63C148.64 139.267 148.912 138.965 149.304 138.874C150.09 138.663 150.06 138.633 150.211 139.418C150.271 139.871 150.12 140.053 149.486 140.113C148.821 140.204 148.64 140.083 148.64 139.63Z" fill="white"/>
<path d="M150.936 139.662C150.513 139.209 150.785 138.363 151.359 138.363C151.752 138.363 151.964 138.575 151.964 138.937C151.964 139.511 151.269 139.995 150.936 139.662Z" fill="white"/>
<path d="M152.749 138.755C152.507 138.181 153.021 137.758 154.018 137.758C154.471 137.758 154.682 137.939 154.682 138.332C154.682 138.664 154.41 138.966 154.018 139.087C153.021 139.329 152.96 139.329 152.749 138.755Z" fill="white"/>
<path d="M161.479 138.665C161.57 138.514 161.721 138.363 161.812 138.363C161.902 138.363 161.872 138.514 161.782 138.665C161.691 138.847 161.54 138.968 161.449 138.968C161.359 138.968 161.389 138.847 161.479 138.665Z" fill="white"/>
<path d="M155.468 138.15C155.226 137.546 155.528 137.244 156.495 137.093C157.039 137.032 157.281 137.153 157.341 137.576C157.553 138.573 155.83 139.117 155.468 138.15Z" fill="white"/>
<path d="M148.217 137.638C147.945 136.641 148.005 136.551 148.791 136.551C149.214 136.551 149.546 136.672 149.546 136.823C149.546 136.974 149.637 137.306 149.728 137.548C149.818 137.85 149.637 138.031 149.123 138.122C148.549 138.243 148.338 138.122 148.217 137.638Z" fill="white"/>
<path d="M158.308 137.306C158.308 136.762 158.519 136.521 159.093 136.37C159.939 136.158 160.422 136.581 160.422 137.548C160.422 137.941 160.181 138.062 159.365 138.062C158.428 138.062 158.308 137.971 158.308 137.306Z" fill="white"/>
<path d="M147.31 137.305C147.22 137.063 147.28 136.852 147.431 136.852C147.612 136.852 147.733 137.063 147.733 137.305C147.733 137.546 147.673 137.758 147.612 137.758C147.552 137.758 147.431 137.546 147.31 137.305Z" fill="white"/>
<path d="M150.362 137.546C149.939 137.153 150.181 136.307 150.724 136.156C151.057 136.066 151.389 136.096 151.48 136.186C151.842 136.519 151.631 137.395 151.178 137.576C150.604 137.788 150.604 137.788 150.362 137.546Z" fill="white"/>
<path d="M161.148 137.335C160.815 136.459 161.178 135.794 162.024 135.704C162.658 135.613 162.84 135.734 162.84 136.217C162.84 137.214 162.507 137.758 161.903 137.758C161.571 137.758 161.238 137.577 161.148 137.335Z" fill="white"/>
<path d="M152.477 136.943C152.114 136.611 152.235 136.006 152.748 135.825C153.322 135.614 154.531 136.218 154.199 136.55C153.776 136.913 152.688 137.185 152.477 136.943Z" fill="white"/>
<path d="M155.105 136.187C154.834 135.764 155.8 135.039 156.586 135.039C156.948 135.039 157.099 135.22 157.039 135.553C156.918 136.157 155.377 136.64 155.105 136.187Z" fill="white"/>
<path d="M146.827 135.977C146.827 135.826 146.737 135.494 146.646 135.222C146.556 134.95 146.586 134.738 146.767 134.738C147.16 134.738 147.462 135.886 147.099 136.128C146.948 136.219 146.827 136.158 146.827 135.977Z" fill="white"/>
<path d="M147.643 135.281C147.462 134.616 147.824 134.133 148.519 134.133C148.912 134.133 149.305 135.311 149.063 135.704C148.731 136.217 147.794 135.915 147.643 135.281Z" fill="white"/>
<path d="M149.758 135.43C149.304 134.977 149.576 133.889 150.18 133.738C150.634 133.617 150.875 133.768 151.117 134.312C151.298 134.705 151.389 135.098 151.329 135.158C151.026 135.43 149.939 135.642 149.758 135.43Z" fill="white"/>
<path d="M157.915 135.432C157.522 135.039 157.703 134.797 158.609 134.465C159.365 134.223 159.576 134.253 159.727 134.616C159.999 135.341 158.489 136.036 157.915 135.432Z" fill="white"/>
<path d="M160.574 134.738C160.271 134.255 160.694 133.832 161.48 133.832C162.416 133.832 162.688 134.618 161.842 134.859C160.936 135.101 160.785 135.071 160.574 134.738Z" fill="white"/>
<path d="M163.142 134.013C163.142 133.56 163.685 133.077 163.927 133.318C164.139 133.53 163.716 134.436 163.414 134.436C163.262 134.436 163.142 134.255 163.142 134.013Z" fill="white"/>
<path d="M146.434 133.618C146.313 133.528 146.223 133.135 146.253 132.803C146.253 132.229 146.283 132.229 146.555 132.893C146.857 133.618 146.797 133.981 146.434 133.618Z" fill="white"/>
<path d="M147.009 133.168C146.737 132.11 146.767 132.02 147.552 132.02C148.429 132.02 148.972 133.137 148.308 133.56C147.613 133.983 147.22 133.862 147.009 133.168Z" fill="white"/>
<path d="M157.401 133.77C157.401 133.679 157.552 133.196 157.734 132.652C158.157 131.444 159.093 131.383 159.305 132.562C159.395 133.015 159.426 133.407 159.395 133.438C159.244 133.619 157.401 133.891 157.401 133.77Z" fill="white"/>
<path d="M149.154 133.013C149.033 132.923 148.942 132.56 148.942 132.228C148.942 131.744 149.033 131.714 149.396 132.016C149.637 132.228 149.849 132.59 149.849 132.802C149.849 133.255 149.486 133.376 149.154 133.013Z" fill="white"/>
<path d="M160.029 132.411C159.848 131.475 160.241 131.052 161.177 131.173C161.631 131.233 161.782 131.505 161.782 132.17C161.782 132.925 161.661 133.106 160.996 133.167C160.331 133.257 160.18 133.106 160.029 132.411Z" fill="white"/>
<path d="M162.99 132.53C162.598 131.322 162.719 130.959 163.534 130.868C164.259 130.778 164.35 130.868 164.35 131.654C164.35 132.319 164.169 132.59 163.716 132.711C163.383 132.802 163.051 132.711 162.99 132.53Z" fill="white"/>
<path d="M145.981 130.808C145.981 130.234 146.042 129.993 146.133 130.295C146.193 130.567 146.193 131.05 146.133 131.352C146.042 131.624 145.981 131.383 145.981 130.808Z" fill="white"/>
<path d="M146.736 131.204C146.344 130.841 146.525 129.663 147.008 129.482C147.703 129.21 148.036 129.542 148.036 130.539C148.036 131.174 147.885 131.415 147.492 131.415C147.19 131.415 146.827 131.325 146.736 131.204Z" fill="white"/>
<path d="M148.549 130.387C148.428 129.934 148.368 129.45 148.489 129.36C148.791 129.058 148.972 129.541 148.881 130.417L148.791 131.263L148.549 130.387Z" fill="white"/>
<path d="M158.308 130.177C158.308 129.844 158.459 129.663 158.61 129.754C158.791 129.844 158.912 130.146 158.912 130.388C158.912 130.63 158.791 130.811 158.61 130.811C158.459 130.811 158.308 130.539 158.308 130.177Z" fill="white"/>
<path d="M159.667 130.567C159.244 130.113 159.576 129.298 160.271 129.116C161.147 128.905 161.177 128.905 161.449 129.781C161.631 130.325 161.51 130.446 160.724 130.567C160.241 130.657 159.758 130.627 159.667 130.567Z" fill="white"/>
<path d="M162.446 129.993C162.114 129.691 162.205 128.694 162.537 128.694C162.718 128.694 162.839 128.573 162.839 128.391C162.839 128.24 162.658 128.089 162.416 128.089C161.902 128.089 161.48 126.609 161.902 126.186C162.446 125.642 163.051 126.216 163.413 127.697C163.625 128.482 163.836 129.388 163.927 129.691C164.048 130.083 163.927 130.204 163.353 130.204C162.96 130.204 162.537 130.113 162.446 129.993Z" fill="white"/>
<path d="M164.079 128.394C163.867 127.488 163.323 125.675 162.93 124.346C162.326 122.412 162.266 121.929 162.598 121.717C162.81 121.566 163.082 121.445 163.172 121.445C163.504 121.445 164.713 127.639 164.592 128.847L164.501 130.056L164.079 128.394Z" fill="white"/>
<path d="M145.679 128.241C145.679 127.757 145.739 127.576 145.83 127.878C145.89 128.15 145.89 128.573 145.83 128.785C145.739 128.966 145.679 128.754 145.679 128.241Z" fill="white"/>
<path d="M146.283 128.183C146.404 127.125 147.28 126.883 147.522 127.85C147.734 128.636 147.794 128.545 146.888 128.847C146.253 129.028 146.193 128.968 146.283 128.183Z" fill="white"/>
<path d="M159.033 127.907C158.791 127.031 159.305 126.518 160.272 126.639C160.997 126.729 161.269 128.028 160.664 128.421C159.909 128.904 159.214 128.693 159.033 127.907Z" fill="white"/>
<path d="M148.036 127.668C148.036 127.155 148.187 126.883 148.52 126.883C148.822 126.883 148.942 127.094 148.882 127.547C148.731 128.514 148.036 128.605 148.036 127.668Z" fill="white"/>
<path d="M145.347 126.4C145.347 126.068 145.437 125.977 145.528 126.219C145.619 126.43 145.588 126.702 145.498 126.793C145.407 126.913 145.317 126.732 145.347 126.4Z" fill="white"/>
<path d="M145.921 126.306C145.921 125.853 146.102 125.672 146.555 125.672C146.978 125.672 147.129 125.823 147.069 126.185C146.918 126.971 145.921 127.062 145.921 126.306Z" fill="white"/>
<path d="M147.582 126.037C147.371 125.493 147.371 125.493 148.277 125.252C148.821 125.07 148.942 125.161 148.942 125.614C148.942 126.339 147.854 126.702 147.582 126.037Z" fill="white"/>
<path d="M158.519 125.613C158.308 124.858 158.7 124.465 159.758 124.465C160.271 124.465 160.422 124.646 160.422 125.22C160.422 125.673 160.241 125.975 159.999 125.975C159.758 125.975 159.365 126.066 159.123 126.157C158.851 126.247 158.64 126.066 158.519 125.613Z" fill="white"/>
<path d="M161.147 124.917C160.905 124.313 161.268 123.859 161.963 123.859C162.386 123.859 162.537 124.071 162.537 124.615C162.537 125.158 162.386 125.37 161.933 125.37C161.6 125.37 161.238 125.158 161.147 124.917Z" fill="white"/>
<path d="M145.619 124.493C145.619 123.859 146.314 123.134 146.616 123.466C146.737 123.557 146.828 123.98 146.828 124.373C146.828 124.856 146.646 125.068 146.223 125.068C145.831 125.068 145.619 124.856 145.619 124.493Z" fill="white"/>
<path d="M147.281 124.132C147.039 123.376 147.311 123.044 148.338 122.893C149.275 122.772 149.577 123.769 148.761 124.373C147.976 124.947 147.492 124.857 147.281 124.132Z" fill="white"/>
<path d="M158.217 123.951C158.006 123.77 157.915 122.652 158.096 122.652C158.126 122.652 158.58 122.531 159.123 122.38C160.03 122.108 160.09 122.139 160.06 122.954C160.03 123.559 159.848 123.861 159.395 123.982C158.58 124.193 158.459 124.193 158.217 123.951Z" fill="white"/>
<path d="M157.1 123.258C157.1 123.047 157.19 122.956 157.311 123.047C157.402 123.168 157.402 123.349 157.311 123.47C157.19 123.56 157.1 123.47 157.1 123.258Z" fill="white"/>
<path d="M160.483 122.773C160.573 122.259 161.51 121.504 161.721 121.746C161.812 121.836 161.963 122.199 162.054 122.592C162.265 123.196 162.174 123.256 161.329 123.256C160.603 123.256 160.392 123.135 160.483 122.773Z" fill="white"/>
<path d="M145.921 122.741C145.921 122.59 146.072 122.288 146.223 122.046C146.465 121.684 146.525 121.714 146.525 122.288C146.525 122.651 146.404 122.953 146.223 122.953C146.072 122.953 145.921 122.862 145.921 122.741Z" fill="white"/>
<path d="M146.827 122.078C146.827 121.232 147.462 120.961 147.945 121.595C148.247 122.048 148.247 122.199 147.945 122.411C147.311 122.803 146.827 122.683 146.827 122.078Z" fill="white"/>
<path d="M156.011 121.687C155.468 121.083 155.468 121.053 155.981 121.234C156.283 121.355 156.676 121.446 156.827 121.446C156.978 121.446 157.099 121.657 157.099 121.899C157.099 122.533 156.676 122.473 156.011 121.687Z" fill="white"/>
<path d="M149.516 121.655C148.216 120.658 148.035 118.422 149.244 118.422C150.059 118.422 150.815 119.691 150.694 120.869C150.603 121.957 150.241 122.198 149.516 121.655Z" fill="white"/>
<path d="M157.794 121.838C157.915 121.747 158.096 121.747 158.217 121.838C158.307 121.958 158.217 122.049 158.005 122.049C157.794 122.049 157.703 121.958 157.794 121.838Z" fill="white"/>
<path d="M162.356 120.659C162.446 120.387 162.537 120.115 162.537 120.054C162.537 119.994 162.688 119.934 162.839 119.934C163.02 119.934 163.141 120.205 163.141 120.538C163.141 120.9 162.93 121.142 162.658 121.142C162.326 121.142 162.235 120.991 162.356 120.659Z" fill="white"/>
<path d="M146.525 120.566C146.525 119.871 147.16 118.723 147.522 118.723C148.157 118.723 147.704 120.656 147.039 120.777C146.767 120.837 146.525 120.747 146.525 120.566Z" fill="white"/>
<path d="M153.322 120.236L152.416 120.024L153.232 119.813C154.078 119.571 154.682 119.752 154.682 120.266C154.682 120.568 154.652 120.568 153.322 120.236Z" fill="white"/>
<path d="M152.266 118.784C152.266 117.545 152.96 117.364 153.595 118.451C154.018 119.176 154.048 119.327 153.655 119.327C153.414 119.327 153.021 119.418 152.749 119.509C152.386 119.66 152.266 119.478 152.266 118.784Z" fill="white"/>
<path d="M157.522 119.209C156.162 118.605 155.286 117.004 155.286 115.101C155.286 113.741 155.407 113.409 156.223 112.653C156.736 112.17 157.25 111.777 157.401 111.777C158.066 111.777 160.513 114.104 161.328 115.554L162.265 117.215L161.268 118.273C160.12 119.481 158.851 119.814 157.522 119.209Z" fill="white"/>
<path d="M151.208 118.423C151.117 118.272 151.177 118.121 151.328 118.121C151.51 118.121 151.661 118.272 151.661 118.423C151.661 118.604 151.6 118.725 151.54 118.725C151.449 118.725 151.298 118.604 151.208 118.423Z" fill="white"/>
<path d="M147.251 117.94C147.341 117.668 147.432 117.396 147.432 117.336C147.432 117.275 147.704 117.215 148.036 117.215C148.791 117.215 148.822 117.698 148.066 118.121C147.251 118.544 147.039 118.514 147.251 117.94Z" fill="white"/>
<path d="M149.637 117.578C148.942 117.487 148.731 117.095 149.184 116.823C149.305 116.732 149.848 116.581 150.392 116.46C151.208 116.279 151.359 116.339 151.359 116.853C151.359 117.487 150.725 117.759 149.637 117.578Z" fill="white"/>
<path d="M151.963 116.551C151.963 116.189 151.993 115.977 152.054 116.038C152.084 116.098 152.325 116.4 152.537 116.702C152.899 117.125 152.869 117.216 152.446 117.216C152.144 117.216 151.963 116.974 151.963 116.551Z" fill="white"/>
<path d="M147.733 116.338C147.733 116.156 147.884 115.945 148.036 115.854C148.217 115.764 148.338 115.885 148.338 116.126C148.338 116.398 148.217 116.61 148.036 116.61C147.884 116.61 147.733 116.489 147.733 116.338Z" fill="white"/>
<path d="M148.851 115.883C148.609 115.279 150.754 114.614 151.117 115.188C151.389 115.672 151.117 115.883 149.969 116.125C149.274 116.276 148.972 116.216 148.851 115.883Z" fill="white"/>
<path d="M151.691 114.919C151.691 114.587 151.782 114.496 151.873 114.738C151.963 114.95 151.933 115.222 151.843 115.312C151.752 115.433 151.661 115.252 151.691 114.919Z" fill="white"/>
<path d="M149.124 114.436C149.486 113.771 150.544 112.684 150.815 112.684C151.118 112.684 151.148 114.104 150.846 114.285C150.695 114.345 150.211 114.496 149.758 114.617C149.093 114.768 148.942 114.738 149.124 114.436Z" fill="white"/>
<path d="M151.54 113.74C151.208 112.834 151.359 112.441 152.084 112.32C152.839 112.169 152.839 112.169 152.356 113.106C151.751 114.314 151.782 114.314 151.54 113.74Z" fill="white"/>
<path d="M151.359 111.925C151.359 111.865 151.964 111.442 152.719 111.019C153.625 110.475 154.26 110.294 154.713 110.415C155.257 110.596 155.106 110.717 153.776 111.351C152.296 112.016 151.359 112.258 151.359 111.925Z" fill="white"/>
<path d="M168.127 85.158C167.311 83.9798 165.589 82.0764 164.35 80.9284C163.112 79.7803 162.296 78.8438 162.538 78.8438C163.202 78.8438 168.278 80.2335 169.547 80.7773C170.604 81.2305 170.634 81.2909 170.362 82.2275C170.211 82.7713 170.091 84.1308 170.091 85.2487C170.091 86.3967 170 87.3031 169.879 87.3031C169.728 87.3031 168.973 86.3363 168.127 85.158Z" fill="white"/>
<path d="M106.646 176.669C105.407 176.035 105.135 175.672 103.564 172.561C101.298 168.15 101.238 167.122 103.383 169.63C104.229 170.627 106.193 172.681 107.734 174.192C110.362 176.73 110.483 176.911 109.607 176.79C108.972 176.7 108.731 176.76 108.882 177.002C109.244 177.546 108.096 177.394 106.646 176.669Z" fill="white"/>
<path fill-rule="evenodd" clip-rule="evenodd" d="M157.278 231.715C157.027 231.119 157.306 230.433 157.902 230.182L158.553 229.906C164.881 227.198 168.514 225.572 170.982 222.989C173.45 220.406 173.745 216.612 174.209 214.304C174.336 213.67 175.771 214.783 176.404 214.91C177.038 215.037 177.448 215.654 177.321 216.288C176.763 219.063 175.262 221.709 172.845 224.221C170.436 226.724 165.772 229.408 158.81 232.339C158.214 232.59 157.528 232.31 157.278 231.715Z" fill="#00160A"/>
<path fill-rule="evenodd" clip-rule="evenodd" d="M185.896 111.169C186.451 110.838 187.169 111.02 187.5 111.576C190.809 117.135 192.582 123.49 192.582 130.102C192.582 150.134 176.344 166.372 156.312 166.372C150.99 166.372 145.827 165.224 141.099 163.037C140.513 162.766 138.298 160.605 140.529 161.484C142.76 162.362 151.393 164.335 156.374 164.335C175.114 164.335 188.37 148.841 188.37 130.102C188.37 123.915 185.896 118.422 185.489 112.773C185.442 112.118 185.341 111.499 185.896 111.169Z" fill="#00160A"/>
<path fill-rule="evenodd" clip-rule="evenodd" d="M70.022 199.723C70.4356 199.226 71.1733 198.223 71.6698 198.637C73.7066 200.333 75.8801 202.299 78.2051 202.678C80.6245 203.073 83.4947 203.073 86.812 202.671C87.4535 202.594 88.0365 203.051 88.1142 203.692C88.1918 204.334 87.7348 204.917 87.0933 204.994C83.5705 205.421 80.4834 205.421 77.8283 204.988C75.0788 204.539 72.5218 203.328 70.1722 201.371C69.6757 200.957 69.6085 200.219 70.022 199.723Z" fill="#00160A"/>
<path d="M94.8632 158.786C93.3526 157.577 90.1199 154.012 87.6728 150.87C86.4039 149.209 84.9839 145.825 84.138 142.411C83.7452 140.87 83.3525 139.48 83.2618 139.299C83.141 139.148 82.6576 137.003 82.1742 134.526C81.4491 131.021 81.6025 129.892 80.9657 125.7C80.6961 123.925 80.4521 122.513 80.4521 122.513L81.2377 121.504C81.6908 120.9 82.2641 119.9 82.4763 119.329C83.4431 116.728 90.5429 108.574 90.7544 108.785C90.8148 108.846 90.5731 110.266 90.1501 111.927C89.7574 113.589 89.274 116.097 89.0625 117.516C88.7604 119.873 88.6395 120.145 87.703 120.93C86.5247 121.927 84.289 125.13 84.289 125.795C84.289 126.701 85.6486 126.097 87.0685 124.616L88.5187 123.106V124.767C88.5187 125.855 88.3072 126.852 87.9145 127.637C87.1592 129.118 87.1592 130.689 87.8843 131.897C88.2468 132.502 88.5791 133.952 88.7906 135.674C89.7272 143.468 91.7211 150.236 95.1351 157.034C95.981 158.725 96.6457 160.115 96.6155 160.115C96.555 160.115 95.7695 159.511 94.8632 158.786Z" fill="white"/>
<path fill-rule="evenodd" clip-rule="evenodd" d="M220.574 177.427L222.749 178.393C223.201 178.601 228.176 180.992 234.153 183.864C243.789 188.494 256.029 194.375 256.103 194.375C256.224 194.375 256.791 193.064 256.919 191.535C257.221 188.242 258.339 183.771 259.638 180.659C260.242 179.269 260.726 177.533 260.726 177.381C260.726 177.313 260.235 177.114 259.43 176.79C258.473 176.404 257.073 175.839 255.529 175.1C247.916 171.445 233.021 163.982 231.179 162.864C229.366 161.807 229.003 161.716 229.003 162.411C229.003 163.318 227.16 167.517 225.74 169.783C224.985 171.022 223.505 173.257 222.447 174.738L220.574 177.427ZM255.59 188.937C256.456 189.439 254.955 190.176 254.593 190.297C252.458 190.478 249.945 190.077 247.886 188.877C246.809 188.113 238.332 183.404 232.708 180.279C230.137 178.851 228.163 177.754 227.765 177.517C226.496 176.762 225.287 175.946 225.076 175.704C224.441 174.889 225.046 174.526 226.828 174.677C227.9 174.768 253.718 187.853 255.59 188.937Z" fill="white"/>
<path d="M198.882 180.148C198.097 179.876 197.251 179.272 196.707 178.577L195.801 177.459L199.003 174.287C203.928 169.453 207.553 164.17 210.816 158.279C211.904 156.315 215.136 148.396 215.529 147.519C216.133 146.251 216.586 145.767 217.886 145.042C219.426 144.136 221.179 143.834 221.934 144.347C223.384 145.314 223.384 148.365 221.934 153.622C220.333 159.393 218.188 163.532 213.747 169.483C213.052 170.39 211.753 172.172 210.816 173.411C208.308 176.734 206.677 178.336 204.472 179.574C202.296 180.783 201.027 180.934 198.882 180.148Z" fill="white"/>
<path d="M210.272 179.451L209.638 178.817C209.638 178.817 220.168 165.438 222.055 160.508C223.495 156.746 224.342 155.68 225.486 155.68C226.125 155.68 226.647 155.826 226.889 156.188C227.312 156.823 227.719 157.608 227.175 160.297C226.269 164.647 224.879 167.518 220.71 173.711C219.743 175.131 218.505 176.702 217.961 177.246C216.692 178.424 213.837 179.633 212.175 179.904C211.118 180.056 210.816 179.995 210.272 179.451Z" fill="white"/>
<path fill-rule="evenodd" clip-rule="evenodd" d="M227.96 165.461C228.57 164.067 229.004 162.851 229.004 162.411C229.004 161.716 229.366 161.807 231.179 162.864C233.022 163.982 247.916 171.445 255.53 175.1C258.37 176.46 260.726 177.23 260.726 177.381C260.726 177.533 227.314 166.939 227.96 165.461Z" fill="#E7EAEE"/>
<path fill-rule="evenodd" clip-rule="evenodd" d="M124.592 167.185C120.755 164.678 114.955 158.787 112.145 154.587C108.127 148.545 105.468 142.079 104.169 135.131C103.232 130.085 103.263 122.321 104.199 117.819C105.166 113.227 106.405 109.723 108.61 105.282C111.178 100.146 113.897 96.369 117.976 92.2904C121.975 88.2908 104.199 104.831 108.61 134.425C112.145 159.224 127.336 168.993 124.592 167.185Z" fill="#E7EAEE"/>
</svg>
