<svg width="337" height="337" viewBox="0 0 337 337" fill="none" xmlns="http://www.w3.org/2000/svg">
<path fill-rule="evenodd" clip-rule="evenodd" d="M324.835 140.8C320.952 169.748 316.569 185.039 290.989 215.355C265.409 245.671 148.352 265.615 105.076 265.615C61.8007 265.615 8.46831 232.244 11.8343 193.58C15.2002 154.915 32.761 123.313 74.7934 119.423C117.748 115.447 155.481 133.858 197.652 123.984C234.111 115.447 245.267 82.9086 270.308 72.6428C320.952 51.8811 327.476 121.106 324.835 140.8Z" fill="#10B981"/>
<path d="M298.78 154.939C297.349 157.364 279.237 169.636 268.25 171.452C266.124 171.803 263.802 171.924 261.955 170.814C260.864 170.158 260.051 169.135 259.279 168.123C257.513 165.81 255.829 163.434 254.23 161.003C253.389 159.725 252.556 158.391 252.271 156.888C251.515 152.91 254.722 149.336 257.891 146.815C265.177 141.02 273.708 136.799 282.735 134.521C284.333 134.118 286.027 133.777 287.61 134.235C290.179 134.978 291.715 137.577 292.696 140.066C293.676 142.554 294.44 145.276 296.4 147.097C296.847 147.512 300.21 152.514 298.78 154.939Z" fill="white"/>
<path fill-rule="evenodd" clip-rule="evenodd" d="M201.455 260.661C183.876 263.667 192.255 250.891 194.679 234.899C198.662 208.623 203.574 168.691 203.574 168.691C203.574 168.691 206.778 229.537 206.778 244.353C206.778 259.169 203.574 260.298 201.455 260.661Z" fill="white"/>
<path d="M182.672 246.185C183.121 250.416 183.594 254.737 185.392 258.593C184.411 249.861 183.43 241.128 182.449 232.395C182.328 231.317 182.364 229.944 183.356 229.505C184.195 239.365 185.447 249.191 187.106 258.947C187.303 260.105 185.563 260.767 184.586 260.115C183.609 259.462 183.296 258.192 183.074 257.039C181.455 248.631 180.565 240.084 180.417 231.524C178.355 231.93 176.91 233.928 176.493 235.987C176.076 238.046 176.478 240.173 176.879 242.235C178.172 248.873 179.465 255.511 180.758 262.149C181.362 265.254 181.967 268.462 181.3 271.554C178.734 259.84 176.671 248.015 175.119 236.124C155.432 248.163 130.065 250.402 108.574 241.997C103.88 240.161 99.2185 237.729 96.1183 233.755C93.6761 230.625 92.3729 226.739 91.6902 222.828C89.2655 208.938 94.2343 194.769 100.978 182.386C103.537 177.688 106.451 172.794 106.245 167.448C106.174 165.608 105.777 163.57 106.852 162.074C107.004 162.351 99.8154 110.929 102.699 99.5546C109.642 72.1718 132.194 68.4634 146.634 68.8011C156.323 69.0278 217.735 81.2324 226.608 97.8294C238.27 119.643 235.794 137.982 233.723 150.074C233.106 153.675 203.582 168.427 203.574 168.501C201.886 184.192 190.56 218.382 181.06 230.984C181.597 236.051 182.135 241.118 182.672 246.185Z" fill="white"/>
<path fill-rule="evenodd" clip-rule="evenodd" d="M40.9173 182.339C35.3805 180.128 28.7824 180.784 23.7907 184.04C23.3074 184.355 22.6126 184.004 22.3734 183.479C22.1342 182.955 22.2237 182.345 22.346 181.782C23.9403 174.445 30.2913 168.831 37.3543 166.252C44.4172 163.672 52.1428 163.664 59.6508 164.106C60.3958 164.149 61.1744 164.207 61.8099 164.598C62.4454 164.989 62.8729 165.824 62.5562 166.498C59.6027 172.787 57.3779 179.417 55.9403 186.213C55.7071 187.315 54.5653 188.046 53.4407 188.138C52.3161 188.23 51.2142 187.815 50.1936 187.334C47.0129 185.837 44.1824 183.642 40.9173 182.339" fill="white"/>
<path d="M156.953 278.074C160.187 277.984 163.441 278.699 166.34 280.137C165.565 281.25 164.008 281.406 162.652 281.458C150.842 281.906 139.032 282.354 127.223 282.803C126.898 282.762 126.836 282.261 127.066 282.028C127.296 281.795 127.656 281.766 127.983 281.75C139.512 281.188 151.041 280.625 162.569 280.062C160.571 279.879 158.621 279.189 156.953 278.074ZM214.695 248.784C214.961 248.391 215.561 248.182 215.921 248.492C214.502 255.06 213.083 261.628 211.664 268.196C213.069 267.152 214.843 266.617 216.591 266.711C215.042 267.864 213.864 269.507 213.268 271.344C214.296 270.552 216.046 271.102 216.435 272.34C217.034 271.897 218.026 272.197 218.279 272.897C218.532 273.597 217.962 274.461 217.219 274.505C230.412 274.621 243.607 274.737 256.801 274.853C248.581 276.411 240.126 275.215 231.761 275.06C226.325 274.96 220.882 275.304 215.503 276.087C215.978 275.152 216.321 274.149 216.516 273.118C206.151 276.028 195.159 272.583 184.393 272.65C181.485 272.668 178.002 273.346 176.932 276.051C176.461 273.103 175.99 270.155 175.519 267.208C175.091 269.585 174.662 271.962 174.233 274.339C174.128 274.921 173.993 275.555 173.53 275.924C172.934 276.397 172.009 276.207 171.44 275.701C170.871 275.195 170.575 274.458 170.307 273.745C168.732 269.538 167.521 265.194 166.694 260.778C166.641 266.206 168.867 271.365 171.052 276.335C170.1 276.071 169.149 275.808 168.197 275.544C168.967 276.51 169.738 277.476 170.508 278.441C168.125 277.548 165.815 276.458 163.611 275.185C164.52 276.454 165.429 277.722 166.338 278.991C164.109 277.939 162.153 276.313 160.714 274.312C162.729 273.766 164.984 274.188 166.665 275.426C165.885 274.315 165.53 272.913 165.687 271.565L168.915 274.397C167.098 270.239 165.837 265.837 165.176 261.348C165.044 260.455 165.144 259.244 166.026 259.056C166.934 258.864 167.507 259.987 167.742 260.885C168.754 264.742 169.766 268.6 170.777 272.458C171.178 271.1 171.579 269.741 171.979 268.383C172.175 270.013 172.714 271.602 173.551 273.015C173.832 270.134 174.709 267.311 176.111 264.778C176.417 267.599 176.723 270.42 177.029 273.241C186.228 270.39 196.09 273.399 205.712 273.806C207.655 273.888 209.712 273.833 211.375 272.825C213.038 271.817 214.082 269.547 213.126 267.853C212.135 269.461 210.857 270.892 209.37 272.056C210.738 269.101 212.134 266.022 212.111 262.765C210.744 265.469 209.377 268.173 208.01 270.877C207.304 269.694 206.6 268.511 205.894 267.328C204.949 269.017 205.238 271.307 206.574 272.708C205.409 271.927 204.243 271.147 203.078 270.366C202.901 270.839 202.724 271.312 202.548 271.785C201.411 271.424 200.488 270.453 200.184 269.3C201.373 268.818 202.812 269.016 203.826 269.802C204.572 268.003 205.318 266.203 206.064 264.404C206.585 265.91 207.105 267.417 207.626 268.923C211.602 263.481 213.975 256.881 214.374 250.153C214.402 249.679 214.429 249.177 214.695 248.784ZM214.765 272.722C214.614 272.24 213.797 272.202 213.602 272.667L213.486 272.623C213.341 272.794 213.341 273.07 213.484 273.242C213.944 273.173 214.387 272.993 214.765 272.722ZM106.851 162.073C108.035 164.227 108.487 166.776 108.114 169.205C128.495 168.328 148.906 168.151 169.3 168.676C169.537 169.613 168.179 170.048 167.212 170.034C148.18 169.75 129.139 170.075 110.129 171.007C109.527 171.036 108.895 171.075 108.385 171.395C107.848 171.733 107.534 172.324 107.246 172.889C101.85 183.446 96.4379 194.157 93.8299 205.723C92.4888 211.67 91.975 218.179 94.7235 223.621C95.7662 225.685 97.2409 227.509 98.8876 229.134C107.728 237.853 120.966 240.527 133.382 240.318C141.305 240.185 149.212 239.045 156.851 236.936C164.95 234.7 173.027 231.176 178.555 224.849C181.801 221.134 184.007 216.634 185.939 212.095C189.629 203.426 192.459 194.393 194.374 185.169C195.573 185.421 195.59 187.117 195.313 188.311C191.889 203.084 187.909 218.829 176.631 228.966C166.445 238.12 152.091 240.96 138.417 241.725C130.518 242.168 122.494 242.029 114.844 240.015C107.193 238.002 99.888 233.974 95.0311 227.729C96.4477 233.131 101.246 236.986 106.242 239.48C119.359 246.03 134.849 245.684 149.332 243.407C158.98 241.89 168.882 239.401 176.39 233.156C182.808 227.817 186.899 220.192 189.977 212.432C193.385 203.843 195.749 194.841 197.001 185.685C197.78 185.193 198.357 186.57 198.259 187.487C196.571 203.178 190.56 218.381 181.06 230.983C181.598 236.05 182.135 241.118 182.673 246.184C183.121 250.416 183.594 254.736 185.392 258.593C184.411 249.86 183.43 241.127 182.449 232.394C182.328 231.316 182.364 229.944 183.355 229.504C184.195 239.364 185.447 249.191 187.106 258.947C187.303 260.105 185.563 260.766 184.586 260.114C183.609 259.462 183.296 258.192 183.074 257.038C181.455 248.631 180.565 240.084 180.417 231.523C178.355 231.929 176.91 233.928 176.493 235.987C176.076 238.046 176.478 240.173 176.88 242.235C178.172 248.873 179.465 255.511 180.758 262.149C181.362 265.254 181.967 268.462 181.3 271.554C178.734 259.839 176.671 248.015 175.119 236.124C155.432 248.162 130.065 250.401 108.574 241.997C103.88 240.161 99.2182 237.728 96.118 233.755C93.676 230.625 92.373 226.738 91.6903 222.827C89.2657 208.937 94.2344 194.768 100.978 182.386C103.537 177.687 106.451 172.794 106.245 167.448C106.174 165.608 105.777 163.569 106.851 162.073ZM203.813 187.857C204.224 187.368 205.088 187.593 205.447 188.122C205.806 188.651 205.807 189.336 205.795 189.975C205.443 209.005 205.674 228.072 207.496 247.017C207.931 251.544 208.453 256.155 207.499 260.601C207.163 260.845 206.826 260.29 206.777 259.878C204.493 240.672 204.149 221.295 203.807 201.957C203.73 197.611 203.653 193.266 203.576 188.921C203.569 188.549 203.575 188.142 203.813 187.857ZM193.612 151.56C187.776 154.313 181.781 157.18 177.432 161.947C176.853 162.582 176.297 163.266 176.011 164.076C175.1 166.653 177.166 169.269 179.19 171.106C188.517 179.57 200.493 185.071 212.99 186.632C213.216 185.19 214.357 184.024 215.667 183.38C216.976 182.736 218.451 182.528 219.896 182.33C225.014 181.629 230.5 181 235.109 183.33C236.255 183.909 236.352 185.643 235.594 186.679C234.835 187.714 233.538 188.191 232.294 188.507C226.797 189.903 221.012 189.223 215.382 188.535C213.999 188.366 213.501 190.372 213.868 191.716C214.611 194.437 216.584 196.697 218.907 198.298C221.23 199.898 223.901 200.91 226.565 201.837C233.06 204.095 239.7 205.94 246.429 207.356C249.217 207.943 252.104 208.49 254.481 210.062C254.345 210.702 253.458 210.753 252.812 210.646C243.04 209.038 233.428 206.454 224.167 202.946C221.176 201.813 218.163 200.548 215.757 198.442C213.35 196.336 211.614 193.228 211.904 190.043C211.969 189.327 211.932 188.324 211.219 188.233C199.325 186.723 187.909 181.636 178.833 173.803C175.988 171.348 173.146 167.914 173.999 164.255C174.344 162.773 175.27 161.495 176.273 160.35C180.651 155.358 186.998 152.14 193.612 151.56ZM233.507 184.442C229.3 183.05 224.727 183.633 220.336 184.231C218.315 184.506 215.996 184.982 215.046 186.786C217 186.629 218.975 186.718 220.907 187.051C224.907 187.739 229.06 187.527 232.969 186.434C233.34 186.331 233.723 186.211 234.004 185.947C234.285 185.684 234.43 185.234 234.232 184.903C234.082 184.652 233.785 184.534 233.507 184.442ZM134.772 144.585C134.828 145.242 134.066 145.627 133.439 145.834C126.343 148.18 119.605 151.608 113.53 155.962C108.124 159.836 102.925 164.587 96.3846 165.797C94.4644 166.152 93.2263 167.952 91.953 169.432C87.6739 174.408 81.1918 176.834 74.9032 178.711C70.615 179.991 65.835 181.072 61.8036 179.13C61.2611 178.868 60.7132 178.095 61.2264 177.781C65.369 179.641 70.1896 178.558 74.535 177.24C81.4976 175.128 88.7446 172.136 92.7674 166.073C90.3074 165.89 88.2647 163.315 88.7694 160.9C89.2743 158.486 92.3292 156.953 94.5145 158.098C96.6996 159.242 97.1086 162.772 95.1717 164.3C101.199 163.397 106.302 159.544 111.193 155.909C118.284 150.639 125.974 145.392 134.772 144.585ZM280.488 133.622C282.086 133.219 283.78 132.877 285.363 133.335C287.932 134.078 289.469 136.678 290.449 139.167C291.429 141.655 292.194 144.377 294.153 146.197C294.601 146.613 295.124 147.003 295.324 147.58C295.524 148.157 295.159 148.964 294.551 148.917C291.98 147.94 290.581 145.206 289.587 142.642C288.592 140.078 287.639 137.279 285.404 135.677C283.842 141.898 281.465 147.916 278.353 153.525C277.987 154.185 277.568 154.88 276.882 155.194C276.349 155.438 275.736 155.411 275.151 155.378C267.801 154.964 260.465 154.282 253.165 153.333C252.388 153.232 251.754 154.079 251.77 154.862C251.787 155.645 252.242 156.343 252.681 156.992C254.417 159.561 256.152 162.129 257.889 164.698C258.728 165.941 259.619 167.23 260.936 167.947C262.697 168.905 264.854 168.65 266.811 168.216C277.136 165.926 286.03 159.555 294.357 153.036C294.88 152.626 295.573 152.196 296.16 152.508C296.671 152.78 296.774 153.513 296.533 154.04C296.292 154.567 295.807 154.934 295.342 155.279C286.394 161.908 276.99 168.736 266.003 170.553C263.877 170.904 261.555 171.024 259.708 169.914C258.617 169.258 257.804 168.235 257.032 167.223C255.267 164.91 253.582 162.535 251.983 160.103C251.143 158.826 250.31 157.491 250.024 155.989C249.268 152.01 252.475 148.437 255.644 145.916C262.93 140.121 271.462 135.899 280.488 133.622ZM114.159 80.408C126.888 71.7329 142.407 66.4519 157.715 68.1668C162.881 68.7456 167.927 70.0968 172.931 71.5077C188.583 75.921 204.235 81.0355 218.077 89.5721C219.278 90.313 220.625 91.4111 220.4 92.8045C203.135 82.718 183.724 77.01 164.532 71.3954C177.369 76.5653 191.258 82.6667 197.533 95.0008C200.188 100.22 201.197 106.103 201.987 111.905C204.337 129.156 205.055 146.63 204.129 164.015C211.587 160.39 219.046 156.765 226.505 153.139C228.431 152.203 230.453 151.185 231.616 149.387C232.705 147.703 232.865 145.602 232.973 143.599C233.601 131.875 233.48 120.11 232.612 108.4C235.117 119.225 236.228 130.371 235.908 141.477C235.821 144.484 235.558 147.691 233.723 150.074C232.389 151.806 230.391 152.874 228.456 153.89C221.545 157.521 214.634 161.151 207.723 164.782C199.713 168.99 190.067 169.975 181.372 167.475C187.592 167.152 193.812 166.828 200.032 166.505C200.54 166.478 201.084 166.439 201.482 166.123C202.065 165.661 202.11 164.809 202.106 164.065C202.013 145.685 201.915 127.231 199.235 109.047C198.391 103.317 197.222 97.4488 194.005 92.6336C190.461 87.3307 184.812 83.8612 179.242 80.7547C169.251 75.1827 158.409 70.1098 146.972 70.3563C137.529 70.5599 128.539 74.3934 120.268 78.9539C113.702 82.5748 107.011 87.1758 104.416 94.2108C102.983 98.0971 102.961 102.344 103.03 106.485C103.276 121.255 104.457 136.01 106.562 150.632C106.792 152.224 106.635 154.413 105.053 154.699C103.028 139.021 101 123.314 100.456 107.514C100.298 102.934 100.286 98.2199 101.923 93.9383C104.128 88.1676 109.054 83.8873 114.159 80.408ZM186.838 139.583C187.385 139.421 188.003 139.265 188.504 139.54C189.004 139.815 189.094 140.724 188.544 140.877C162.924 147.987 137.594 156.146 112.64 165.326C112.149 165.507 111.628 165.69 111.113 165.596C110.598 165.501 110.117 165.012 110.23 164.501C110.337 164.018 110.871 163.781 111.337 163.616C136.236 154.799 161.508 147.074 186.838 139.583ZM92.7137 158.936C92.3629 158.937 92.0186 159.049 91.7108 159.218C90.6261 159.811 90.0156 161.204 90.411 162.376C90.843 163.655 92.2412 164.363 93.576 164.567C94.1466 163.559 94.733 162.491 94.7255 161.333C94.7178 160.175 93.872 158.935 92.7137 158.936ZM283.161 135.184C281.672 135.021 280.197 135.524 278.792 136.043C274.352 137.682 270 139.559 265.761 141.664C261.282 143.887 256.799 146.475 253.782 150.462C259.844 151.138 265.906 151.815 271.968 152.491C273.109 152.618 274.343 152.728 275.335 152.147C276.114 151.691 276.609 150.883 277.055 150.098C279.713 145.413 281.77 140.388 283.161 135.184ZM195.023 105.518C195.64 105.225 196.395 105.02 196.982 105.367C197.57 105.715 197.59 106.82 196.92 106.948C194.848 107.343 193.223 109.066 192.403 111.01C191.583 112.953 191.441 115.108 191.367 117.216C191.144 123.59 191.446 129.983 192.27 136.307C192.396 137.274 192.545 138.27 193.053 139.102C193.561 139.934 194.524 140.566 195.482 140.389C197.124 140.086 198.888 140.52 200.202 141.55C198.231 141.675 196.26 141.799 194.289 141.925C193.121 141.999 191.728 141.968 191.078 140.995C190.759 140.517 190.706 139.916 190.663 139.343C190.24 133.725 189.817 128.108 189.393 122.49C189.155 119.32 188.92 116.091 189.63 112.992C190.34 109.893 192.153 106.885 195.023 105.518ZM213.569 54.3719C215.142 54.4043 216.599 55.1553 217.991 55.8885C224.666 59.4049 231.462 63.0097 236.718 68.4227C236.888 72.9422 235.784 77.4004 234.734 81.7996C230.478 99.6432 226.992 117.671 224.291 135.815C224.032 137.554 223.541 139.606 221.891 140.215C220.708 140.651 219.333 140.093 218.492 139.153C217.652 138.213 217.25 136.964 216.97 135.734C216.278 132.7 216.195 129.529 216.726 126.463C217.343 122.904 218.768 119.53 219.469 115.987C219.8 114.311 219.967 112.607 220.129 110.906C220.99 101.863 221.72 92.8066 222.32 83.742C222.405 82.4612 222.482 81.1398 222.062 79.9266C221.316 77.7687 219.142 76.4045 216.946 75.7791C215.687 75.4205 214.361 75.2397 213.194 74.6454C212.028 74.0509 211.015 72.8924 211.1 71.5858C211.375 67.3771 211.058 63.1297 210.161 59.0086C210.003 58.2843 209.826 57.5361 209.973 56.8094C210.283 55.2673 211.996 54.3395 213.569 54.3719ZM215.675 56.659C215.272 61.5071 215.107 66.3749 215.179 71.2391C218.283 71.8941 221.316 72.8839 224.21 74.1844C224.792 74.4463 225.406 74.7526 225.721 75.3084C225.978 75.7624 225.992 76.3093 226 76.8309C226.091 82.9575 226.11 89.1003 225.461 95.1932C224.949 99.9964 224.026 104.745 223.232 109.51C222.288 115.178 221.528 120.878 220.954 126.597C220.537 130.745 220.233 135.034 221.523 138.999C222.185 138.878 222.44 138.081 222.565 137.42C226.541 116.465 230.516 95.5094 234.492 74.5545C234.781 73.0315 235.07 71.4566 234.729 69.9442C234.133 67.2963 231.783 65.4547 229.517 63.9608C225.155 61.0848 220.511 58.6356 215.675 56.659ZM220.397 118.559C218.658 123.736 218.001 129.275 218.481 134.715C218.606 136.13 218.838 137.613 219.721 138.726C219.34 135.743 219.24 132.723 219.423 129.721C219.65 125.992 220.311 122.294 220.397 118.559ZM221.226 132.636C221.244 132.3 221.694 132.127 222 132.266C222.306 132.406 222.478 132.735 222.585 133.054C222.975 134.218 222.774 135.565 222.061 136.565C221.502 135.942 222.191 134.95 222.015 134.131C221.897 133.577 221.393 133.177 221.226 132.636ZM220.91 114.723C220.626 114.864 220.505 115.26 220.663 115.535L220.678 115.501C220.957 115.375 221.075 114.982 220.91 114.723ZM215.33 72.7801C214.656 72.6484 213.665 72.7919 213.694 73.4784C216.486 74.6318 219.277 75.7849 222.068 76.9383C222.559 77.1412 223.083 77.3711 223.36 77.8241C223.632 78.2686 223.607 78.8274 223.571 79.3475C222.818 90.4071 222.065 101.467 221.312 112.526C223.496 101.315 224.483 89.8714 224.25 78.452C224.232 77.5895 224.186 76.6619 223.658 75.9793C223.272 75.4795 222.681 75.1869 222.104 74.9286C219.938 73.9581 217.66 73.2353 215.33 72.7801ZM213.519 55.5496C212.829 55.092 211.832 55.5641 211.447 56.2977C211.063 57.0313 211.121 57.9095 211.208 58.7332C211.69 63.2948 212.75 67.8656 212.21 72.4207C212.843 72.6381 213.55 72.1914 213.857 71.5965C214.165 71.0015 214.173 70.3023 214.174 69.6327C214.181 65.608 214.188 61.5831 214.195 57.5584C214.196 56.8205 214.134 55.9574 213.519 55.5496Z" fill="#00160A"/>
<path fill-rule="evenodd" clip-rule="evenodd" d="M278.751 254.138C278.161 254.397 277.523 254.638 276.888 254.529C276.253 254.42 275.659 253.824 275.787 253.193C276.952 247.42 275.489 241.169 271.881 236.514C270.617 234.882 269.112 233.447 267.88 231.791C267.104 230.748 266.413 229.435 266.807 228.196C267.367 226.432 269.623 226.003 271.47 225.877C275.762 225.585 280.054 225.292 284.346 224.999C286.324 224.865 288.602 224.845 289.922 226.323C293.597 230.44 300.76 230.716 304.741 226.895C305.357 226.304 306.133 227.481 306.109 228.335C306.032 231.019 304.926 233.66 303.067 235.598C302.629 236.055 302.068 236.503 301.438 236.437C300.808 236.372 300.343 235.467 300.846 235.081C301.923 234.253 303.021 233.405 303.777 232.275C304.532 231.146 304.899 229.665 304.383 228.407C301.611 231.915 298.812 235.402 295.986 238.867C291.088 244.875 285.849 251.02 278.751 254.138M286.493 236.458C285.788 236.653 285.036 236.504 284.332 236.305C279.266 234.873 274.598 230.915 269.416 231.841C275.459 236.708 278.667 244.867 277.557 252.546C281.538 251.693 284.682 248.721 287.502 245.784C291.676 241.437 295.639 236.888 299.372 232.157C296.689 232.135 294.015 231.361 291.735 229.946C288.918 230.643 289.29 235.685 286.493 236.458M290.172 228.466C288.494 226.487 285.478 226.549 282.893 226.776C279.523 227.072 276.152 227.368 272.781 227.664C271.412 227.784 269.841 228.024 269.127 229.198C274.961 230.42 280.649 232.338 286.032 234.9C286.724 232.725 288.111 230.778 289.94 229.414C290.146 229.26 290.382 229.064 290.354 228.808C290.34 228.678 290.257 228.566 290.172 228.466V228.466Z" fill="#FFB61D"/>
<path fill-rule="evenodd" clip-rule="evenodd" d="M40.2639 181.287C35.1868 179.256 29.1364 179.859 24.559 182.85C24.1159 183.139 23.4788 182.817 23.2594 182.335C23.04 181.853 23.1221 181.293 23.2343 180.775C24.6962 174.035 30.52 168.878 36.9967 166.508C43.4733 164.138 50.5576 164.132 57.4423 164.537C58.1255 164.577 58.8395 164.631 59.4222 164.989C60.0049 165.348 60.397 166.115 60.1065 166.735C57.3983 172.512 55.3581 178.603 54.0398 184.846C53.826 185.858 52.7789 186.53 51.7477 186.615C50.7165 186.699 49.706 186.318 48.7702 185.876C45.8536 184.501 43.2579 182.484 40.2639 181.287M40.8443 174.467C40.3918 174.835 39.6845 174.641 39.2588 174.242C38.833 173.844 38.5904 173.293 38.2557 172.816C36.4606 170.255 32.3411 170.467 29.8992 172.421C27.4574 174.375 26.2758 177.462 25.1998 180.399C32.3636 177.287 41.187 178.404 47.3497 183.202C48.1912 183.857 49.026 184.595 50.0622 184.847C51.0983 185.099 52.4036 184.646 52.666 183.613C54.0681 178.091 55.7958 172.652 57.8372 167.334C53.9202 172.202 45.6942 170.527 40.8443 174.467M39.2854 171.525C39.6877 172.03 40.4181 172.164 41.054 172.05C41.6898 171.936 42.2675 171.62 42.8599 171.362C44.8996 170.476 47.1587 170.278 49.3455 169.872C51.5323 169.467 53.7878 168.781 55.3272 167.176C51.8539 167.165 48.3806 167.155 44.9073 167.144C41.4167 167.134 37.6553 167.208 34.8512 169.286C36.5582 169.349 38.2217 170.188 39.2854 171.525Z" fill="#FFB61D"/>
<path fill-rule="evenodd" clip-rule="evenodd" d="M203.38 180.824C203.372 177.769 203.364 174.714 203.356 171.659C203.353 170.781 203.351 169.904 203.349 169.027C203.347 168.422 203.448 167.664 204.023 167.476C204.458 167.334 204.937 167.647 205.14 168.056C205.344 168.466 205.341 168.944 205.335 169.402C205.271 173.665 205.208 177.929 205.144 182.192C205.135 182.805 205.032 183.559 204.458 183.775C203.501 183.232 203.383 181.924 203.38 180.824H203.38Z" fill="#00160A"/>
<path fill-rule="evenodd" clip-rule="evenodd" d="M197.281 177.994C196.839 178.188 196.611 177.46 196.679 176.982C196.923 175.271 197.169 173.557 197.585 171.879C197.844 170.835 198.217 169.736 199.08 169.093C199.942 168.45 201.423 168.562 201.845 169.552C202.05 170.031 201.965 170.579 201.871 171.092C201.29 174.266 200.508 177.403 199.531 180.478C199.489 180.608 199.444 180.744 199.345 180.839C199.105 181.069 198.671 180.914 198.504 180.626C198.338 180.337 198.359 179.982 198.386 179.65C198.783 179.621 198.968 179.153 199.064 178.767C199.453 177.188 199.842 175.609 200.232 174.03C200.535 172.802 200.811 171.403 200.106 170.352C199.382 170.798 199.11 171.701 198.894 172.524C198.46 174.179 198.026 175.835 197.593 177.491C197.541 177.689 197.468 177.912 197.281 177.994L197.281 177.994Z" fill="#00160A"/>
</svg>
