<svg width="337" height="353" viewBox="0 0 337 353" fill="none" xmlns="http://www.w3.org/2000/svg">
<path fill-rule="evenodd" clip-rule="evenodd" d="M324.835 140.8C320.952 169.748 316.569 185.039 290.989 215.355C265.409 245.671 148.352 265.615 105.076 265.615C61.8007 265.615 8.46831 232.244 11.8343 193.58C15.2002 154.915 32.761 123.313 74.7934 119.423C117.748 115.447 155.481 133.858 197.652 123.984C234.111 115.447 245.267 82.9086 270.308 72.6428C320.952 51.8811 327.476 121.106 324.835 140.8Z" fill="#10B981"/>
<path d="M298.78 154.939C297.349 157.364 279.237 169.636 268.25 171.452C266.124 171.803 263.802 171.924 261.955 170.814C260.864 170.158 260.051 169.135 259.279 168.123C257.513 165.81 255.829 163.434 254.23 161.003C253.389 159.725 252.556 158.391 252.271 156.888C251.515 152.91 254.722 149.336 257.891 146.815C265.177 141.02 273.708 136.799 282.735 134.521C284.333 134.118 286.027 133.777 287.61 134.235C290.179 134.978 291.715 137.577 292.696 140.066C293.676 142.554 294.44 145.276 296.4 147.097C296.847 147.512 300.21 152.514 298.78 154.939Z" fill="white"/>
<path fill-rule="evenodd" clip-rule="evenodd" d="M201.455 260.661C183.876 263.667 192.255 250.891 194.679 234.899C198.662 208.623 203.574 168.691 203.574 168.691C203.574 168.691 206.778 229.537 206.778 244.353C206.778 259.169 203.574 260.298 201.455 260.661Z" fill="white"/>
<path d="M182.672 246.185C183.121 250.416 183.594 254.737 185.392 258.593C184.411 249.861 183.43 241.128 182.449 232.395C182.328 231.317 182.364 229.944 183.356 229.505C184.195 239.365 185.447 249.191 187.106 258.947C187.303 260.105 185.563 260.767 184.586 260.115C183.609 259.462 183.296 258.192 183.074 257.039C181.455 248.631 180.565 240.084 180.417 231.524C178.355 231.93 176.91 233.928 176.493 235.987C176.076 238.046 176.478 240.173 176.879 242.235C178.172 248.873 179.465 255.511 180.758 262.149C181.362 265.254 181.967 268.462 181.3 271.554C178.734 259.84 176.671 248.015 175.119 236.124C155.432 248.163 130.065 250.402 108.574 241.997C103.88 240.161 99.2185 237.729 96.1183 233.755C93.6761 230.625 92.3729 226.739 91.6902 222.828C89.2655 208.938 94.2343 194.769 100.978 182.386C103.537 177.688 106.451 172.794 106.245 167.448C106.174 165.608 105.777 163.57 106.852 162.074C107.004 162.351 99.8154 110.929 102.699 99.5546C109.642 72.1718 132.194 68.4634 146.634 68.8011C156.323 69.0278 217.735 81.2324 226.608 97.8294C238.27 119.643 235.794 137.982 233.723 150.074C233.106 153.675 203.582 168.427 203.574 168.501C201.886 184.192 190.56 218.382 181.06 230.984C181.597 236.051 182.135 241.118 182.672 246.185Z" fill="white"/>
<path fill-rule="evenodd" clip-rule="evenodd" d="M40.9173 182.339C35.3805 180.128 28.7824 180.784 23.7907 184.04C23.3074 184.355 22.6126 184.004 22.3734 183.479C22.1342 182.955 22.2237 182.345 22.346 181.782C23.9403 174.445 30.2913 168.831 37.3543 166.252C44.4172 163.672 52.1428 163.664 59.6508 164.106C60.3958 164.149 61.1744 164.207 61.8099 164.598C62.4454 164.989 62.8729 165.824 62.5562 166.498C59.6027 172.787 57.3779 179.417 55.9403 186.213C55.7071 187.315 54.5653 188.046 53.4407 188.138C52.3161 188.23 51.2142 187.815 50.1936 187.334C47.0129 185.837 44.1824 183.642 40.9173 182.339" fill="white"/>
<path d="M156.953 278.074C160.187 277.984 163.441 278.699 166.34 280.137C165.565 281.25 164.008 281.406 162.652 281.458C150.842 281.906 139.032 282.354 127.223 282.803C126.898 282.762 126.836 282.261 127.066 282.028C127.296 281.795 127.656 281.766 127.983 281.75C139.512 281.188 151.041 280.625 162.569 280.062C160.571 279.879 158.621 279.189 156.953 278.074ZM214.695 248.784C214.961 248.391 215.561 248.182 215.921 248.492C214.502 255.06 213.083 261.628 211.664 268.196C213.069 267.152 214.843 266.617 216.591 266.711C215.042 267.864 213.864 269.507 213.268 271.344C214.296 270.552 216.046 271.102 216.435 272.34C217.034 271.897 218.026 272.197 218.279 272.897C218.532 273.597 217.962 274.461 217.219 274.505C230.412 274.621 243.607 274.737 256.801 274.853C248.581 276.411 240.126 275.215 231.761 275.06C226.325 274.96 220.882 275.304 215.503 276.087C215.978 275.152 216.321 274.149 216.516 273.118C206.151 276.028 195.159 272.583 184.393 272.65C181.485 272.668 178.002 273.346 176.932 276.051C176.461 273.103 175.99 270.155 175.519 267.208C175.091 269.585 174.662 271.962 174.233 274.339C174.128 274.921 173.993 275.555 173.53 275.924C172.934 276.397 172.009 276.207 171.44 275.701C170.871 275.195 170.575 274.458 170.307 273.745C168.732 269.538 167.521 265.194 166.694 260.778C166.641 266.206 168.867 271.365 171.052 276.335C170.1 276.071 169.149 275.808 168.197 275.544C168.967 276.51 169.738 277.476 170.508 278.441C168.125 277.548 165.815 276.458 163.611 275.185C164.52 276.454 165.429 277.722 166.338 278.991C164.109 277.939 162.153 276.313 160.714 274.312C162.729 273.766 164.984 274.188 166.665 275.426C165.885 274.315 165.53 272.913 165.687 271.565L168.915 274.397C167.098 270.239 165.837 265.837 165.176 261.348C165.044 260.455 165.144 259.244 166.026 259.056C166.934 258.864 167.507 259.987 167.742 260.885C168.754 264.742 169.766 268.6 170.777 272.458C171.178 271.1 171.579 269.741 171.979 268.383C172.175 270.013 172.714 271.602 173.551 273.015C173.832 270.134 174.709 267.311 176.111 264.778C176.417 267.599 176.723 270.42 177.029 273.241C186.228 270.39 196.09 273.399 205.712 273.806C207.655 273.888 209.712 273.833 211.375 272.825C213.038 271.817 214.082 269.547 213.126 267.853C212.135 269.461 210.857 270.892 209.37 272.056C210.738 269.101 212.134 266.022 212.111 262.765C210.744 265.469 209.377 268.173 208.01 270.877C207.304 269.694 206.6 268.511 205.894 267.328C204.949 269.017 205.238 271.307 206.574 272.708C205.409 271.927 204.243 271.147 203.078 270.366C202.901 270.839 202.724 271.312 202.548 271.785C201.411 271.424 200.488 270.453 200.184 269.3C201.373 268.818 202.812 269.016 203.826 269.802C204.572 268.003 205.318 266.203 206.064 264.404C206.585 265.91 207.105 267.417 207.626 268.923C211.602 263.481 213.975 256.881 214.374 250.153C214.402 249.679 214.429 249.177 214.695 248.784ZM214.765 272.722C214.614 272.24 213.797 272.202 213.602 272.667L213.486 272.623C213.341 272.794 213.341 273.07 213.484 273.242C213.944 273.173 214.387 272.993 214.765 272.722ZM106.851 162.073C108.035 164.227 108.487 166.776 108.114 169.205C128.495 168.328 148.906 168.151 169.3 168.676C169.537 169.613 168.179 170.048 167.212 170.034C148.18 169.75 129.139 170.075 110.129 171.007C109.527 171.036 108.895 171.075 108.385 171.395C107.848 171.733 107.534 172.324 107.246 172.889C101.85 183.446 96.4379 194.157 93.8299 205.723C92.4888 211.67 91.975 218.179 94.7235 223.621C95.7662 225.685 97.2409 227.509 98.8876 229.134C107.728 237.853 120.966 240.527 133.382 240.318C141.305 240.185 149.212 239.045 156.851 236.936C164.95 234.7 173.027 231.176 178.555 224.849C181.801 221.134 184.007 216.634 185.939 212.095C189.629 203.426 192.459 194.393 194.374 185.169C195.573 185.421 195.59 187.117 195.313 188.311C191.889 203.084 187.909 218.829 176.631 228.966C166.445 238.12 152.091 240.96 138.417 241.725C130.518 242.168 122.494 242.029 114.844 240.015C107.193 238.002 99.888 233.974 95.0311 227.729C96.4477 233.131 101.246 236.986 106.242 239.48C119.359 246.03 134.849 245.684 149.332 243.407C158.98 241.89 168.882 239.401 176.39 233.156C182.808 227.817 186.899 220.192 189.977 212.432C193.385 203.843 195.749 194.841 197.001 185.685C197.78 185.193 198.357 186.57 198.259 187.487C196.571 203.178 190.56 218.381 181.06 230.983C181.598 236.05 182.135 241.118 182.673 246.184C183.121 250.416 183.594 254.736 185.392 258.593C184.411 249.86 183.43 241.127 182.449 232.394C182.328 231.316 182.364 229.944 183.355 229.504C184.195 239.364 185.447 249.191 187.106 258.947C187.303 260.105 185.563 260.766 184.586 260.114C183.609 259.462 183.296 258.192 183.074 257.038C181.455 248.631 180.565 240.084 180.417 231.523C178.355 231.929 176.91 233.928 176.493 235.987C176.076 238.046 176.478 240.173 176.88 242.235C178.172 248.873 179.465 255.511 180.758 262.149C181.362 265.254 181.967 268.462 181.3 271.554C178.734 259.839 176.671 248.015 175.119 236.124C155.432 248.162 130.065 250.401 108.574 241.997C103.88 240.161 99.2182 237.728 96.118 233.755C93.676 230.625 92.373 226.738 91.6903 222.827C89.2657 208.937 94.2344 194.768 100.978 182.386C103.537 177.687 106.451 172.794 106.245 167.448C106.174 165.608 105.777 163.569 106.851 162.073ZM203.813 187.857C204.224 187.368 205.088 187.593 205.447 188.122C205.806 188.651 205.807 189.336 205.795 189.975C205.443 209.005 205.674 228.072 207.496 247.017C207.931 251.544 208.453 256.155 207.499 260.601C207.163 260.845 206.826 260.29 206.777 259.878C204.493 240.672 204.149 221.295 203.807 201.957C203.73 197.611 203.653 193.266 203.576 188.921C203.569 188.549 203.575 188.142 203.813 187.857ZM193.612 151.56C187.776 154.313 181.781 157.18 177.432 161.947C176.853 162.582 176.297 163.266 176.011 164.076C175.1 166.653 177.166 169.269 179.19 171.106C188.517 179.57 200.493 185.071 212.99 186.632C213.216 185.19 214.357 184.024 215.667 183.38C216.976 182.736 218.451 182.528 219.896 182.33C225.014 181.629 230.5 181 235.109 183.33C236.255 183.909 236.352 185.643 235.594 186.679C234.835 187.714 233.538 188.191 232.294 188.507C226.797 189.903 221.012 189.223 215.382 188.535C213.999 188.366 213.501 190.372 213.868 191.716C214.611 194.437 216.584 196.697 218.907 198.298C221.23 199.898 223.901 200.91 226.565 201.837C233.06 204.095 239.7 205.94 246.429 207.356C249.217 207.943 252.104 208.49 254.481 210.062C254.345 210.702 253.458 210.753 252.812 210.646C243.04 209.038 233.428 206.454 224.167 202.946C221.176 201.813 218.163 200.548 215.757 198.442C213.35 196.336 211.614 193.228 211.904 190.043C211.969 189.327 211.932 188.324 211.219 188.233C199.325 186.723 187.909 181.636 178.833 173.803C175.988 171.348 173.146 167.914 173.999 164.255C174.344 162.773 175.27 161.495 176.273 160.35C180.651 155.358 186.998 152.14 193.612 151.56ZM233.507 184.442C229.3 183.05 224.727 183.633 220.336 184.231C218.315 184.506 215.996 184.982 215.046 186.786C217 186.629 218.975 186.718 220.907 187.051C224.907 187.739 229.06 187.527 232.969 186.434C233.34 186.331 233.723 186.211 234.004 185.947C234.285 185.684 234.43 185.234 234.232 184.903C234.082 184.652 233.785 184.534 233.507 184.442ZM134.772 144.585C134.828 145.242 134.066 145.627 133.439 145.834C126.343 148.18 119.605 151.608 113.53 155.962C108.124 159.836 102.925 164.587 96.3846 165.797C94.4644 166.152 93.2263 167.952 91.953 169.432C87.6739 174.408 81.1918 176.834 74.9032 178.711C70.615 179.991 65.835 181.072 61.8036 179.13C61.2611 178.868 60.7132 178.095 61.2264 177.781C65.369 179.641 70.1896 178.558 74.535 177.24C81.4976 175.128 88.7446 172.136 92.7674 166.073C90.3074 165.89 88.2647 163.315 88.7694 160.9C89.2743 158.486 92.3292 156.953 94.5145 158.098C96.6996 159.242 97.1086 162.772 95.1717 164.3C101.199 163.397 106.302 159.544 111.193 155.909C118.284 150.639 125.974 145.392 134.772 144.585ZM280.488 133.622C282.086 133.219 283.78 132.877 285.363 133.335C287.932 134.078 289.469 136.678 290.449 139.167C291.429 141.655 292.194 144.377 294.153 146.197C294.601 146.613 295.124 147.003 295.324 147.58C295.524 148.157 295.159 148.964 294.551 148.917C291.98 147.94 290.581 145.206 289.587 142.642C288.592 140.078 287.639 137.279 285.404 135.677C283.842 141.898 281.465 147.916 278.353 153.525C277.987 154.185 277.568 154.88 276.882 155.194C276.349 155.438 275.736 155.411 275.151 155.378C267.801 154.964 260.465 154.282 253.165 153.333C252.388 153.232 251.754 154.079 251.77 154.862C251.787 155.645 252.242 156.343 252.681 156.992C254.417 159.561 256.152 162.129 257.889 164.698C258.728 165.941 259.619 167.23 260.936 167.947C262.697 168.905 264.854 168.65 266.811 168.216C277.136 165.926 286.03 159.555 294.357 153.036C294.88 152.626 295.573 152.196 296.16 152.508C296.671 152.78 296.774 153.513 296.533 154.04C296.292 154.567 295.807 154.934 295.342 155.279C286.394 161.908 276.99 168.736 266.003 170.553C263.877 170.904 261.555 171.024 259.708 169.914C258.617 169.258 257.804 168.235 257.032 167.223C255.267 164.91 253.582 162.535 251.983 160.103C251.143 158.826 250.31 157.491 250.024 155.989C249.268 152.01 252.475 148.437 255.644 145.916C262.93 140.121 271.462 135.899 280.488 133.622ZM114.159 80.408C126.888 71.7329 142.407 66.4519 157.715 68.1668C162.881 68.7456 167.927 70.0968 172.931 71.5077C188.583 75.921 204.235 81.0355 218.077 89.5721C219.278 90.313 220.625 91.4111 220.4 92.8045C203.135 82.718 183.724 77.01 164.532 71.3954C177.369 76.5653 191.258 82.6667 197.533 95.0008C200.188 100.22 201.197 106.103 201.987 111.905C204.337 129.156 205.055 146.63 204.129 164.015C211.587 160.39 219.046 156.765 226.505 153.139C228.431 152.203 230.453 151.185 231.616 149.387C232.705 147.703 232.865 145.602 232.973 143.599C233.601 131.875 233.48 120.11 232.612 108.4C235.117 119.225 236.228 130.371 235.908 141.477C235.821 144.484 235.558 147.691 233.723 150.074C232.389 151.806 230.391 152.874 228.456 153.89C221.545 157.521 214.634 161.151 207.723 164.782C199.713 168.99 190.067 169.975 181.372 167.475C187.592 167.152 193.812 166.828 200.032 166.505C200.54 166.478 201.084 166.439 201.482 166.123C202.065 165.661 202.11 164.809 202.106 164.065C202.013 145.685 201.915 127.231 199.235 109.047C198.391 103.317 197.222 97.4488 194.005 92.6336C190.461 87.3307 184.812 83.8612 179.242 80.7547C169.251 75.1827 158.409 70.1098 146.972 70.3563C137.529 70.5599 128.539 74.3934 120.268 78.9539C113.702 82.5748 107.011 87.1758 104.416 94.2108C102.983 98.0971 102.961 102.344 103.03 106.485C103.276 121.255 104.457 136.01 106.562 150.632C106.792 152.224 106.635 154.413 105.053 154.699C103.028 139.021 101 123.314 100.456 107.514C100.298 102.934 100.286 98.2199 101.923 93.9383C104.128 88.1676 109.054 83.8873 114.159 80.408ZM186.838 139.583C187.385 139.421 188.003 139.265 188.504 139.54C189.004 139.815 189.094 140.724 188.544 140.877C162.924 147.987 137.594 156.146 112.64 165.326C112.149 165.507 111.628 165.69 111.113 165.596C110.598 165.501 110.117 165.012 110.23 164.501C110.337 164.018 110.871 163.781 111.337 163.616C136.236 154.799 161.508 147.074 186.838 139.583ZM92.7137 158.936C92.3629 158.937 92.0186 159.049 91.7108 159.218C90.6261 159.811 90.0156 161.204 90.411 162.376C90.843 163.655 92.2412 164.363 93.576 164.567C94.1466 163.559 94.733 162.491 94.7255 161.333C94.7178 160.175 93.872 158.935 92.7137 158.936ZM283.161 135.184C281.672 135.021 280.197 135.524 278.792 136.043C274.352 137.682 270 139.559 265.761 141.664C261.282 143.887 256.799 146.475 253.782 150.462C259.844 151.138 265.906 151.815 271.968 152.491C273.109 152.618 274.343 152.728 275.335 152.147C276.114 151.691 276.609 150.883 277.055 150.098C279.713 145.413 281.77 140.388 283.161 135.184ZM195.023 105.518C195.64 105.225 196.395 105.02 196.982 105.367C197.57 105.715 197.59 106.82 196.92 106.948C194.848 107.343 193.223 109.066 192.403 111.01C191.583 112.953 191.441 115.108 191.367 117.216C191.144 123.59 191.446 129.983 192.27 136.307C192.396 137.274 192.545 138.27 193.053 139.102C193.561 139.934 194.524 140.566 195.482 140.389C197.124 140.086 198.888 140.52 200.202 141.55C198.231 141.675 196.26 141.799 194.289 141.925C193.121 141.999 191.728 141.968 191.078 140.995C190.759 140.517 190.706 139.916 190.663 139.343C190.24 133.725 189.817 128.108 189.393 122.49C189.155 119.32 188.92 116.091 189.63 112.992C190.34 109.893 192.153 106.885 195.023 105.518ZM213.569 54.3719C215.142 54.4043 216.599 55.1553 217.991 55.8885C224.666 59.4049 231.462 63.0097 236.718 68.4227C236.888 72.9422 235.784 77.4004 234.734 81.7996C230.478 99.6432 226.992 117.671 224.291 135.815C224.032 137.554 223.541 139.606 221.891 140.215C220.708 140.651 219.333 140.093 218.492 139.153C217.652 138.213 217.25 136.964 216.97 135.734C216.278 132.7 216.195 129.529 216.726 126.463C217.343 122.904 218.768 119.53 219.469 115.987C219.8 114.311 219.967 112.607 220.129 110.906C220.99 101.863 221.72 92.8066 222.32 83.742C222.405 82.4612 222.482 81.1398 222.062 79.9266C221.316 77.7687 219.142 76.4045 216.946 75.7791C215.687 75.4205 214.361 75.2397 213.194 74.6454C212.028 74.0509 211.015 72.8924 211.1 71.5858C211.375 67.3771 211.058 63.1297 210.161 59.0086C210.003 58.2843 209.826 57.5361 209.973 56.8094C210.283 55.2673 211.996 54.3395 213.569 54.3719ZM215.675 56.659C215.272 61.5071 215.107 66.3749 215.179 71.2391C218.283 71.8941 221.316 72.8839 224.21 74.1844C224.792 74.4463 225.406 74.7526 225.721 75.3084C225.978 75.7624 225.992 76.3093 226 76.8309C226.091 82.9575 226.11 89.1003 225.461 95.1932C224.949 99.9964 224.026 104.745 223.232 109.51C222.288 115.178 221.528 120.878 220.954 126.597C220.537 130.745 220.233 135.034 221.523 138.999C222.185 138.878 222.44 138.081 222.565 137.42C226.541 116.465 230.516 95.5094 234.492 74.5545C234.781 73.0315 235.07 71.4566 234.729 69.9442C234.133 67.2963 231.783 65.4547 229.517 63.9608C225.155 61.0848 220.511 58.6356 215.675 56.659ZM220.397 118.559C218.658 123.736 218.001 129.275 218.481 134.715C218.606 136.13 218.838 137.613 219.721 138.726C219.34 135.743 219.24 132.723 219.423 129.721C219.65 125.992 220.311 122.294 220.397 118.559ZM221.226 132.636C221.244 132.3 221.694 132.127 222 132.266C222.306 132.406 222.478 132.735 222.585 133.054C222.975 134.218 222.774 135.565 222.061 136.565C221.502 135.942 222.191 134.95 222.015 134.131C221.897 133.577 221.393 133.177 221.226 132.636ZM220.91 114.723C220.626 114.864 220.505 115.26 220.663 115.535L220.678 115.501C220.957 115.375 221.075 114.982 220.91 114.723ZM215.33 72.7801C214.656 72.6484 213.665 72.7919 213.694 73.4784C216.486 74.6318 219.277 75.7849 222.068 76.9383C222.559 77.1412 223.083 77.3711 223.36 77.8241C223.632 78.2686 223.607 78.8274 223.571 79.3475C222.818 90.4071 222.065 101.467 221.312 112.526C223.496 101.315 224.483 89.8714 224.25 78.452C224.232 77.5895 224.186 76.6619 223.658 75.9793C223.272 75.4795 222.681 75.1869 222.104 74.9286C219.938 73.9581 217.66 73.2353 215.33 72.7801ZM213.519 55.5496C212.829 55.092 211.832 55.5641 211.447 56.2977C211.063 57.0313 211.121 57.9095 211.208 58.7332C211.69 63.2948 212.75 67.8656 212.21 72.4207C212.843 72.6381 213.55 72.1914 213.857 71.5965C214.165 71.0015 214.173 70.3023 214.174 69.6327C214.181 65.608 214.188 61.5831 214.195 57.5584C214.196 56.8205 214.134 55.9574 213.519 55.5496Z" fill="#00160A"/>
<path fill-rule="evenodd" clip-rule="evenodd" d="M278.751 254.138C278.161 254.397 277.523 254.638 276.888 254.529C276.253 254.42 275.659 253.824 275.787 253.193C276.952 247.42 275.489 241.169 271.881 236.514C270.617 234.882 269.112 233.447 267.88 231.791C267.104 230.748 266.413 229.435 266.807 228.196C267.367 226.432 269.623 226.003 271.47 225.877C275.762 225.585 280.054 225.292 284.346 224.999C286.324 224.865 288.602 224.845 289.922 226.323C293.597 230.44 300.76 230.716 304.741 226.895C305.357 226.304 306.133 227.481 306.109 228.335C306.032 231.019 304.926 233.66 303.067 235.598C302.629 236.055 302.068 236.503 301.438 236.437C300.808 236.372 300.343 235.467 300.846 235.081C301.923 234.253 303.021 233.405 303.777 232.275C304.532 231.146 304.899 229.665 304.383 228.407C301.611 231.915 298.812 235.402 295.986 238.867C291.088 244.875 285.849 251.02 278.751 254.138M286.493 236.458C285.788 236.653 285.036 236.504 284.332 236.305C279.266 234.873 274.598 230.915 269.416 231.841C275.459 236.708 278.667 244.867 277.557 252.546C281.538 251.693 284.682 248.721 287.502 245.784C291.676 241.437 295.639 236.888 299.372 232.157C296.689 232.135 294.015 231.361 291.735 229.946C288.918 230.643 289.29 235.685 286.493 236.458M290.172 228.466C288.494 226.487 285.478 226.549 282.893 226.776C279.523 227.072 276.152 227.368 272.781 227.664C271.412 227.784 269.841 228.024 269.127 229.198C274.961 230.42 280.649 232.338 286.032 234.9C286.724 232.725 288.111 230.778 289.94 229.414C290.146 229.26 290.382 229.064 290.354 228.808C290.34 228.678 290.257 228.566 290.172 228.466V228.466Z" fill="#FFB61D"/>
<path fill-rule="evenodd" clip-rule="evenodd" d="M40.2639 181.287C35.1868 179.256 29.1364 179.859 24.559 182.85C24.1159 183.139 23.4788 182.817 23.2594 182.335C23.04 181.853 23.1221 181.293 23.2343 180.775C24.6962 174.035 30.52 168.878 36.9967 166.508C43.4733 164.138 50.5576 164.132 57.4423 164.537C58.1255 164.577 58.8395 164.631 59.4222 164.989C60.0049 165.348 60.397 166.115 60.1065 166.735C57.3983 172.512 55.3581 178.603 54.0398 184.846C53.826 185.858 52.7789 186.53 51.7477 186.615C50.7165 186.699 49.706 186.318 48.7702 185.876C45.8536 184.501 43.2579 182.484 40.2639 181.287M40.8443 174.467C40.3918 174.835 39.6845 174.641 39.2588 174.242C38.833 173.844 38.5904 173.293 38.2557 172.816C36.4606 170.255 32.3411 170.467 29.8992 172.421C27.4574 174.375 26.2758 177.462 25.1998 180.399C32.3636 177.287 41.187 178.404 47.3497 183.202C48.1912 183.857 49.026 184.595 50.0622 184.847C51.0983 185.099 52.4036 184.646 52.666 183.613C54.0681 178.091 55.7958 172.652 57.8372 167.334C53.9202 172.202 45.6942 170.527 40.8443 174.467M39.2854 171.525C39.6877 172.03 40.4181 172.164 41.054 172.05C41.6898 171.936 42.2675 171.62 42.8599 171.362C44.8996 170.476 47.1587 170.278 49.3455 169.872C51.5323 169.467 53.7878 168.781 55.3272 167.176C51.8539 167.165 48.3806 167.155 44.9073 167.144C41.4167 167.134 37.6553 167.208 34.8512 169.286C36.5582 169.349 38.2217 170.188 39.2854 171.525Z" fill="#FFB61D"/>
<path fill-rule="evenodd" clip-rule="evenodd" d="M203.38 180.824C203.372 177.769 203.364 174.714 203.356 171.659C203.353 170.781 203.351 169.904 203.349 169.027C203.347 168.422 203.448 167.664 204.023 167.476C204.458 167.334 204.937 167.647 205.14 168.056C205.344 168.466 205.341 168.944 205.335 169.402C205.271 173.665 205.208 177.929 205.144 182.192C205.135 182.805 205.032 183.559 204.458 183.775C203.501 183.232 203.383 181.924 203.38 180.824H203.38Z" fill="#00160A"/>
<path fill-rule="evenodd" clip-rule="evenodd" d="M197.281 177.994C196.839 178.188 196.611 177.46 196.679 176.982C196.923 175.271 197.169 173.557 197.585 171.879C197.844 170.835 198.217 169.736 199.08 169.093C199.942 168.45 201.423 168.562 201.845 169.552C202.05 170.031 201.965 170.579 201.871 171.092C201.29 174.266 200.508 177.403 199.531 180.478C199.489 180.608 199.444 180.744 199.345 180.839C199.105 181.069 198.671 180.914 198.504 180.626C198.338 180.337 198.359 179.982 198.386 179.65C198.783 179.621 198.968 179.153 199.064 178.767C199.453 177.188 199.842 175.609 200.232 174.03C200.535 172.802 200.811 171.403 200.106 170.352C199.382 170.798 199.11 171.701 198.894 172.524C198.46 174.179 198.026 175.835 197.593 177.491C197.541 177.689 197.468 177.912 197.281 177.994L197.281 177.994Z" fill="#00160A"/>
<path d="M48.2386 348V330.545H54.1364C55.5 330.545 56.6193 330.778 57.4943 331.244C58.3693 331.705 59.017 332.338 59.4375 333.145C59.858 333.952 60.0682 334.869 60.0682 335.898C60.0682 336.926 59.858 337.838 59.4375 338.634C59.017 339.429 58.3722 340.054 57.5028 340.509C56.6335 340.957 55.5227 341.182 54.1705 341.182H49.3977V339.273H54.1023C55.0341 339.273 55.7841 339.136 56.3523 338.864C56.9261 338.591 57.3409 338.205 57.5966 337.705C57.858 337.199 57.9886 336.597 57.9886 335.898C57.9886 335.199 57.858 334.588 57.5966 334.065C57.3352 333.543 56.9176 333.139 56.3438 332.855C55.7699 332.565 55.0114 332.42 54.0682 332.42H50.3523V348H48.2386ZM56.4545 340.159L60.75 348H58.2955L54.0682 340.159H56.4545ZM63.3175 348V334.909H65.3288V348H63.3175ZM64.3402 332.727C63.9482 332.727 63.6101 332.594 63.326 332.327C63.0476 332.06 62.9084 331.739 62.9084 331.364C62.9084 330.989 63.0476 330.668 63.326 330.401C63.6101 330.134 63.9482 330 64.3402 330C64.7322 330 65.0675 330.134 65.3459 330.401C65.63 330.668 65.772 330.989 65.772 331.364C65.772 331.739 65.63 332.06 65.3459 332.327C65.0675 332.594 64.7322 332.727 64.3402 332.727ZM74.5014 348.273C73.2401 348.273 72.152 347.994 71.2372 347.438C70.3281 346.875 69.6264 346.091 69.1321 345.085C68.6435 344.074 68.3991 342.898 68.3991 341.557C68.3991 340.216 68.6435 339.034 69.1321 338.011C69.6264 336.983 70.3139 336.182 71.1946 335.608C72.081 335.028 73.1151 334.739 74.2969 334.739C74.9787 334.739 75.652 334.852 76.3168 335.08C76.9815 335.307 77.5866 335.676 78.1321 336.188C78.6776 336.693 79.1122 337.364 79.4361 338.199C79.7599 339.034 79.9219 340.062 79.9219 341.284V342.136H69.831V340.398H77.8764C77.8764 339.659 77.7287 339 77.4332 338.42C77.1435 337.841 76.7287 337.384 76.1889 337.048C75.6548 336.713 75.0241 336.545 74.2969 336.545C73.4957 336.545 72.8026 336.744 72.2173 337.142C71.6378 337.534 71.1918 338.045 70.8793 338.676C70.5668 339.307 70.4105 339.983 70.4105 340.705V341.864C70.4105 342.852 70.581 343.69 70.9219 344.378C71.2685 345.06 71.7486 345.58 72.3622 345.938C72.9759 346.29 73.6889 346.466 74.5014 346.466C75.0298 346.466 75.5071 346.392 75.9332 346.244C76.3651 346.091 76.7372 345.864 77.0497 345.562C77.3622 345.256 77.6037 344.875 77.7741 344.42L79.7173 344.966C79.5128 345.625 79.169 346.205 78.6861 346.705C78.2031 347.199 77.6065 347.585 76.8963 347.864C76.1861 348.136 75.3878 348.273 74.5014 348.273ZM84.9929 340.125V348H82.9815V334.909H84.9247V336.955H85.0952C85.402 336.29 85.8679 335.756 86.4929 335.352C87.1179 334.943 87.9247 334.739 88.9134 334.739C89.7997 334.739 90.5753 334.92 91.2401 335.284C91.9048 335.642 92.4219 336.188 92.7912 336.92C93.1605 337.648 93.3452 338.568 93.3452 339.682V348H91.3338V339.818C91.3338 338.79 91.0668 337.989 90.5327 337.415C89.9986 336.835 89.2656 336.545 88.3338 336.545C87.6918 336.545 87.1179 336.685 86.6122 336.963C86.1122 337.241 85.7173 337.648 85.4276 338.182C85.1378 338.716 84.9929 339.364 84.9929 340.125ZM103.771 348V334.909H105.782V348H103.771ZM104.793 332.727C104.401 332.727 104.063 332.594 103.779 332.327C103.501 332.06 103.362 331.739 103.362 331.364C103.362 330.989 103.501 330.668 103.779 330.401C104.063 330.134 104.401 330 104.793 330C105.185 330 105.521 330.134 105.799 330.401C106.083 330.668 106.225 330.989 106.225 331.364C106.225 331.739 106.083 332.06 105.799 332.327C105.521 332.594 105.185 332.727 104.793 332.727ZM114.784 348.273C113.557 348.273 112.5 347.983 111.614 347.403C110.727 346.824 110.045 346.026 109.568 345.009C109.091 343.991 108.852 342.83 108.852 341.523C108.852 340.193 109.097 339.02 109.585 338.003C110.08 336.98 110.767 336.182 111.648 335.608C112.534 335.028 113.568 334.739 114.75 334.739C115.67 334.739 116.5 334.909 117.239 335.25C117.977 335.591 118.582 336.068 119.054 336.682C119.526 337.295 119.818 338.011 119.932 338.83H117.92C117.767 338.233 117.426 337.705 116.898 337.244C116.375 336.778 115.67 336.545 114.784 336.545C114 336.545 113.313 336.75 112.722 337.159C112.136 337.562 111.679 338.134 111.349 338.872C111.026 339.605 110.864 340.466 110.864 341.455C110.864 342.466 111.023 343.347 111.341 344.097C111.665 344.847 112.119 345.429 112.705 345.844C113.295 346.259 113.989 346.466 114.784 346.466C115.307 346.466 115.781 346.375 116.207 346.193C116.634 346.011 116.994 345.75 117.29 345.409C117.585 345.068 117.795 344.659 117.92 344.182H119.932C119.818 344.955 119.537 345.651 119.088 346.27C118.645 346.884 118.057 347.372 117.324 347.736C116.597 348.094 115.75 348.273 114.784 348.273ZM122.872 348V334.909H124.884V348H122.872ZM123.895 332.727C123.503 332.727 123.165 332.594 122.881 332.327C122.602 332.06 122.463 331.739 122.463 331.364C122.463 330.989 122.602 330.668 122.881 330.401C123.165 330.134 123.503 330 123.895 330C124.287 330 124.622 330.134 124.901 330.401C125.185 330.668 125.327 330.989 125.327 331.364C125.327 331.739 125.185 332.06 124.901 332.327C124.622 332.594 124.287 332.727 123.895 332.727ZM135.317 352.909V334.909H137.261V336.989H137.499C137.647 336.761 137.852 336.472 138.113 336.119C138.38 335.761 138.761 335.443 139.255 335.165C139.755 334.881 140.431 334.739 141.283 334.739C142.386 334.739 143.357 335.014 144.198 335.565C145.039 336.116 145.695 336.898 146.167 337.909C146.638 338.92 146.874 340.114 146.874 341.489C146.874 342.875 146.638 344.077 146.167 345.094C145.695 346.105 145.042 346.889 144.207 347.446C143.371 347.997 142.408 348.273 141.317 348.273C140.477 348.273 139.803 348.134 139.298 347.855C138.792 347.571 138.403 347.25 138.13 346.892C137.857 346.528 137.647 346.227 137.499 345.989H137.329V352.909H135.317ZM137.295 341.455C137.295 342.443 137.44 343.315 137.729 344.071C138.019 344.821 138.442 345.409 138.999 345.835C139.556 346.256 140.238 346.466 141.045 346.466C141.886 346.466 142.587 346.244 143.15 345.801C143.718 345.352 144.144 344.75 144.428 343.994C144.718 343.233 144.863 342.386 144.863 341.455C144.863 340.534 144.721 339.705 144.437 338.966C144.158 338.222 143.735 337.634 143.167 337.202C142.604 336.764 141.897 336.545 141.045 336.545C140.227 336.545 139.539 336.753 138.982 337.168C138.425 337.577 138.005 338.151 137.721 338.889C137.437 339.622 137.295 340.477 137.295 341.455ZM155.261 348.273C154.079 348.273 153.042 347.991 152.15 347.429C151.263 346.866 150.57 346.08 150.07 345.068C149.576 344.057 149.329 342.875 149.329 341.523C149.329 340.159 149.576 338.969 150.07 337.952C150.57 336.935 151.263 336.145 152.15 335.582C153.042 335.02 154.079 334.739 155.261 334.739C156.442 334.739 157.477 335.02 158.363 335.582C159.255 336.145 159.948 336.935 160.442 337.952C160.942 338.969 161.192 340.159 161.192 341.523C161.192 342.875 160.942 344.057 160.442 345.068C159.948 346.08 159.255 346.866 158.363 347.429C157.477 347.991 156.442 348.273 155.261 348.273ZM155.261 346.466C156.158 346.466 156.897 346.236 157.477 345.776C158.056 345.315 158.485 344.71 158.763 343.96C159.042 343.21 159.181 342.398 159.181 341.523C159.181 340.648 159.042 339.832 158.763 339.077C158.485 338.321 158.056 337.71 157.477 337.244C156.897 336.778 156.158 336.545 155.261 336.545C154.363 336.545 153.624 336.778 153.045 337.244C152.465 337.71 152.036 338.321 151.758 339.077C151.479 339.832 151.34 340.648 151.34 341.523C151.34 342.398 151.479 343.21 151.758 343.96C152.036 344.71 152.465 345.315 153.045 345.776C153.624 346.236 154.363 346.466 155.261 346.466ZM172.513 342.648V334.909H174.524V348H172.513V345.784H172.376C172.07 346.449 171.592 347.014 170.945 347.48C170.297 347.94 169.479 348.17 168.49 348.17C167.672 348.17 166.945 347.991 166.308 347.634C165.672 347.27 165.172 346.724 164.808 345.997C164.445 345.264 164.263 344.341 164.263 343.227V334.909H166.274V343.091C166.274 344.045 166.541 344.807 167.075 345.375C167.615 345.943 168.303 346.227 169.138 346.227C169.638 346.227 170.146 346.099 170.663 345.844C171.186 345.588 171.624 345.196 171.976 344.668C172.334 344.139 172.513 343.466 172.513 342.648ZM178.208 348V334.909H180.151V336.886H180.288C180.526 336.239 180.958 335.713 181.583 335.31C182.208 334.906 182.913 334.705 183.697 334.705C183.844 334.705 184.029 334.707 184.251 334.713C184.472 334.719 184.64 334.727 184.754 334.739V336.784C184.685 336.767 184.529 336.741 184.285 336.707C184.046 336.668 183.793 336.648 183.526 336.648C182.89 336.648 182.322 336.781 181.822 337.048C181.327 337.31 180.935 337.673 180.646 338.139C180.362 338.599 180.219 339.125 180.219 339.716V348H178.208ZM195.899 330.545V348H193.888V330.545H195.899ZM201.356 330.545V332.08C201.356 332.545 201.271 333.043 201.1 333.571C200.935 334.094 200.691 334.602 200.367 335.097C200.049 335.585 199.663 336.011 199.208 336.375L198.117 335.489C198.475 334.977 198.785 334.446 199.046 333.895C199.313 333.338 199.447 332.744 199.447 332.114V330.545H201.356ZM204.013 348V334.909H206.024V348H204.013ZM205.036 332.727C204.643 332.727 204.305 332.594 204.021 332.327C203.743 332.06 203.604 331.739 203.604 331.364C203.604 330.989 203.743 330.668 204.021 330.401C204.305 330.134 204.643 330 205.036 330C205.428 330 205.763 330.134 206.041 330.401C206.325 330.668 206.467 330.989 206.467 331.364C206.467 331.739 206.325 332.06 206.041 332.327C205.763 332.594 205.428 332.727 205.036 332.727ZM211.719 340.125V348H209.708V334.909H211.651V336.955H211.822C212.129 336.29 212.594 335.756 213.219 335.352C213.844 334.943 214.651 334.739 215.64 334.739C216.526 334.739 217.302 334.92 217.967 335.284C218.631 335.642 219.148 336.188 219.518 336.92C219.887 337.648 220.072 338.568 220.072 339.682V348H218.06V339.818C218.06 338.79 217.793 337.989 217.259 337.415C216.725 336.835 215.992 336.545 215.06 336.545C214.418 336.545 213.844 336.685 213.339 336.963C212.839 337.241 212.444 337.648 212.154 338.182C211.864 338.716 211.719 339.364 211.719 340.125ZM233.02 337.841L231.213 338.352C231.099 338.051 230.932 337.759 230.71 337.474C230.494 337.185 230.199 336.946 229.824 336.759C229.449 336.571 228.969 336.477 228.384 336.477C227.582 336.477 226.915 336.662 226.381 337.031C225.852 337.395 225.588 337.858 225.588 338.42C225.588 338.92 225.77 339.315 226.134 339.605C226.497 339.895 227.065 340.136 227.838 340.33L229.781 340.807C230.952 341.091 231.824 341.526 232.398 342.111C232.972 342.69 233.259 343.437 233.259 344.352C233.259 345.102 233.043 345.773 232.611 346.364C232.185 346.955 231.588 347.42 230.821 347.761C230.054 348.102 229.162 348.273 228.145 348.273C226.81 348.273 225.705 347.983 224.83 347.403C223.955 346.824 223.401 345.977 223.168 344.864L225.077 344.386C225.259 345.091 225.602 345.619 226.108 345.972C226.619 346.324 227.287 346.5 228.111 346.5C229.048 346.5 229.793 346.301 230.344 345.903C230.901 345.5 231.179 345.017 231.179 344.455C231.179 344 231.02 343.619 230.702 343.312C230.384 343 229.895 342.767 229.236 342.614L227.054 342.102C225.855 341.818 224.974 341.378 224.412 340.781C223.855 340.179 223.577 339.426 223.577 338.523C223.577 337.784 223.784 337.131 224.199 336.562C224.619 335.994 225.19 335.548 225.912 335.224C226.639 334.901 227.463 334.739 228.384 334.739C229.679 334.739 230.696 335.023 231.435 335.591C232.179 336.159 232.707 336.909 233.02 337.841ZM241.979 334.909V336.614H235.195V334.909H241.979ZM237.173 331.773H239.184V344.25C239.184 344.818 239.266 345.244 239.431 345.528C239.602 345.807 239.817 345.994 240.079 346.091C240.346 346.182 240.627 346.227 240.923 346.227C241.144 346.227 241.326 346.216 241.468 346.193C241.61 346.165 241.724 346.142 241.809 346.125L242.218 347.932C242.082 347.983 241.891 348.034 241.647 348.085C241.403 348.142 241.093 348.17 240.718 348.17C240.15 348.17 239.593 348.048 239.048 347.804C238.508 347.56 238.059 347.188 237.701 346.688C237.349 346.188 237.173 345.557 237.173 344.795V331.773ZM248.857 348.307C248.028 348.307 247.275 348.151 246.599 347.838C245.923 347.52 245.386 347.062 244.988 346.466C244.59 345.864 244.391 345.136 244.391 344.284C244.391 343.534 244.539 342.926 244.835 342.46C245.13 341.989 245.525 341.619 246.019 341.352C246.513 341.085 247.059 340.886 247.656 340.756C248.258 340.619 248.863 340.511 249.471 340.432C250.266 340.33 250.911 340.253 251.406 340.202C251.906 340.145 252.269 340.051 252.496 339.92C252.729 339.79 252.846 339.562 252.846 339.239V339.17C252.846 338.33 252.616 337.676 252.156 337.21C251.701 336.744 251.011 336.511 250.085 336.511C249.124 336.511 248.371 336.722 247.826 337.142C247.281 337.562 246.897 338.011 246.675 338.489L244.766 337.807C245.107 337.011 245.562 336.392 246.13 335.949C246.704 335.5 247.329 335.187 248.005 335.011C248.687 334.83 249.357 334.739 250.016 334.739C250.437 334.739 250.92 334.79 251.465 334.892C252.016 334.989 252.548 335.19 253.059 335.497C253.576 335.804 254.005 336.267 254.346 336.886C254.687 337.506 254.857 338.335 254.857 339.375V348H252.846V346.227H252.744C252.607 346.511 252.38 346.815 252.062 347.139C251.744 347.463 251.32 347.739 250.792 347.966C250.263 348.193 249.619 348.307 248.857 348.307ZM249.164 346.5C249.96 346.5 250.63 346.344 251.175 346.031C251.727 345.719 252.141 345.315 252.42 344.821C252.704 344.327 252.846 343.807 252.846 343.261V341.42C252.761 341.523 252.573 341.616 252.283 341.702C251.999 341.781 251.67 341.852 251.295 341.915C250.925 341.972 250.565 342.023 250.212 342.068C249.866 342.108 249.585 342.142 249.369 342.17C248.846 342.239 248.357 342.349 247.903 342.503C247.454 342.651 247.09 342.875 246.812 343.176C246.539 343.472 246.403 343.875 246.403 344.386C246.403 345.085 246.661 345.614 247.178 345.972C247.701 346.324 248.363 346.5 249.164 346.5ZM260.54 340.125V348H258.528V334.909H260.472V336.955H260.642C260.949 336.29 261.415 335.756 262.04 335.352C262.665 334.943 263.472 334.739 264.46 334.739C265.347 334.739 266.122 334.92 266.787 335.284C267.452 335.642 267.969 336.188 268.338 336.92C268.707 337.648 268.892 338.568 268.892 339.682V348H266.881V339.818C266.881 338.79 266.614 337.989 266.08 337.415C265.545 336.835 264.813 336.545 263.881 336.545C263.239 336.545 262.665 336.685 262.159 336.963C261.659 337.241 261.264 337.648 260.974 338.182C260.685 338.716 260.54 339.364 260.54 340.125ZM278.261 334.909V336.614H271.477V334.909H278.261ZM273.454 331.773H275.465V344.25C275.465 344.818 275.548 345.244 275.712 345.528C275.883 345.807 276.099 345.994 276.36 346.091C276.627 346.182 276.908 346.227 277.204 346.227C277.425 346.227 277.607 346.216 277.749 346.193C277.891 346.165 278.005 346.142 278.09 346.125L278.499 347.932C278.363 347.983 278.173 348.034 277.928 348.085C277.684 348.142 277.374 348.17 276.999 348.17C276.431 348.17 275.874 348.048 275.329 347.804C274.789 347.56 274.34 347.188 273.982 346.688C273.63 346.188 273.454 345.557 273.454 344.795V331.773ZM290.695 330.545L290.525 343.091H288.548L288.377 330.545H290.695ZM289.536 348.136C289.116 348.136 288.755 347.986 288.454 347.685C288.153 347.384 288.002 347.023 288.002 346.602C288.002 346.182 288.153 345.821 288.454 345.52C288.755 345.219 289.116 345.068 289.536 345.068C289.957 345.068 290.317 345.219 290.619 345.52C290.92 345.821 291.07 346.182 291.07 346.602C291.07 346.881 290.999 347.136 290.857 347.369C290.721 347.602 290.536 347.79 290.303 347.932C290.076 348.068 289.82 348.136 289.536 348.136Z" fill="#878B93"/>
</svg>
