<svg width="328" height="245" viewBox="0 0 328 245" fill="none" xmlns="http://www.w3.org/2000/svg">
<path d="M219.438 188.504C236.801 190.621 251.697 201.328 263.956 202.795C277.581 204.425 298.186 195.473 319.198 206.009C324.606 208.721 329.047 211.98 327.392 216.031C324.509 223.089 318.441 225.855 305.148 227.773L303.73 227.969C293.454 229.335 282.41 229.666 254.412 229.851L244.846 229.924C210.717 230.221 190.98 231.819 165.422 233.861L162.817 234.072C115.752 237.945 78.184 237.324 50.1125 233.031L49.2648 232.9C26.5851 229.347 12.9496 223.471 6.2935 216.804C2.37509 212.879 0.117991 209.22 0.00148866 205.308C-0.115014 201.397 5.66419 197.097 8.95449 195.473C18.1202 190.951 21.1109 189.311 38.7318 186.995C46.3188 185.998 57.6854 186.078 70.8241 185.634C117.957 184.043 190.771 185.008 219.438 188.504Z" fill="white"/>
<path fill-rule="evenodd" clip-rule="evenodd" d="M233.21 197.028C206.491 257.504 109.799 255.557 42.5197 214.28C29.6707 206.397 -14.4971 169.241 28.9744 147.545C72.446 125.848 58.522 92.5227 93.605 52.7742C134.177 6.80707 209.732 -16.769 262.87 45.0777C397.926 202.27 242.207 176.664 233.21 197.028Z" fill="#10B981"/>
<path d="M47.3962 32.5961C49.7704 31.3119 52.184 32.7969 54.5925 36.6664L57.1238 35.3022C57.2597 35.2289 57.4084 35.1807 57.5613 35.1596L57.6462 35.1508C58.3206 35.1021 58.9261 35.5848 59.0203 36.2641C60.3608 45.9694 59.9205 51.3336 57.3152 52.5932C54.2151 54.0912 50.2416 51.3668 45.2273 44.7152L44.8836 44.2553C44.8321 44.1859 44.7859 44.1126 44.7449 44.0365C44.2699 43.1558 44.5985 42.0564 45.4793 41.5815L46.1238 41.2338C45.0547 36.5877 45.3866 33.6836 47.3962 32.5961ZM46.2175 42.9496C46.0917 43.0175 46.0442 43.1744 46.1121 43.3002C46.1179 43.311 46.1243 43.3216 46.1316 43.3315L46.4656 43.7777C51.0488 49.857 54.4963 52.2319 56.6404 51.1957C58.269 50.4076 58.6965 45.6259 57.5632 37.0736L57.532 36.8471L46.2175 42.9496ZM54.0964 44.0053C54.9541 44.0053 55.6492 44.7013 55.6492 45.559C55.649 45.9745 55.4845 46.3507 55.2185 46.6293L56.0867 48.224C56.2233 48.475 56.1315 48.7894 55.8806 48.9262C55.6475 49.053 55.3591 48.9816 55.2097 48.7699L55.1775 48.7191L54.2937 47.0971C54.2291 47.1053 54.1633 47.1117 54.0964 47.1117C53.239 47.1116 52.544 46.4164 52.5437 45.559C52.5437 44.7013 53.2388 44.0054 54.0964 44.0053ZM53.0603 37.1498C51.1381 34.1684 49.5088 33.2191 48.1345 33.9623L48.0711 33.9994C47.0565 34.619 46.7754 36.5655 47.4216 39.891L47.4822 40.1938L53.073 37.1703L53.0603 37.1498Z" fill="#FFB61D"/>
<path fill-rule="evenodd" clip-rule="evenodd" d="M219.439 188.496C236.802 190.613 251.698 201.321 263.957 202.787C277.582 204.417 298.187 195.465 319.199 206.002C324.607 208.713 329.048 211.972 327.393 216.023C324.51 223.081 318.442 225.847 305.149 227.765L303.731 227.961C293.455 229.327 282.411 229.659 254.413 229.843L244.847 229.916C210.718 230.213 190.981 231.811 165.423 233.853L162.818 234.064C115.753 237.937 78.185 237.316 50.1135 233.023L49.2658 232.892C26.5861 229.339 12.9506 223.463 6.29452 216.796C2.37611 212.872 0.119005 209.212 0.00250295 205.3C-0.113999 201.389 5.6652 197.089 8.9555 195.465C18.1212 190.943 21.1119 189.303 38.7328 186.987C46.3198 185.99 57.6864 186.07 70.8251 185.626C117.958 184.035 190.772 185 219.439 188.496ZM38.3438 190.266L37.189 190.419C20.7682 192.646 10.2712 196.697 5.29862 200.736L4.98828 200.996C1.17003 204.286 0.813073 207.985 6.3015 213.453C12.3026 219.432 27.6083 226.177 49.6777 229.616C77.3069 233.921 114.453 235.171 161.102 231.427L165.992 231.033C192.924 228.916 213.586 227.789 251.828 227.52L262.385 227.441C285.152 227.235 294.83 226.828 304.171 225.53L305.06 225.402C346.311 217.333 316.546 202.855 299.468 202.789C284.843 202.733 267.277 206.847 262.385 205.307C246.967 200.454 239.05 193.023 219.439 190.645L213.737 189.962L208.869 189.732C129.089 186.026 72.2319 185.836 38.3438 190.266Z" fill="#00160A"/>
<path d="M90.0124 2.78005C89.729 2.77093 89.4455 2.77124 89.1622 2.78098C82.1808 3.02105 76.7008 8.81903 76.8273 15.7816L76.8329 15.9929L76.9186 18.6018C77.1637 26.4381 77.2986 34.2434 77.3231 42.0178L77.3653 65.9383C77.3747 74.5477 77.3694 82.3181 77.3442 89.9272L77.3096 97.9967C77.1739 123.688 76.8079 141.719 76.1288 149.567L75.9976 151.035C75.1778 160.627 75.008 174.404 75.4942 192.334C75.4998 192.542 75.5103 192.749 75.5255 192.956C76.0628 200.225 82.3334 205.701 89.5868 205.283L89.8069 205.268L92.2176 205.093C114.75 203.485 137.283 202.681 159.817 202.681C181.872 202.681 204.096 203.451 226.49 204.992C227.138 205.036 227.788 205.04 228.436 205.004C236.927 204.523 243.44 197.319 243.098 188.851L243.086 188.594L242.916 185.539C241.413 158.027 240.635 130.515 240.581 103.003L240.578 99.9464C240.578 79.8942 241.517 52.3931 243.395 17.4312C243.416 17.0396 243.42 16.6472 243.408 16.2551C243.172 8.66589 236.89 2.68855 229.326 2.80099L229.096 2.80627L217.647 3.15339C191.636 3.92058 172.696 4.32146 160.815 4.35594L158.779 4.35822L156.684 4.35278C144.556 4.3007 125.78 3.88477 100.347 3.10508L90.0124 2.78005Z" fill="white"/>
<path fill-rule="evenodd" clip-rule="evenodd" d="M228.21 2.07132C227.293 2.57383 226.084 2.9273 224.584 3.13125C228.445 3.47424 231.481 3.39422 233.691 2.8914L233.213 2.83224C231.657 2.63568 229.989 2.38204 228.21 2.07132" fill="#E7EAEE"/>
<path fill-rule="evenodd" clip-rule="evenodd" d="M82.9867 187.203L83.0942 187.207C83.7615 187.253 84.2321 187.775 84.1707 188.35C84.1005 189.008 83.3968 189.647 82.6285 189.7C82.0178 189.742 81.5936 189.272 81.6614 188.543C81.7324 187.778 82.3318 187.206 82.9867 187.203Z" fill="#E7EAEE"/>
<path fill-rule="evenodd" clip-rule="evenodd" d="M95.2064 197.203L95.3139 197.207C95.9812 197.253 96.4518 197.775 96.3904 198.35C96.3202 199.008 95.6165 199.647 94.8482 199.7C94.2376 199.742 93.8134 199.272 93.8811 198.543C93.9522 197.778 94.5515 197.206 95.2064 197.203Z" fill="#E7EAEE"/>
<path fill-rule="evenodd" clip-rule="evenodd" d="M159.952 196.544C133.44 202.396 183.219 201.362 202.638 200.08C213.206 199.383 221.645 204.662 226.491 204.995C227.138 205.04 227.788 205.044 228.436 205.007C236.927 204.526 243.44 197.322 243.099 188.854L243.086 188.597L242.916 185.543C241.414 158.031 240.635 130.519 240.582 103.007L240.579 99.9498C240.579 79.8975 241.518 52.3964 243.395 17.4345C243.416 17.0429 243.42 16.6505 243.408 16.2584C243.172 8.6692 228.629 181.387 159.952 196.544Z" fill="#E7EAEE"/>
<path d="M238.583 189.473L238.676 189.476C239.159 189.515 239.555 190.018 239.498 190.632C239.435 191.312 238.848 191.924 238.263 191.97C237.852 192.003 237.504 191.56 237.566 190.801C237.629 190.023 238.116 189.484 238.583 189.473Z" fill="white"/>
<path d="M238.8 187.539C240.424 187.668 241.589 189.15 241.434 190.816C241.286 192.416 239.968 193.789 238.417 193.912C236.691 194.048 235.479 192.505 235.629 190.647C235.775 188.842 237.149 187.409 238.8 187.539ZM238.584 189.478C238.117 189.49 237.629 190.029 237.566 190.806C237.505 191.566 237.852 192.007 238.264 191.975C238.849 191.929 239.436 191.318 239.499 190.638C239.556 190.024 239.16 189.521 238.678 189.482L238.584 189.478Z" fill="white"/>
<path d="M222.162 13.9883C228.298 13.9883 233.272 18.9622 233.272 25.0979C233.272 25.3276 233.264 25.5572 233.25 25.7864L233.087 28.508C232.789 33.6736 232.491 39.8066 232.194 46.9071L232.149 48.0439C231.423 67.1446 231.4 112.333 232.08 183.608C232.138 189.743 227.212 194.764 221.077 194.823C220.927 194.824 220.778 194.823 220.628 194.818L98.7439 191.058C93.1003 190.884 88.4849 186.504 88.0154 180.877L87.912 179.607C86.3067 159.374 86.2112 133.539 87.6253 102.102L87.8327 97.5933C88.5549 81.0499 88.6115 56.9561 88.0027 25.3116C87.8859 19.241 92.6609 14.2141 98.7052 13.9956L99.0034 13.9888L222.162 13.9883Z" fill="white"/>
<path fill-rule="evenodd" clip-rule="evenodd" d="M140.216 145.001C145.601 145.228 151.13 144.273 155.925 141.93C161.931 138.995 166.451 134.072 168.952 127.012C172.247 117.714 171.037 107.66 166.3 98.8102C162.084 90.9338 155.456 84.9393 149.346 83.457C149.346 83.457 166.3 107.306 163.871 120.343C160.158 140.277 140.216 145.001 140.216 145.001Z" fill="#E7EAEE"/>
<path fill-rule="evenodd" clip-rule="evenodd" d="M144.131 116.996C146.752 118.083 147.552 120.103 146.532 123.056L146.473 123.221C139.837 141.442 132.011 141.608 138.708 123.221C139.519 120.993 139.318 119.284 138.104 118.094C140.249 117.659 142.258 117.293 144.131 116.996" fill="#E7EAEE"/>
<path fill-rule="evenodd" clip-rule="evenodd" d="M102.568 95.695C104.285 90.5936 106.792 86.7586 111.478 83.7265L112.073 83.3491C113.084 82.7144 114.33 81.9959 115.344 82.4867C116.632 83.1104 118.497 85.3834 117.362 86.2758C116.593 86.8808 113.426 87.5243 111.038 89.6158C108.22 92.0849 106.191 96.0637 106.191 97.038C106.191 100.216 101.554 98.7074 102.568 95.695Z" fill="#E7EAEE"/>
<path fill-rule="evenodd" clip-rule="evenodd" d="M97.2578 22.988C91.3637 39.1721 91.4038 42.3833 91.0501 39.5938C89.9062 30.5722 89.0435 24.6439 90.4026 21.0427C92.1233 16.4836 96.4367 15.5867 97.5477 16.1159C99.8966 17.2346 97.2578 22.988 97.2578 22.988Z" fill="#E7EAEE"/>
<path fill-rule="evenodd" clip-rule="evenodd" d="M194.233 106.157L192.272 106.097C189.945 106.038 188.269 106.052 186.862 106.162C185.732 106.25 184.889 106.404 184.411 106.555L184.317 106.587L184.308 106.631C184.255 106.895 184.217 107.248 184.201 107.675L184.195 107.839C184.164 109.12 184.319 110.831 184.626 112.743C184.879 114.31 185.223 115.939 185.583 117.311L185.673 117.648C185.812 118.161 185.947 118.606 186.065 118.952L186.107 119.076L186.159 119.095C186.881 119.352 188.318 119.382 191.087 119.178L192.968 119.031C194.235 118.938 195.159 118.898 196.07 118.909L204.91 119.095C206.147 119.118 207.265 119.136 208.359 119.15L210.345 119.173C215.305 119.461 220.755 119.245 221.433 118.011C223.501 114.245 224.476 106.491 223.501 106.439C221.747 106.346 219.623 106.236 218.614 106.249L216.285 106.292L214.173 106.308C213.208 106.314 212.202 106.317 211.122 106.318L199.006 106.29C198.219 106.285 197.447 106.265 196.057 106.219L194.233 106.157Z" fill="#E7EAEE"/>
<path d="M90.102 0.00812401L101.332 0.359687C127.787 1.16673 146.937 1.57513 158.781 1.5843L160.812 1.58234C173.498 1.54546 194.287 1.08918 223.179 0.213202L229.009 0.0335146C238.208 -0.252442 245.898 6.97323 246.184 16.1722C246.199 16.6425 246.193 17.1135 246.167 17.5833L246.001 20.7064C244.237 54.141 243.356 80.556 243.356 99.9505C243.356 128.431 244.133 156.912 245.689 185.392L245.859 188.443C246.431 198.55 238.701 207.208 228.593 207.78C228.498 207.785 228.402 207.787 228.306 207.791C228.149 207.875 227.976 207.905 227.792 207.856C227.726 207.838 227.66 207.822 227.595 207.807C227.163 207.808 226.731 207.796 226.299 207.766C226.191 207.758 226.082 207.751 225.973 207.743C222.198 208.476 222.86 215.905 222.865 215.96C222.804 217.397 222.711 218.12 222.452 218.924C221.982 220.379 220.998 221.334 219.471 221.599C216.387 222.134 213.554 222.287 211.064 221.779C207.34 221.018 205.025 218.778 204.948 214.959L204.946 214.76C205.653 208.088 201.201 208.239 200.803 207.007C200.706 206.707 200.724 206.493 200.815 206.344C187.084 205.757 173.417 205.462 159.816 205.462C146.868 205.462 133.919 205.73 120.971 206.262C119.07 207.05 114.995 208.046 114.445 208.422C113.328 209.187 113.25 210.768 114.107 213.936L114.289 214.585L114.838 216.454C115.572 218.99 115.747 219.973 115.613 221.222C115.369 223.488 114.926 224.404 112.141 224.293L111.732 224.274C110.765 224.232 108.607 223.993 106.747 224.172L105.497 224.293C100.494 224.753 98.0876 225.008 95.8179 222.924C94.079 221.327 93.6671 219.206 93.8491 215.642L93.8833 215.061L94.0083 213.273C94.1316 211.365 94.1094 210.522 93.896 209.778C93.7938 209.422 93.2872 208.621 92.8179 207.838C92.6838 207.848 92.5496 207.857 92.4155 207.867L90.0083 208.041C81.1358 208.697 73.4111 202.036 72.7554 193.163C72.7369 192.914 72.7241 192.664 72.7173 192.413L72.6518 189.867C72.2463 173.081 72.957 160.06 73.7476 150.806L73.8393 149.782C75.0555 136.72 75.1376 91.6262 75.103 64.2454L75.0669 44.6116C75.0669 36.0103 74.4136 27.3707 74.1421 18.6927L74.0571 16.0872C73.7622 7.50253 80.4822 0.304304 89.0669 0.00910057C89.4117 -0.00274882 89.7572 -0.00297689 90.102 0.00812401ZM112.27 206.66C106.821 206.935 101.372 207.255 95.9224 207.623C96.1998 208.023 96.4143 208.487 96.5649 209.012L96.6255 209.233C96.9076 210.331 96.9199 211.38 96.769 213.619L96.6489 215.333C96.4562 218.386 96.7188 219.98 97.6968 220.878C99.1534 222.216 100.583 222.63 103.552 222.329C103.601 222.329 109.985 222.216 110.635 222.315L110.908 222.329C112.43 222.418 113.331 221.626 113.407 220.924L113.417 220.796C113.47 220.04 113.282 219.138 112.654 216.981L112.141 215.234L112.107 215.117C111.546 213.14 111.28 211.736 111.307 210.417C111.339 208.887 111.42 207.609 112.27 206.66ZM202.955 206.44C206.015 207.925 207.106 210.698 207.166 214.534L207.168 214.76C207.168 217.242 209.099 218.863 211.696 219.393C213.68 219.798 216.016 220.464 218.652 220.032L218.997 219.973C220.568 219.393 220.57 213.754 220.57 213.742C220.587 213.282 220.604 212.982 220.63 212.617L220.665 212.207C220.861 210.149 221.292 208.613 222.173 207.492C215.753 207.077 209.347 206.727 202.955 206.44ZM89.1616 2.78156C82.1804 3.02175 76.7001 8.82009 76.8267 15.7825L76.8325 15.9935L76.9185 18.6029C77.1636 26.4391 77.2982 34.2446 77.3227 42.0189L77.3647 65.9388C77.3741 74.5482 77.3694 82.3189 77.3442 89.928L77.3091 97.9974C77.1734 123.688 76.8075 141.719 76.1284 149.568L75.9976 151.035C75.1778 160.628 75.0075 174.405 75.4936 192.335C75.4993 192.543 75.5096 192.75 75.5249 192.956C76.0621 200.226 82.333 205.701 89.5864 205.284L89.8061 205.269L92.2173 205.094C114.75 203.486 137.283 202.682 159.816 202.682C181.871 202.682 204.096 203.452 226.49 204.992C227.137 205.037 227.788 205.041 228.436 205.004C236.926 204.524 243.44 197.319 243.098 188.851L243.085 188.594L242.916 185.54C241.413 158.028 240.634 130.516 240.581 103.004L240.578 99.9476C240.578 79.8953 241.517 52.3938 243.394 17.432C243.415 17.0404 243.42 16.6481 243.408 16.2562C243.172 8.66706 236.889 2.68985 229.326 2.80207L229.095 2.80695L217.647 3.15461C191.636 3.92179 172.696 4.32227 160.815 4.35676L158.779 4.35871L156.684 4.35383C144.556 4.30174 125.78 3.88547 100.346 3.10578L90.0122 2.78058C89.7289 2.77146 89.4449 2.77182 89.1616 2.78156ZM229.598 196.838C231.107 195.317 233.449 195.096 234.844 196.462C236.223 197.813 236.183 200.034 234.781 201.413C233.428 202.744 231.168 202.957 229.658 201.876C228.009 200.696 228.051 198.399 229.598 196.838ZM92.6108 196.192C93.9109 194.906 95.988 194.825 97.2642 196.054L97.353 196.143C98.5101 197.343 98.5755 199.189 97.4565 200.356L97.3726 200.44C96.198 201.571 94.1967 201.648 92.8306 200.654C91.3367 199.566 91.2628 197.525 92.6108 196.192ZM233.422 197.795C232.833 197.298 231.754 197.424 230.979 198.206C230.215 198.977 230.199 199.871 230.79 200.294C231.52 200.817 232.73 200.704 233.417 200.027C234.056 199.398 234.073 198.428 233.501 197.867L233.422 197.795ZM95.854 197.399C95.3505 196.98 94.524 197.033 93.978 197.574C93.4573 198.089 93.4803 198.721 93.9751 199.081C94.5976 199.534 95.5469 199.498 96.0239 199.038C96.4406 198.637 96.4154 197.935 95.9341 197.471L95.854 197.399ZM222.162 13.9915C228.297 13.9915 233.271 18.9652 233.271 25.1009C233.271 25.3305 233.265 25.5602 233.25 25.7894L233.087 28.5111C232.789 33.6765 232.491 39.8093 232.194 46.9095L232.149 48.0472C231.423 67.1481 231.4 112.336 232.08 183.611C232.138 189.746 227.212 194.767 221.077 194.826C220.927 194.827 220.777 194.825 220.627 194.821L98.7436 191.061C93.1001 190.887 88.4847 186.507 88.0151 180.88L87.9116 179.61C86.3064 159.377 86.2114 133.542 87.6255 102.105L87.8325 97.596C88.5547 81.0528 88.6113 56.959 88.0024 25.3148C87.8856 19.2443 92.6605 14.217 98.7046 13.9984L99.0034 13.9915H222.162ZM238.799 187.538C240.423 187.667 241.588 189.148 241.433 190.814C241.285 192.414 239.967 193.787 238.416 193.909C236.69 194.046 235.477 192.503 235.627 190.646C235.773 188.841 237.148 187.408 238.799 187.538ZM98.9497 16.7669C94.3489 16.8556 90.6913 20.6573 90.7798 25.2581L90.8852 31.054C91.3855 60.2331 91.2855 82.6194 90.5845 98.2298L90.4448 101.232C88.9582 133.674 89.0724 160.152 90.7827 180.647C91.1299 184.806 94.4973 188.055 98.646 188.274L98.8296 188.282L220.713 192.042C220.825 192.046 220.938 192.046 221.05 192.045C225.652 192.001 229.346 188.236 229.302 183.634L229.204 172.92C228.614 106.359 228.685 64.3388 229.418 46.7913L229.609 42.3939C229.898 35.8922 230.187 30.2994 230.478 25.6146C230.489 25.4427 230.494 25.2702 230.494 25.098C230.494 20.4962 226.763 16.7659 222.162 16.7659H99.1099C99.0565 16.7659 99.003 16.7659 98.9497 16.7669ZM238.583 189.476C238.115 189.488 237.629 190.027 237.566 190.804C237.504 191.564 237.852 192.006 238.263 191.974C238.848 191.928 239.434 191.316 239.498 190.636C239.555 190.022 239.159 189.518 238.676 189.48L238.583 189.476ZM80.3892 186.193C81.6892 184.906 83.7672 184.825 85.0435 186.055L85.1323 186.144C86.2894 187.344 86.3538 189.19 85.2349 190.357L85.1509 190.441C83.9762 191.571 81.9749 191.649 80.6089 190.655C79.1152 189.567 79.0411 187.526 80.3892 186.193ZM83.6333 187.4C83.1299 186.981 82.3024 187.033 81.7563 187.574C81.2356 188.089 81.2586 188.722 81.7534 189.082C82.3759 189.536 83.3261 189.499 83.8032 189.039C84.2199 188.638 84.1938 187.936 83.7124 187.472L83.6333 187.4ZM82.2026 15.3226L82.3227 15.3362C84.0201 15.5573 85.1923 17.2273 85.0962 19.0989L85.0874 19.2298C84.929 21.1429 83.4947 22.822 81.7632 22.9759C79.8412 23.1464 78.5458 21.297 78.7056 19.0794C78.8622 16.9061 80.3545 15.1589 82.2026 15.3226ZM237.349 15.5316C239.011 14.7678 240.99 15.4017 241.769 16.9935L241.822 17.1077C242.499 18.6316 241.929 20.3871 240.478 21.1009L240.371 21.1517C238.88 21.8125 236.972 21.2012 236.029 19.7991C234.997 18.266 235.626 16.3237 237.349 15.5316ZM81.9663 17.2591C81.3768 17.2663 80.7285 18.0629 80.645 19.221C80.5616 20.378 81.059 21.0886 81.5913 21.0413C82.3137 20.9772 83.066 20.0964 83.1509 19.0706C83.231 18.0999 82.6842 17.32 82.061 17.264L81.9663 17.2591ZM239.984 17.7737C239.654 17.208 238.858 16.9744 238.161 17.2952C237.495 17.6012 237.301 18.2035 237.642 18.7112C238.072 19.3501 238.977 19.6406 239.583 19.3724C240.111 19.1379 240.327 18.4695 240.034 17.8685L239.984 17.7737ZM91.3774 5.15266C93.1453 5.03124 94.6847 6.42871 94.854 8.24933C95.0294 10.1375 93.6605 11.6536 91.8169 11.5267C90.1311 11.4105 88.648 10.0639 88.4751 8.44269L88.4653 8.32453C88.3582 6.71154 89.5936 5.34048 91.2515 5.16437L91.3774 5.15266ZM229.154 5.15266L229.279 5.16437C230.937 5.34036 232.172 6.71145 232.065 8.32453L232.055 8.44269C231.882 10.064 230.399 11.4106 228.713 11.5267C226.87 11.6536 225.502 10.1375 225.677 8.24933C225.847 6.42859 227.386 5.03099 229.154 5.15266ZM91.4858 7.09211C90.8186 7.13836 90.3475 7.65956 90.4087 8.23469C90.4789 8.89309 91.1826 9.5322 91.9507 9.58527C92.5613 9.62729 92.9861 9.15737 92.9185 8.42805C92.8474 7.66338 92.248 7.09116 91.5933 7.0882L91.4858 7.09211ZM228.938 7.0882C228.283 7.09097 227.684 7.66325 227.613 8.42805C227.545 9.15741 227.969 9.6273 228.58 9.58527C229.348 9.53233 230.051 8.89317 230.122 8.23469C230.183 7.65962 229.712 7.13848 229.045 7.09211L228.938 7.0882Z" fill="#00160A"/>
<path fill-rule="evenodd" clip-rule="evenodd" d="M92.61 196.192C91.262 197.526 91.3361 199.566 92.8299 200.654C94.196 201.649 96.1975 201.571 97.3721 200.44L97.4561 200.356C98.5751 199.189 98.5099 197.344 97.3528 196.144L97.2639 196.055C95.9877 194.825 93.9101 194.906 92.61 196.192ZM95.8537 197.399L95.9335 197.472C96.4149 197.936 96.4404 198.638 96.0237 199.039C95.5466 199.498 94.5969 199.535 93.9744 199.082C93.4796 198.721 93.4566 198.089 93.9774 197.574C94.5234 197.034 95.3503 196.981 95.8537 197.399Z" fill="#00160A"/>
<path d="M233.423 197.797L233.503 197.87C234.074 198.43 234.057 199.4 233.418 200.029C232.73 200.706 231.521 200.82 230.791 200.297C230.199 199.873 230.216 198.979 230.98 198.209C231.755 197.426 232.834 197.3 233.423 197.797Z" fill="white"/>
<path fill-rule="evenodd" clip-rule="evenodd" d="M110.826 78.5807C110.185 78.8033 109.607 79.1054 108.892 79.5455L108.343 79.8897L108.071 80.0632C103.929 82.7369 101.163 86.062 99.1957 90.5649L99.0904 90.8086L99.0116 90.785C98.4894 90.6318 98.016 90.5567 97.51 90.5988C96.4311 90.6885 95.4255 91.3348 95.0663 92.5398C94.5053 94.4216 94.737 96.5737 95.4653 98.7769L95.602 99.1803C96.3126 101.223 97.0991 102.609 98.4068 103.013C100.145 103.551 106.151 101.17 108.246 99.0098C109.739 97.4688 109.141 95.584 107.719 94.4963L107.589 94.3997L107.451 94.3047L107.295 94.2037L107.4 94.0173C107.472 93.8893 107.548 93.7591 107.628 93.6277C108.477 92.2194 109.539 90.8878 110.615 89.9454C111.029 89.5825 111.508 89.2498 112.054 88.9394C112.899 88.4591 116.27 87.1361 116.837 86.6899C118.659 85.2566 118.448 83.1809 117.296 81.3816C116.579 80.2625 115.452 79.2138 114.363 78.6863C113.219 78.1322 112.021 78.1655 110.826 78.5807ZM113.274 80.936C114.562 81.5597 116.427 83.8327 115.292 84.725C114.523 85.3301 111.356 85.9735 108.968 88.0651C106.15 90.5342 104.121 94.513 104.121 95.4872L104.443 95.6079C106.2 96.2843 106.87 96.8383 106.451 97.2699C104.587 99.1927 99.5213 100.741 99.1461 100.625C98.777 100.511 96.5912 96.1756 97.4623 93.2538C97.5787 92.8633 98.5906 93.1601 100.498 94.1443C102.215 89.0428 104.722 85.2079 109.408 82.1758L110.003 81.7983C111.014 81.1637 112.26 80.4451 113.274 80.936Z" fill="#00160A"/>
<path d="M114.847 93.3208C121.753 85.6461 137.985 80.7028 149.343 83.4585C155.453 84.9408 162.082 90.9347 166.298 98.8111C171.034 107.66 172.244 117.715 168.949 127.013C166.447 134.073 161.929 138.997 155.923 141.931C151.127 144.274 145.598 145.229 140.214 145.002C130.496 144.593 118.412 140.25 114.616 136.101C104.327 124.856 103.731 105.674 114.847 93.3208ZM148.376 86.0826C138.015 83.7326 123.069 88.3342 116.911 95.1773C106.774 106.443 107.319 124.012 116.665 134.225C119.89 137.75 131.285 141.845 140.33 142.226C145.281 142.434 150.357 141.558 154.703 139.434C160.067 136.813 164.077 132.445 166.331 126.085C169.348 117.569 168.235 108.316 163.848 100.121C159.977 92.8872 153.943 87.4307 148.688 86.1558L148.376 86.0826ZM124.872 95.6158C129.589 91.5249 133.737 88.8721 144.675 90.6997C156.312 92.6444 164.644 115.941 158.498 126.731C155.776 131.509 148.714 134.873 143.639 135.937C135.986 137.541 126.014 132.296 123.747 130.252C114.727 122.115 114.727 104.58 123.96 96.4165L124.872 95.6158ZM119.919 116.01C120.417 120.732 122.313 125.218 125.607 128.189C126.645 129.125 129.591 130.742 132.629 131.854C133.986 132.351 135.318 132.737 136.598 133.007C136.349 132.558 136.193 132.083 136.155 131.617C136.07 130.563 136.032 129.736 136.008 128.489L135.976 126.406C135.921 123.481 135.733 122.355 135.05 121.36L134.947 121.215C133.917 119.826 131.662 118.786 127.296 117.889L125.345 117.51C124.663 117.376 124.084 117.254 123.518 117.123L123.303 117.072C121.901 116.74 120.772 116.404 119.919 116.01ZM157.824 117.053C157.685 117.155 157.539 117.258 157.383 117.357C155.915 118.293 154.498 118.666 151.478 119.107L150.64 119.226C147.028 119.744 145.608 120.196 144.584 121.374C144.356 121.636 144.315 122.729 144.486 125.34L144.576 126.649L144.636 127.643C144.732 129.491 144.694 130.796 144.451 131.935C144.372 132.303 144.269 132.646 144.143 132.963C149.134 131.661 154.245 128.586 156.085 125.356C157.366 123.107 157.891 120.199 157.824 117.053ZM136.955 119.726C138.136 121.319 138.407 122.725 138.475 126.317L138.503 128.214C138.523 129.402 138.555 130.184 138.622 131.089L138.647 131.416C138.699 132.058 139.794 133.078 141.005 132.847C141.948 132.667 142.313 131.122 142.135 127.684L142.111 127.253L141.973 125.236C141.755 121.923 141.824 120.828 142.585 119.869C140.772 120.553 138.664 120.521 136.849 119.588C136.885 119.634 136.92 119.68 136.955 119.726ZM140.525 109.67C138.672 109.955 136.758 111.08 135.801 112.501C134.668 114.183 135.074 115.865 137.515 117.413C139.621 118.747 142.556 118.099 143.893 116.22C145.237 114.332 144.428 111.925 140.795 109.715L140.683 109.648L140.525 109.67ZM144.711 110.008C146.97 112.397 147.344 115.085 145.792 117.382L145.704 117.509C145.634 117.607 145.561 117.701 145.486 117.794C146.608 117.369 148.037 117.081 150.023 116.79L151.098 116.636C153.608 116.27 154.821 115.969 155.849 115.366L156.041 115.249C157.204 114.508 157.316 114.36 156.799 113.942L156.631 113.813C155.716 113.124 153.949 112.436 151.405 111.722L150.868 111.575C150.287 111.418 149.691 111.264 148.988 111.089L146.065 110.373C145.512 110.233 145.07 110.115 144.711 110.008ZM139.44 93.3521C137.724 93.2451 137.092 93.6224 136.844 94.5337L136.825 94.607C136.622 95.4156 136.667 96.3606 136.976 98.5621L137.148 99.7456C137.192 100.047 137.227 100.283 137.258 100.51L137.318 100.972C137.868 105.354 137.37 107.982 134.759 109.662C132.969 110.814 131.373 111.21 127.926 111.611L126.411 111.784C125.477 111.895 124.879 111.985 124.268 112.111L123.922 112.185C122.55 112.45 121.55 112.771 120.943 113.122C120.766 113.224 120.636 113.32 120.55 113.405L120.52 113.436L120.536 113.449C120.656 113.536 120.826 113.634 121.039 113.735L121.148 113.786C121.84 114.098 122.831 114.396 124.085 114.687L124.29 114.734C124.702 114.827 125.132 114.918 125.617 115.015L126.122 115.115C126.168 115.124 126.762 115.237 127.242 115.331L128.091 115.502C130.728 116.059 132.724 116.697 134.228 117.492C132.642 115.568 132.572 113.319 133.959 111.26C135.25 109.344 137.657 107.897 140.08 107.493L140.177 107.477L140.207 107.46C140.489 107.294 140.837 107.256 141.156 107.375L141.177 107.383L141.224 107.381L141.413 107.379C141.603 107.379 141.782 107.429 141.938 107.513C141.106 105.904 140.792 103.896 140.791 101.309C140.791 100.929 140.796 100.582 140.807 100.151L140.854 98.7212C140.994 94.5975 140.744 93.5045 139.565 93.3638L139.44 93.3521ZM142.903 93.2378C142.993 93.4647 143.071 93.7054 143.133 93.9605C143.393 95.0198 143.438 95.9603 143.375 98.1031L143.344 99.0279C143.312 99.9175 143.296 100.447 143.292 100.956V101.565C143.318 104.276 143.742 106.078 144.785 107.298L144.901 107.428L144.947 107.448C145.011 107.474 145.094 107.503 145.191 107.536L145.294 107.569C145.533 107.645 145.832 107.73 146.216 107.831L146.856 107.995L149.593 108.665C150.131 108.798 150.609 108.92 151.067 109.041L151.821 109.244C154.083 109.867 155.817 110.475 157.079 111.152C155.195 102.714 150.007 94.4054 144.217 93.438C143.767 93.3628 143.329 93.2974 142.903 93.2378ZM134.658 93.232C134.007 93.3653 133.394 93.5338 132.814 93.7417C130.602 94.5349 128.991 95.6735 125.8 98.4956C122.414 101.489 120.459 106.037 119.932 110.816C120.732 110.408 121.762 110.082 123.004 109.821L123.41 109.739C124.305 109.537 125.05 109.424 126.467 109.26L127.619 109.13C130.692 108.773 132.039 108.441 133.407 107.56C134.902 106.598 135.261 104.853 134.865 101.509L134.809 101.064C134.79 100.919 134.77 100.778 134.749 100.624L134.495 98.8736C134.123 96.2324 134.087 95.1468 134.432 93.8785C134.494 93.6505 134.57 93.435 134.658 93.232Z" fill="#00160A"/>
<path d="M183.913 103.515C185.477 103.511 187.146 103.566 188.814 103.624C190.46 103.681 192.123 103.742 193.588 103.743C199.067 103.749 204.886 103.8 210.431 103.743C211.339 103.734 214.089 103.638 216.93 103.729C218.346 103.775 219.703 103.866 220.789 104.023C221.333 104.102 221.756 104.19 222.058 104.277C222.128 104.298 222.184 104.317 222.228 104.332C222.252 104.38 222.285 104.446 222.321 104.536C222.459 104.879 222.596 105.394 222.696 106.081C222.896 107.452 222.902 109.202 222.697 110.951C222.491 112.715 222.091 114.291 221.592 115.37C221.294 116.014 221.07 116.267 220.979 116.353C213.37 117.151 200.04 116.752 190.41 116.554C189.175 116.528 187.901 116.612 186.726 116.703C185.505 116.798 184.423 116.898 183.38 116.942C182.341 116.986 181.512 116.964 180.865 116.855C180.556 116.804 180.333 116.738 180.174 116.676C180.05 116.327 179.895 115.835 179.728 115.22C179.363 113.88 178.97 112.111 178.68 110.305C178.386 108.479 178.214 106.727 178.247 105.383C178.262 104.781 178.319 104.351 178.383 104.071C178.437 104.051 178.498 104.029 178.568 104.007C178.886 103.907 179.312 103.814 179.858 103.736C180.957 103.581 182.339 103.518 183.913 103.515Z" stroke="#421EB7" stroke-width="5.36509"/>
<path d="M176.493 102.306C179.066 100.401 187.923 101.324 193.56 101.331C198.457 101.336 203.567 101.376 208.522 101.345L210.373 101.331C212.019 101.314 221.863 100.939 223.862 102.456C226.816 104.697 225.64 118.812 221.417 119.271C213.616 120.118 199.91 119.703 190.324 119.505C185.947 119.415 180.485 120.856 178.081 118.813C177.223 118.084 173.92 104.211 176.493 102.306ZM186.388 103.915C184.062 103.855 182.385 103.869 180.978 103.979C179.849 104.067 179.005 104.222 178.528 104.373L178.433 104.404L178.424 104.449C178.371 104.713 178.333 105.066 178.317 105.493L178.311 105.656C178.28 106.937 178.435 108.649 178.743 110.56C178.995 112.128 179.339 113.756 179.699 115.128L179.789 115.465C179.928 115.977 180.063 116.423 180.181 116.77L180.223 116.893L180.275 116.913C180.998 117.169 182.434 117.2 185.203 116.996L187.085 116.849C188.352 116.756 189.275 116.716 190.186 116.727L190.84 116.74C190.782 115.741 190.814 114.373 190.901 112.363L191.001 110.211C191.135 107.23 191.111 105.207 190.924 104.058C190.694 104.051 190.446 104.046 190.174 104.037L188.349 103.974L186.388 103.915ZM193.748 104.108C193.906 105.409 193.904 107.141 193.809 109.528L193.653 113C193.604 114.18 193.589 114.852 193.598 115.555L193.6 115.651C193.607 116.098 193.629 116.485 193.658 116.799L199.027 116.912C200.264 116.935 201.381 116.953 202.475 116.967L204.462 116.99C205.506 116.999 206.513 117.004 207.482 117.005C207.123 113.629 206.841 107.584 207.017 104.129C206.444 104.131 205.854 104.135 205.239 104.135L193.748 104.108ZM212.73 104.067L210.401 104.109L209.742 104.114C209.72 104.489 209.701 104.936 209.695 105.437L209.693 105.599C209.682 106.953 209.731 108.659 209.827 110.547L209.846 110.927C209.926 112.409 210.032 113.939 210.144 115.286L210.213 116.07C210.243 116.404 210.273 116.714 210.301 116.995C214.57 116.959 217.998 116.824 220.654 116.56L220.902 116.534L220.935 116.5C221.077 116.339 221.243 116.081 221.412 115.735L221.475 115.601C221.974 114.522 222.369 112.95 222.573 111.21C222.775 109.489 222.772 107.744 222.572 106.366C222.48 105.73 222.35 105.207 222.203 104.842L222.161 104.745L222.13 104.679L222.019 104.645C221.722 104.557 221.314 104.472 220.814 104.398C219.83 104.251 218.563 104.153 217.081 104.101C215.702 104.053 214.3 104.046 212.73 104.067ZM201.448 107.379C201.733 107.097 202.192 107.1 202.474 107.384C202.756 107.669 202.754 108.128 202.469 108.41L201.691 109.179C201.386 109.492 201.131 109.787 200.92 110.083C201.569 110.738 202.046 110.937 202.52 110.948H202.642L202.717 110.952C203.082 110.989 203.368 111.298 203.368 111.673C203.368 112.074 203.043 112.399 202.642 112.399H202.5C201.761 112.385 201.057 112.125 200.255 111.422C200.116 111.886 200.039 112.409 200.006 113.043C199.985 113.443 199.643 113.75 199.243 113.729C198.843 113.708 198.536 113.367 198.556 112.967C198.614 111.867 198.798 111.012 199.147 110.251C198.887 109.932 198.613 109.572 198.324 109.165L198.071 108.801C197.844 108.471 197.928 108.019 198.259 107.793C198.589 107.566 199.041 107.65 199.267 107.98C199.417 108.198 199.56 108.401 199.696 108.589L199.96 108.947C200.202 108.642 200.48 108.337 200.797 108.021L201.448 107.379ZM217.168 106.935C217.568 106.938 217.891 107.266 217.887 107.667L217.881 108.109C217.869 108.608 217.844 109.06 217.806 109.469C218.521 109.905 219.151 110.511 219.814 111.391C220.055 111.711 219.992 112.167 219.672 112.408C219.352 112.649 218.896 112.584 218.655 112.264C218.273 111.757 217.917 111.367 217.543 111.06C217.27 112.091 216.833 112.701 216.228 113.126L216.11 113.206C215.778 113.43 215.327 113.341 215.103 113.009C214.893 112.698 214.956 112.282 215.239 112.046L215.299 112.002L215.399 111.934C215.786 111.66 216.07 111.228 216.242 110.322C215.901 110.195 215.525 110.094 215.097 110.004L214.022 109.801C213.629 109.727 213.37 109.347 213.445 108.954C213.52 108.56 213.899 108.302 214.293 108.376L215.191 108.543C215.63 108.629 216.031 108.726 216.403 108.843C216.422 108.49 216.433 108.095 216.436 107.655C216.44 107.254 216.767 106.932 217.168 106.935Z" fill="#00160A"/>
<path fill-rule="evenodd" clip-rule="evenodd" d="M186.23 108.048L186.116 108.475C185.984 108.957 185.851 109.39 185.715 109.778C186.304 110.373 186.768 111.114 187.199 112.128C187.355 112.497 187.183 112.923 186.814 113.079C186.445 113.236 186.019 113.064 185.863 112.695C185.615 112.11 185.363 111.646 185.075 111.257C184.561 112.192 183.989 112.677 183.299 112.943L183.165 112.992C182.789 113.129 182.373 112.935 182.236 112.558C182.107 112.205 182.27 111.817 182.601 111.657L182.669 111.628L182.783 111.587C183.225 111.415 183.605 111.064 183.991 110.226C183.691 110.02 183.351 109.831 182.957 109.641L181.963 109.184C181.599 109.016 181.44 108.585 181.608 108.222C181.776 107.858 182.206 107.699 182.57 107.866L183.402 108.246C183.808 108.436 184.173 108.627 184.505 108.83C184.609 108.492 184.715 108.112 184.825 107.685C184.925 107.297 185.321 107.064 185.709 107.164C186.097 107.264 186.33 107.66 186.23 108.048Z" fill="#10B981"/>
</svg>
