<svg width="336" height="288" viewBox="0 0 336 288" fill="none" xmlns="http://www.w3.org/2000/svg">
<path fill-rule="evenodd" clip-rule="evenodd" d="M97.3436 194.105C52.1156 204.649 26.2387 189.928 19.7128 149.943C9.92401 89.9663 43.084 26.9563 88.5827 20.9161C134.082 14.8758 153.208 32.1058 185.187 53.7425C217.166 75.3792 309.851 126.289 320.381 134.929C330.912 143.569 353.442 177.332 308.377 198.718C278.333 212.976 240.958 210.29 196.251 190.663C180.535 183.791 166.223 180.155 153.316 179.754C140.408 179.353 121.751 184.136 97.3436 194.105Z" fill="#10B981"/>
<path d="M148.899 117.961C152.964 120.614 154.599 124.046 153.803 128.258C149.995 133.965 148.092 138.907 148.092 143.083C148.092 147.26 147.805 152.694 147.232 159.383L115.589 160.051L115.522 160.011C114.676 160.027 113.845 160.041 113.028 160.051C105.985 160.143 99.737 161.076 99.4421 161.122C97.1362 161.479 92.9805 157.201 91.8272 155.752C89.9741 153.423 89.0932 150.667 88.7017 147.667C88.3323 144.837 88.8533 142.206 89.8763 139.684C91.0716 136.738 92.9425 134.187 95.3147 131.941C97.9159 129.557 100.717 127.61 103.857 126.175C103.979 126.119 106.233 125.01 106.341 125.024C106.413 125.034 110.016 126.188 115.027 128.529C120.714 124.487 126.866 120.209 133.482 115.697C139.695 114.553 144.834 115.307 148.899 117.961Z" fill="white"/>
<path fill-rule="evenodd" clip-rule="evenodd" d="M107.953 186.828C112.928 187.853 115.928 185.901 116.952 180.971C118.487 173.577 109.211 174.899 106.372 171.093C103.533 167.288 109.83 166.525 116.952 168.809C124.08 168.497 126.137 168.905 126.546 166.939C126.956 164.974 123.242 163.735 113.323 164.059C103.404 164.383 104.863 164.397 105.617 172.684C106.121 178.209 106.899 182.924 107.953 186.828Z" fill="white"/>
<path d="M231.609 202.623C227.785 199.459 225.092 197.47 223.648 196.197C220.201 193.159 216.669 190.216 213.191 187.212C212.476 186.594 211.782 185.93 211.193 185.194C210.455 184.271 210.623 183.633 211.789 183.184C212.709 182.829 213.714 182.666 214.696 182.509C217.624 182.041 220.558 181.604 223.493 181.183C224.783 180.998 226.083 180.89 227.377 180.729C227.608 180.7 227.828 180.585 228.053 180.509C227.942 180.328 227.856 180.121 227.714 179.968C226.581 178.745 225.438 177.531 224.297 176.315C224.197 176.208 224.09 176.107 223.987 176.003C224.149 175.964 224.309 175.912 224.473 175.888C227.479 175.444 230.484 174.998 233.491 174.565C235.465 174.281 237.439 173.987 239.42 173.754C241.447 173.516 243.48 173.323 245.514 173.155C247.333 173.005 249.159 172.941 250.978 172.79C252.143 172.693 253.297 172.463 254.463 172.369C255.92 172.251 257.384 172.232 258.843 172.133C260.665 172.008 262.483 171.825 264.306 171.703C265.837 171.601 267.374 171.573 268.906 171.469C270.142 171.386 271.371 171.204 272.607 171.129C273.815 171.056 275.027 171.064 276.237 171.036C279.371 170.962 282.504 170.873 285.638 170.821C287.555 170.789 289.489 170.67 291.385 170.875C292.374 170.981 293.504 171.492 294.209 172.188C295.99 173.946 297.568 175.91 299.223 177.796C300.238 178.952 301.255 180.106 302.254 181.276C304.359 183.742 306.448 186.222 308.555 188.686C309.209 189.451 309.909 190.177 310.566 190.941C310.755 191.159 310.865 191.446 311.012 191.701C310.804 191.531 310.187 191.003 310.392 191.19C330.715 209.679 245.129 213.61 231.609 202.623Z" fill="white"/>
<path d="M0.10545 134.302C0.174733 132.398 0.233633 130.494 0.307551 128.591C0.331433 127.976 0.400993 127.363 0.438962 126.748C0.75425 121.644 1.36062 116.573 2.66674 111.625C3.70901 107.676 5.08528 103.836 6.758 100.085C8.66604 95.8055 10.9858 91.7817 13.6587 87.9557C15.0205 86.0065 16.5079 84.128 18.0904 82.3513C19.9946 80.2137 21.9509 78.0972 24.0849 76.1932C26.521 74.0196 29.1391 72.0387 31.7682 70.0944C32.3535 69.6615 33.3883 69.4505 34.0869 69.6312C35.3135 69.9486 35.4909 71.0149 34.5526 71.8292C32.4221 73.6782 31.4083 76.0387 31.2522 78.78C31.1659 80.2942 31.3077 81.8211 31.2237 83.3356C30.9466 88.328 32.4044 92.9233 34.5633 97.307C36.6274 101.498 39.6328 104.949 43.9452 106.966C46.4197 108.123 49.0658 108.935 51.6716 109.79C53.9351 110.534 56.2544 111.108 58.542 111.78C60.7862 112.44 62.9968 113.039 65.3747 112.246C66.5945 111.839 67.5097 112.93 67.0426 114.112C65.2762 118.583 63.771 123.223 60.6681 126.993C58.8069 129.254 56.6534 131.346 54.3499 133.162C50.968 135.827 47.0793 137.728 43.1951 139.599C39.4065 141.425 35.7033 143.428 31.898 145.217C27.6111 147.232 23.2668 149.13 18.9196 151.015C15.4125 152.536 11.872 153.982 8.3279 155.417C7.48045 155.76 6.5727 156 5.66954 156.15C4.76461 156.3 2.77659 154.881 2.42144 153.943C1.52017 151.563 0.907525 149.116 0.654519 146.579C0.500549 145.036 0.293304 143.497 0.0549951 141.956C1.11372e-08 141.847 -1.48496e-08 141.738 0.0549944 141.574C0.146651 139.462 0.185094 137.406 0.21063 135.349C0.211333 135.293 0.0733253 135.234 0 135.177C0 134.922 0 134.667 0 134.357C0.0366552 134.302 0.105401 134.303 0.10545 134.302Z" fill="white"/>
<path fill-rule="evenodd" clip-rule="evenodd" d="M146.853 159.318L213.446 157.622H216.178C220.16 160.588 224.529 161.866 229.285 161.456C236.419 160.842 242.718 152.968 244.189 141.991C244.406 141.135 244.931 140.929 245.766 141.374C246.685 143.166 248.316 143.947 250.659 143.719C251.676 143.609 252.242 143.847 252.816 144.951C253.39 146.055 256.426 147.444 258.329 146.329C260.232 145.215 269.004 131.005 269.004 128.614C269.004 126.223 269.496 121.001 269.884 120.664C270.271 120.327 270.999 120.601 272.413 120.153C273.827 119.704 275.037 120.15 279.57 108.251C284.103 96.3515 291.039 78.5629 291.778 66.1069C292.516 53.6509 283.718 58.0533 279.57 63.2511C275.422 68.449 263.859 81.8325 253.157 89.1003C251.848 90.0784 250.779 90.5382 249.95 90.4797C249.454 87.3864 247.42 86.2339 243.848 87.0221C242.46 87.2715 241.324 86.1742 240.44 83.7302C238.15 71.042 232.931 61.8609 224.781 56.1867C212.556 47.6756 191.725 42.8116 186.713 60.6072C183.372 72.471 185.381 86.8845 192.74 103.848L189.676 106.5C177.62 110.67 167.771 115.818 160.13 121.945C148.667 131.134 148.448 140.098 147.84 147.491C147.434 152.42 147.105 156.362 146.853 159.318Z" fill="white"/>
<path d="M122.212 108.083C122.314 107.119 122.36 106.149 122.471 105.186C122.477 105.134 122.967 105.024 123.108 105.12C124.418 106.021 125.715 106.944 126.985 107.901C127.329 108.16 127.356 108.418 127.513 107.739C127.757 106.679 129.266 106.382 130.169 107.136C132.242 108.865 133.288 111.189 134.046 113.716C134.704 115.908 134.443 118.136 134.507 120.351C134.548 121.772 135.88 122.845 137.277 122.902C138.31 122.944 139.397 123.398 140.327 123.91C142.576 125.151 144.022 127.108 144.732 129.574C145.498 132.229 144.786 134.592 143.247 136.798C141.847 138.805 140.572 140.907 138.541 142.378C137.417 143.192 136.123 143.867 135.243 144.895C134.299 145.999 133.214 146.718 131.928 147.215C128.759 148.438 125.296 146.852 123.745 144.21C122.106 140.724 116.256 143.564 113.989 138.422C112.845 136.725 112.4 135.302 112.646 135.159C112.948 134.986 112.531 134.546 111.998 133.987C109.67 131.541 107.602 128.893 106.188 125.793C105.964 125.303 105.734 124.798 105.636 124.276C105.577 123.956 105.666 123.498 105.874 123.277C106.005 123.138 106.525 123.238 106.788 123.381C107.183 123.597 107.495 123.958 107.859 124.234C108.48 124.706 108.825 124.505 108.657 123.77C108.179 121.678 108.618 119.692 109.354 117.773C109.75 116.739 110.396 115.795 110.995 114.851C111.052 114.762 111.628 114.897 111.879 115.06C112.344 115.36 112.747 115.758 113.176 116.115C113.205 115.543 113.214 114.97 113.27 114.401C113.303 114.063 113.386 113.724 113.489 113.399C114.002 111.77 114.278 111.688 115.637 112.709C115.82 112.846 116.038 112.936 116.239 113.047C116.267 112.84 116.304 112.633 116.321 112.425C116.471 110.635 116.113 109.01 114.804 107.681C114.788 107.665 115.073 107.198 115.236 107.185C117.121 107.037 119.007 106.959 120.731 107.966C121.083 108.172 121.435 108.379 121.842 108.641C122.006 108.492 122.189 108.296 122.212 108.083Z" fill="white"/>
<path fill-rule="evenodd" clip-rule="evenodd" d="M150.164 42.2332C144.597 46.8472 142.073 53.5271 142.591 62.2729C143.367 75.3916 158.629 84.7378 166.011 80.7818C173.393 76.8258 181.544 71.0629 182.518 58.7961C182.931 70.4689 184.155 76.1499 168.417 84.6152C152.679 93.0805 136.226 79.9453 133.846 74.5313C131.466 69.1174 125.737 57.1656 137.365 43.2999C138.956 41.4661 143.223 41.1106 150.164 42.2332Z" fill="white"/>
<path fill-rule="evenodd" clip-rule="evenodd" d="M282.81 195.72C284.157 195.572 285.398 195.454 286.629 195.271C289.426 194.856 292.217 194.399 295.014 193.979C296.678 193.728 298.367 193.607 300.007 193.253C301.158 193.004 302.201 193.166 303.261 193.515C303.431 193.571 303.562 193.748 303.711 193.87C303.532 193.97 303.362 194.136 303.173 194.16C300.715 194.47 298.249 194.729 295.794 195.064C293.326 195.402 290.87 195.829 288.403 196.182C286.684 196.428 284.955 196.602 283.234 196.832C282.337 196.952 281.449 197.145 280.552 197.264C279.282 197.433 278.004 197.546 276.734 197.717C275.244 197.918 273.761 198.167 272.271 198.373C271.074 198.539 269.871 198.659 268.673 198.823C267.147 199.031 265.626 199.268 264.101 199.482C262.976 199.639 261.849 199.782 260.722 199.926C259.535 200.077 258.344 200.196 257.162 200.379C256.447 200.491 255.789 200.485 255.576 199.662C255.383 198.912 255.766 198.324 256.497 198.162C257.498 197.94 258.525 197.819 259.548 197.722C260.761 197.608 261.982 197.558 263.2 197.493C264.699 197.412 266.201 197.37 267.698 197.262C269.291 197.147 270.88 196.964 272.472 196.829C274.344 196.671 276.22 196.555 278.09 196.375C279.062 196.281 280.024 196.084 280.992 195.943C281.56 195.86 282.131 195.794 282.81 195.72Z" fill="#E7EAEE"/>
<path fill-rule="evenodd" clip-rule="evenodd" d="M253.597 185.353C254.944 185.28 256.184 185.228 257.419 185.128C258.731 185.022 260.037 184.845 261.349 184.744C262.822 184.629 264.3 184.583 265.773 184.473C267.445 184.349 269.112 184.174 270.783 184.045C272.019 183.951 273.259 183.916 274.494 183.817C276.044 183.693 277.589 183.515 279.138 183.391C280.373 183.292 281.614 183.26 282.849 183.162C284.482 183.031 286.109 182.788 287.743 182.734C289.607 182.671 291.479 182.091 293.342 182.734C293.564 182.81 293.766 182.945 293.977 183.053C293.776 183.091 293.577 183.143 293.375 183.164C291.961 183.315 290.545 183.442 289.134 183.608C287.419 183.809 285.711 184.073 283.994 184.248C282.739 184.376 281.469 184.368 280.212 184.487C278.489 184.651 276.774 184.899 275.051 185.073C273.8 185.198 272.543 185.251 271.29 185.355C269.656 185.491 268.023 185.639 266.391 185.791C264.903 185.93 263.415 186.069 261.93 186.23C260.033 186.436 258.142 186.688 256.243 186.876C254.442 187.054 252.633 187.153 250.832 187.327C249.579 187.449 248.335 187.679 247.081 187.777C246.591 187.815 246.046 187.71 245.597 187.51C245.276 187.368 245.074 186.96 244.818 186.671C245.142 186.45 245.451 186.068 245.793 186.035C247.872 185.836 249.96 185.724 252.043 185.566C252.527 185.529 253.006 185.426 253.597 185.353Z" fill="#E7EAEE"/>
<path fill-rule="evenodd" clip-rule="evenodd" d="M139.026 212.924C138.913 213.015 138.854 213.084 138.797 213.082C138.282 213.067 137.768 213.04 137.254 213.016C137.745 212.677 138.194 212.156 138.735 212.032C140.865 211.544 142.783 210.685 144.561 209.416C146.883 207.759 148.316 205.586 148.838 202.808C148.918 202.381 148.798 202.189 148.282 202.192C147.545 202.196 146.806 202.075 146.07 201.992C144.63 201.829 143.484 200.811 143.357 199.596C143.276 198.818 144.445 197.187 145.309 196.766C147.317 195.787 149.549 197.72 150.12 199.393C150.35 200.067 150.459 199.823 150.763 199.545C152.196 198.235 152.666 196.553 152.552 194.705C152.43 192.73 151.56 191.141 149.846 190.03C149.253 189.645 149.025 189.097 149.485 188.397C149.987 187.634 151.38 187.582 151.924 188.257C152.66 189.169 153.305 190.221 153.711 191.314C154.696 193.966 154.444 196.544 152.787 198.916C152.669 199.086 152.571 199.282 152.419 199.414C151.118 200.543 150.418 201.948 149.889 203.603C148.321 208.512 144.723 211.41 139.846 212.861C139.611 212.931 139.336 212.87 139.026 212.924ZM145.66 198.078C144.719 198.635 144.462 200.236 145.353 200.514C146.382 200.836 147.571 200.658 148.692 200.669C148.74 200.669 148.82 200.388 148.835 200.233C148.982 198.728 147.57 197.689 145.66 198.078Z" fill="#FFB61D"/>
<path fill-rule="evenodd" clip-rule="evenodd" d="M270.421 190.152C273.529 189.857 276.525 189.539 279.525 189.275C281.651 189.087 283.785 188.992 285.913 188.817C287.226 188.709 288.533 188.536 289.842 188.381C291.648 188.166 293.455 187.765 295.258 187.786C296.286 187.798 297.482 188.132 298.183 189.173C298.237 189.254 298.298 189.33 298.356 189.408C298.22 189.435 298.075 189.508 297.95 189.482C295.599 188.984 293.287 189.466 290.953 189.681C289.327 189.831 287.674 189.652 286.037 189.726C284.394 189.8 282.757 190.011 281.117 190.151C279.305 190.305 277.491 190.424 275.682 190.604C274.71 190.7 273.751 190.916 272.78 191.031C271.338 191.202 269.889 191.312 268.447 191.485C266.798 191.683 265.147 191.881 263.509 192.154C261.562 192.478 259.632 192.908 257.687 193.242C255.759 193.572 253.828 193.925 251.884 194.096C250.998 194.174 250.061 193.898 249.175 193.671C248.495 193.495 248.649 193.016 249.083 192.701C249.433 192.447 249.862 192.227 250.282 192.161C251.547 191.964 252.825 191.845 254.098 191.702C255.444 191.55 256.789 191.383 258.138 191.264C260.058 191.095 261.983 190.984 263.902 190.808C265.069 190.702 266.227 190.502 267.392 190.379C268.362 190.277 269.338 190.226 270.421 190.152Z" fill="#E7EAEE"/>
<path fill-rule="evenodd" clip-rule="evenodd" d="M249.811 181.007C252.375 180.714 254.827 180.406 257.283 180.135C258.879 179.958 260.484 179.857 262.08 179.682C263.012 179.58 263.935 179.387 264.865 179.255C265.503 179.163 266.147 179.112 266.788 179.03C268.745 178.779 270.699 178.493 272.66 178.276C274.655 178.055 276.659 177.919 278.655 177.709C280.483 177.517 282.302 177.218 284.133 177.087C284.791 177.041 285.486 177.312 286.139 177.516C286.357 177.584 286.499 177.895 286.675 178.094C286.425 178.177 286.179 178.314 285.924 178.333C284.499 178.435 283.069 178.486 281.645 178.599C280.141 178.718 278.639 178.872 277.139 179.036C275.989 179.161 274.845 179.336 273.696 179.468C272.317 179.626 270.933 179.735 269.558 179.916C267.54 180.183 265.529 180.504 263.513 180.785C261.329 181.089 259.138 181.341 256.959 181.675C255.077 181.963 253.211 182.351 251.333 182.665C248.864 183.078 246.389 183.451 243.921 183.866C243.019 184.018 242.472 183.504 242.39 182.788C242.316 182.139 242.888 181.903 243.618 181.854C245.535 181.726 247.442 181.449 249.352 181.219C249.475 181.204 249.585 181.08 249.811 181.007Z" fill="#E7EAEE"/>
<path fill-rule="evenodd" clip-rule="evenodd" d="M278.452 204.001C276.06 204.3 273.778 204.592 271.497 204.901C270.526 205.032 269.56 205.284 268.589 205.297C268.274 205.301 267.647 204.652 267.696 204.416C267.796 203.938 268.206 203.223 268.581 203.158C270.179 202.881 271.811 202.81 273.43 202.653C274.89 202.512 276.349 202.35 277.81 202.208C279.428 202.051 281.048 201.9 282.668 201.76C284.482 201.602 286.297 201.449 288.113 201.313C289.357 201.22 290.605 201.184 291.848 201.079C293.31 200.956 294.767 200.768 296.228 200.641C297.398 200.54 298.574 200.515 299.742 200.404C300.948 200.29 302.147 200.111 303.35 199.966C303.495 199.948 303.655 199.928 303.789 199.97C304.254 200.112 304.711 200.282 305.17 200.441C304.765 200.581 304.369 200.794 303.953 200.849C301.491 201.172 299.023 201.45 296.559 201.761C294.92 201.968 293.286 202.228 291.646 202.424C290.14 202.604 288.626 202.708 287.12 202.888C286.327 202.983 285.551 203.217 284.757 203.305C283.07 203.491 281.375 203.615 279.685 203.782C279.308 203.819 278.937 203.926 278.452 204.001Z" fill="#E7EAEE"/>
<path fill-rule="evenodd" clip-rule="evenodd" d="M95.3147 131.944C97.9159 129.559 100.717 127.613 103.857 126.177C103.979 126.122 104.104 125.986 104.212 126.001C104.684 126.066 105.15 126.172 105.618 126.264C105.279 126.495 104.964 126.777 104.598 126.95C100.965 128.672 97.5808 130.761 94.828 133.755C92.1525 136.664 90.2344 139.928 89.8112 144.004C89.4222 147.75 89.8976 151.254 92.017 154.414C93.1544 156.11 94.6901 157.376 96.5562 158.216C96.7045 158.283 96.8441 158.369 96.9877 158.446C96.821 158.48 96.6553 158.52 96.4874 158.546C94.1815 158.904 92.9805 157.204 91.8272 155.754C89.9741 153.425 89.0932 150.669 88.7017 147.669C88.3323 144.839 88.8533 142.209 89.8763 139.687C91.0716 136.74 92.9425 134.19 95.3147 131.944Z" fill="#00160A"/>
<path fill-rule="evenodd" clip-rule="evenodd" d="M239.591 180.347C239.199 179.485 239.767 178.531 240.668 178.539C242.208 178.554 243.747 178.657 245.286 178.734C246.464 178.794 247.641 178.871 248.818 178.941C248.96 178.949 249.139 178.905 249.237 178.971C249.564 179.192 249.863 179.452 250.173 179.697C249.874 179.844 249.584 180.095 249.275 180.118C248.321 180.189 247.352 180.258 246.403 180.172C244.724 180.02 243.138 180.397 241.587 180.872C240.743 181.13 240.211 180.861 239.591 180.347Z" fill="#E7EAEE"/>
<path fill-rule="evenodd" clip-rule="evenodd" d="M17.2057 109.328C16.9861 110.661 16.743 111.881 16.5555 113.109C16.4366 113.887 16.41 114.679 16.3252 115.463C16.1868 116.743 15.9435 118.018 15.9063 119.3C15.8163 122.404 15.8446 125.511 15.7784 128.616C15.7145 131.61 16.2916 134.508 16.9896 137.393C17.1252 137.953 17.1662 138.613 17.4986 139.031C18.0086 139.673 17.5351 139.984 17.177 140.082C16.8349 140.176 16.1674 140.008 16.0302 139.75C15.6544 139.044 15.3998 138.246 15.2457 137.455C14.8553 135.452 14.3821 133.444 14.2448 131.418C14.059 128.676 14.1878 125.914 14.1234 123.162C14.0455 119.827 14.5369 116.552 14.9951 113.264C15.7515 107.836 16.8329 102.485 18.548 97.2763C18.7551 96.6475 19.22 96.0403 19.7149 95.5848C20.3196 95.0285 21.251 95.537 21.3842 96.3765C21.5419 97.3696 21.0892 98.1299 20.5434 98.8808C18.9004 101.141 18.079 103.719 17.645 106.443C17.4976 107.368 17.352 108.293 17.2057 109.328Z" fill="#E7EAEE"/>
<path fill-rule="evenodd" clip-rule="evenodd" d="M28.2847 132.994C28.2073 133.676 29.4338 134.494 28.0664 134.751C27.6966 134.821 26.8875 134.082 26.7174 133.581C26.2021 132.063 25.7032 130.496 25.5647 128.92C25.3734 126.742 25.5167 124.539 25.5167 122.346C25.5167 122.092 25.5167 121.837 25.5167 121.583C25.5167 118.131 25.5325 114.679 25.5062 111.227C25.4992 110.312 25.2852 109.396 25.3119 108.484C25.3315 107.813 25.4707 107.093 25.7794 106.499C26 106.074 26.57 105.604 27.0218 105.567C27.3324 105.542 27.9553 106.196 28.0059 106.595C28.1384 107.641 28.0851 108.718 28.0069 109.775C27.9461 110.597 27.6577 111.404 27.6082 112.225C27.4844 114.276 27.4304 116.331 27.3642 118.384C27.2785 121.043 27.0362 123.71 27.1849 126.358C27.3077 128.546 27.9003 130.71 28.2847 132.994Z" fill="#E7EAEE"/>
<path fill-rule="evenodd" clip-rule="evenodd" d="M38.7503 128.566C36.6724 125.353 35.1237 121.961 34.1546 118.318C33.9592 117.584 34.129 116.653 34.4044 115.921C34.5367 115.57 35.4558 115.176 35.7533 115.332C36.157 115.545 36.4783 116.248 36.534 116.774C36.7491 118.806 36.8875 120.817 37.5575 122.794C38.3717 125.196 39.7682 127.201 41.1207 129.26C41.4022 129.689 42.2443 130.112 41.6504 130.656C41.0586 131.198 40.4572 130.57 40.011 130.072C39.5915 129.604 39.2047 129.106 38.7503 128.566Z" fill="#E7EAEE"/>
<path fill-rule="evenodd" clip-rule="evenodd" d="M48.2862 121.684C47.0366 120.468 45.7853 119.36 44.6664 118.124C44.0845 117.482 44.1936 116.665 44.8931 116.051C45.5906 115.44 46.027 116.011 46.4288 116.476C47.9491 118.237 49.448 120.018 50.9483 121.797C51.0333 121.898 51.1233 122.152 51.1018 122.166C50.8565 122.336 50.5395 122.65 50.3383 122.588C49.6512 122.378 49.0028 122.033 48.2862 121.684Z" fill="#E7EAEE"/>
<path fill-rule="evenodd" clip-rule="evenodd" d="M114.119 269.497C116.945 270.204 119.672 270.873 122.364 271.654C122.858 271.797 123.209 272.394 123.626 272.781C123.041 272.818 122.419 272.998 121.877 272.868C119.081 272.198 116.28 271.527 113.529 270.706C110.83 269.901 108.189 268.918 105.524 268.008C105.397 267.964 105.291 267.866 105.169 267.805C104.517 267.479 103.822 267.148 104.336 266.272C104.81 265.465 105.547 265.484 106.277 265.897C107.348 266.502 108.334 267.266 109.449 267.773C110.922 268.443 112.484 268.931 114.119 269.497Z" fill="#E7EAEE"/>
<path fill-rule="evenodd" clip-rule="evenodd" d="M117.81 261.18C118.958 261.843 120.06 262.433 121.136 263.068C121.365 263.203 121.5 263.5 121.679 263.723C121.298 263.875 120.834 264.252 120.549 264.143C118.264 263.272 116.007 262.325 113.756 261.368C112.519 260.842 111.296 260.277 110.091 259.681C109.416 259.347 108.647 258.997 109.231 257.964C109.596 257.32 110.461 257.16 111.265 257.599C113.425 258.779 115.59 259.949 117.81 261.18Z" fill="#E7EAEE"/>
<path fill-rule="evenodd" clip-rule="evenodd" d="M111.459 248.934C111.415 247.348 112.431 246.678 113.751 247.461C115.995 248.792 118.182 250.222 120.375 251.639C121.029 252.062 121.646 252.551 122.228 253.069C122.446 253.263 122.515 253.625 122.652 253.91C122.273 253.903 121.84 254.013 121.521 253.869C119.644 253.021 117.787 252.128 115.936 251.223C114.453 250.498 112.988 249.735 111.459 248.934Z" fill="#E7EAEE"/>
<path fill-rule="evenodd" clip-rule="evenodd" d="M119.068 237.891C120.996 237.916 122.018 239.199 123.12 240.334C123.436 240.66 123.692 241.067 123.882 241.479C124.07 241.887 124.325 242.445 123.802 242.722C123.566 242.846 123.045 242.6 122.73 242.403C121.826 241.84 120.974 241.196 120.073 240.625C119.75 240.421 119.298 240.402 118.993 240.18C118.548 239.857 118.184 239.428 117.785 239.044C118.177 238.66 118.569 238.275 119.068 237.891Z" fill="#E7EAEE"/>
<path fill-rule="evenodd" clip-rule="evenodd" d="M125.234 206.57C126.824 209.871 128.1 213.276 128.525 216.948C128.753 218.917 129.014 220.884 129.17 222.86C129.312 224.653 129.421 226.458 129.381 228.254C129.333 230.404 129.101 232.548 128.969 234.696C128.877 236.189 128.862 237.689 128.736 239.179C128.557 241.275 128.272 243.362 128.1 245.458C127.969 247.046 127.881 248.641 127.885 250.233C127.889 252.045 128.019 253.856 128.087 255.667C128.165 257.735 127.99 259.848 128.365 261.859C128.925 264.869 129.693 267.868 130.691 270.762C132.158 275.017 134.695 278.715 137.495 282.197C139.224 284.348 141.219 286.257 144.029 286.998C144.065 287.008 144.097 287.346 144.024 287.409C142.988 288.316 141.698 287.947 140.605 287.801C138.161 287.475 135.743 286.897 133.342 286.31C127.24 284.818 121.148 283.291 115.065 281.724C112.101 280.961 109.17 280.073 106.219 279.261C105.785 279.142 105.225 278.944 104.884 279.111C103.163 279.954 101.834 279.028 100.569 278.17C97.7971 276.291 96.2248 273.562 95.4095 270.356C94.2847 265.932 95.1888 261.711 96.8211 257.619C97.8974 254.921 99.181 252.301 100.47 249.695C101.778 247.05 103.42 244.605 105.411 242.419C106.083 241.681 106.901 241.076 107.632 240.388C108.634 239.445 108.687 238.151 108.769 236.918C108.865 235.489 108.648 234.026 108.853 232.62C109.55 227.841 111.659 223.551 113.876 219.35C114.982 217.256 116.386 215.266 117.945 213.483C119.102 212.161 120.623 211.09 122.415 210.582C122.964 210.427 123.119 210.301 122.71 209.616C122.117 208.624 121.283 207.471 122.331 206.144C123.586 204.888 124.491 205.029 125.234 206.57ZM126.901 216.535C126.858 216.577 126.786 216.615 126.777 216.664C126.696 217.083 126.686 217.527 126.543 217.923C125.909 219.67 125.418 221.503 124.541 223.123C122.781 226.371 120.535 229.297 117.881 231.887C115.568 234.146 113.221 236.37 110.927 238.647C109.619 239.946 108.274 241.232 107.147 242.682C105.34 245.006 103.441 247.322 102.058 249.898C100.451 252.89 99.2466 256.118 98.0834 259.323C97.3528 261.335 96.8573 263.469 96.5513 265.591C96.2226 267.871 96.6621 270.146 97.6933 272.224C98.4535 273.756 99.524 275.026 101.277 275.578C103.374 276.239 105.433 277.019 107.525 277.696C112.167 279.198 116.794 280.759 121.477 282.122C124.984 283.142 128.56 283.931 132.123 284.745C134.141 285.205 136.193 285.517 138.235 285.868C138.396 285.896 138.596 285.702 138.777 285.611C138.686 285.482 138.607 285.342 138.502 285.225C137.756 284.398 136.925 283.635 136.271 282.742C134.469 280.284 132.496 277.908 131.038 275.253C128.452 270.541 126.718 265.489 126.329 260.055C126.21 258.382 126.041 256.712 125.895 254.822C125.895 252.724 125.81 250.621 125.921 248.529C126.015 246.735 126.338 244.954 126.551 243.166C126.705 241.874 126.757 240.563 127.01 239.292C127.495 236.862 127.267 235.881 125.2 234.495C124.239 233.85 123.032 233.229 122.985 231.88C122.966 231.309 123.423 230.631 123.855 230.19C123.985 230.056 124.907 230.428 125.207 230.786C125.887 231.597 126.402 232.547 126.997 233.432C127.093 233.574 127.258 233.67 127.391 233.787C127.477 233.64 127.626 233.499 127.639 233.345C127.732 232.316 127.859 231.285 127.853 230.255C127.845 228.931 127.713 227.609 127.652 226.285C127.569 224.511 127.511 222.736 127.428 220.962C127.368 219.699 127.297 218.436 127.199 217.175C127.181 216.955 127.004 216.748 126.901 216.535ZM122.386 212.016C120.036 212.826 118.418 214.552 117.147 216.549C114.608 220.533 112.587 224.794 111.267 229.336C110.652 231.452 110.39 233.676 111.214 235.849C111.262 235.976 111.601 236.136 111.625 236.11C114.772 232.784 117.934 229.47 121.026 226.093C124.181 222.646 125.372 218.534 124.783 213.926C124.515 211.835 124.368 211.782 122.386 212.016ZM291.385 170.874C292.374 170.98 293.504 171.491 294.209 172.187C295.99 173.945 297.568 175.909 299.223 177.795C300.238 178.951 301.255 180.105 302.254 181.275C304.359 183.741 306.448 186.221 308.555 188.685C309.209 189.45 309.909 190.176 310.566 190.939C310.755 191.158 310.865 191.445 311.011 191.7C310.804 191.53 310.58 191.377 310.392 191.189C305.414 186.205 300.456 181.201 295.456 176.239C293.819 174.614 291.959 173.24 289.713 172.599C287.346 171.924 284.934 171.695 282.454 172.101C281.205 172.306 279.893 172.094 278.613 172.146C275.763 172.26 272.916 172.447 270.066 172.552C268.396 172.613 266.72 172.516 265.051 172.593C263.266 172.676 261.486 172.878 259.703 173.031C258.064 173.172 256.424 173.304 254.787 173.464C253.49 173.59 252.198 173.769 250.901 173.897C249.252 174.059 247.597 174.157 245.952 174.353C244.559 174.518 243.178 174.792 241.789 175C240.244 175.232 238.695 175.434 237.151 175.666C234.773 176.025 232.397 176.394 230.024 176.784C229.936 176.798 229.79 177.142 229.84 177.214C230.279 177.847 230.732 178.475 231.228 179.065C233.706 182.007 236.217 184.922 238.681 187.876C241.474 191.225 244.179 194.65 247.02 197.957C249.014 200.279 250.979 202.673 253.794 204.104C253.884 204.15 253.964 204.215 254.049 204.271C253.946 204.288 253.833 204.344 253.743 204.317C252.024 203.813 250.23 203.606 248.975 201.98C246.657 198.979 244.161 196.117 241.777 193.166C238.828 189.515 236.024 185.739 232.519 182.578C232.234 182.32 231.936 182.053 231.597 181.884C230.847 181.51 230.157 181.385 229.571 182.272C228.406 184.04 227.134 185.737 225.97 187.505C225.194 188.685 225.446 189.263 226.85 190.218C230.548 192.734 234.564 194.525 238.861 195.746C240.65 196.254 242.424 196.899 243.696 198.405C243.786 198.511 243.883 198.613 243.976 198.717C243.825 198.702 243.663 198.718 243.524 198.669C237.738 196.622 231.944 194.595 226.177 192.494C225.23 192.149 224.357 191.538 223.53 190.939C223.001 190.557 223.026 189.985 223.371 189.37C224.556 187.259 225.69 185.119 226.832 182.984C226.909 182.839 226.943 182.504 226.916 182.495C226.625 182.395 226.304 182.25 226.017 182.294C224.82 182.476 223.614 182.648 222.444 182.953C219.805 183.643 217.184 184.404 214.561 185.156C214.408 185.2 214.307 185.43 214.182 185.574C214.846 186.092 215.509 186.61 216.227 187.183C219.007 189.601 221.733 191.963 224.454 194.33C225.912 195.598 227.36 196.876 228.813 198.15C228.872 198.202 228.934 198.252 228.995 198.303C228.858 198.325 228.709 198.395 228.585 198.364C226.821 197.918 225.092 197.468 223.648 196.196C220.201 193.158 216.669 190.215 213.191 187.211C212.476 186.593 211.781 185.929 211.193 185.193C210.455 184.269 210.623 183.632 211.789 183.183C212.709 182.828 213.714 182.665 214.696 182.508C217.624 182.04 220.558 181.603 223.493 181.182C224.783 180.997 226.083 180.889 227.376 180.728C227.608 180.699 227.828 180.584 228.053 180.508C227.941 180.327 227.856 180.12 227.714 179.967C226.581 178.743 225.438 177.53 224.297 176.314C224.197 176.207 224.09 176.106 223.987 176.002C224.149 175.963 224.309 175.911 224.473 175.887C227.479 175.443 230.484 174.997 233.491 174.564C235.465 174.28 237.439 173.986 239.42 173.753C241.447 173.515 243.48 173.322 245.514 173.154C247.333 173.004 249.159 172.94 250.978 172.789C252.143 172.692 253.297 172.462 254.463 172.368C255.92 172.25 257.384 172.231 258.843 172.132C260.665 172.007 262.483 171.824 264.305 171.702C265.837 171.6 267.374 171.572 268.906 171.468C270.142 171.385 271.371 171.203 272.607 171.128C273.814 171.055 275.027 171.063 276.237 171.035C279.371 170.961 282.504 170.872 285.638 170.82C287.555 170.788 289.489 170.669 291.385 170.874ZM109.116 163.477C109.952 163.564 110.807 163.451 111.649 163.501C113.702 163.622 115.751 163.811 117.805 163.926C119.716 164.033 121.636 164.011 123.542 164.173C125.494 164.338 126.662 165.153 126.537 167.492C126.424 169.601 126.386 171.714 126.311 173.826C126.241 175.791 126.164 177.755 126.096 179.72C126.086 180.01 126.096 180.303 126.115 180.593C126.131 180.845 126.173 181.095 126.203 181.345C126.131 181.346 126.004 181.367 125.995 181.343C125.891 181.072 125.758 180.799 125.725 180.516C125.611 179.524 125.536 178.529 125.441 177.535C125.299 176.053 125.155 174.571 125.006 173.089C124.93 172.34 124.844 171.591 124.756 170.843C124.701 170.379 124.648 169.913 124.566 169.453C124.531 169.256 124.423 169.074 124.348 168.885C124.194 168.972 124.01 169.029 123.892 169.152C122.451 170.648 121.467 172.394 121.089 174.471C121.047 174.699 120.91 174.908 120.817 175.126C120.74 174.934 120.677 174.734 120.585 174.549C118.902 171.182 116.252 168.945 112.633 168.18C110.979 167.831 109.193 168.129 107.467 168.118C106.598 168.113 106.454 168.612 106.53 169.354C106.695 170.968 106.818 172.586 106.973 174.202C107.183 176.4 107.408 178.597 107.622 180.795C107.772 182.337 107.894 183.882 108.069 185.422C108.119 185.855 108.316 186.27 108.439 186.694C108.497 186.893 108.541 187.096 108.592 187.297C108.371 187.144 108.012 187.032 107.953 186.83C107.655 185.811 107.436 184.768 107.188 183.734C106.899 182.534 106.609 181.334 106.319 180.024C106.029 177.979 105.63 176.054 105.476 174.109C105.257 171.359 104.837 168.579 105.449 165.842C105.796 164.292 107.564 163.315 109.116 163.477ZM103.223 168.879C103.675 169.038 104.016 169.521 104.406 169.862C104.137 170.175 103.913 170.55 103.59 170.786C102.882 171.303 102.038 171.654 101.403 172.243C99.8936 173.64 100.608 176.418 102.174 177.152C102.896 177.491 103.618 177.835 104.316 178.222C104.568 178.362 104.75 178.633 104.964 178.844C104.704 178.851 104.443 178.858 104.183 178.864C102.511 178.908 101.257 178.135 100.32 176.791C98.9087 174.765 99.658 172.785 101.32 171.2C101.476 171.05 101.618 170.885 101.778 170.74C101.984 170.553 102.202 170.379 102.415 170.199C102.001 170.146 101.545 169.953 101.182 170.066C99.8251 170.487 99.0551 171.62 98.6432 172.861C97.2285 177.12 100.572 180.57 104.366 180.126C104.767 180.079 105.199 180.314 105.617 180.419C105.517 180.482 105.424 180.569 105.315 180.605C102.138 181.64 99.4323 180.467 97.898 177.398C97.7921 177.186 97.6472 176.995 97.5205 176.685C96.7865 172.922 98.3542 170.116 101.794 168.994C102.245 168.847 102.807 168.732 103.223 168.879ZM107.091 164.608C106.417 164.763 106.181 165.49 106.537 166.136C107.025 167.019 107.777 167.052 108.684 166.963C110.114 166.821 111.571 166.711 112.997 166.832C114.804 166.987 116.583 167.48 118.39 167.651C119.896 167.793 121.424 167.68 123.052 167.57C123.687 167.533 124.323 167.486 124.959 167.463C125.723 167.435 126.16 166.822 125.749 166.167C125.496 165.765 124.975 165.347 124.531 165.292C122.673 165.059 120.8 164.923 118.929 164.828C117.607 164.76 116.275 164.868 114.952 164.802C112.949 164.703 110.952 164.494 108.949 164.39C108.333 164.359 107.697 164.469 107.091 164.608ZM206.22 156.652C208.432 156.696 210.638 157.054 212.847 157.283C213.011 157.3 213.189 157.352 213.327 157.442C213.615 157.63 213.88 157.854 214.155 158.064C213.804 158.098 213.454 158.142 213.102 158.166C210.9 158.317 208.698 158.477 206.494 158.599C206.127 158.619 205.748 158.383 205.381 158.403C203.104 158.525 200.83 158.705 198.553 158.82C198.04 158.845 197.515 158.6 197.002 158.627C194.798 158.74 192.597 158.923 190.393 159.043C189.99 159.065 189.574 158.827 189.171 158.848C186.894 158.968 184.62 159.148 182.343 159.264C181.867 159.289 181.377 159.046 180.902 159.071C178.697 159.186 176.497 159.369 174.292 159.487C173.853 159.51 173.4 159.27 172.961 159.293C170.684 159.411 168.41 159.589 166.132 159.71C165.73 159.731 165.313 159.493 164.911 159.514C162.633 159.635 160.359 159.81 158.082 159.932C157.716 159.952 157.336 159.717 156.97 159.736C154.693 159.858 152.419 160.039 150.141 160.153C149.629 160.179 149.103 159.934 148.591 159.96C146.386 160.074 144.186 160.257 141.981 160.376C141.579 160.398 141.162 160.16 140.76 160.181C138.482 160.301 136.208 160.48 133.931 160.598C133.492 160.621 133.039 160.381 132.6 160.404C130.359 160.522 128.121 160.702 125.881 160.82C125.441 160.843 124.989 160.603 124.549 160.626C122.272 160.744 119.998 160.924 117.721 161.043C117.282 161.065 116.829 160.825 116.389 160.848C114.185 160.966 111.984 161.146 109.78 161.265C109.377 161.287 108.961 161.049 108.558 161.07C106.281 161.19 104.007 161.364 101.73 161.488C101.4 161.506 101.056 161.272 100.727 161.292C98.8489 161.407 96.9746 161.583 95.0967 161.7C93.8185 161.78 92.532 161.746 91.2572 161.856C89.4359 162.014 87.6105 162.188 85.8081 162.488C84.3981 162.721 83.0318 163.23 81.6209 163.453C81.2234 163.516 80.6376 163.085 80.339 162.715C80.2126 162.558 80.4971 161.837 80.7802 161.604C81.941 160.649 83.3378 160.487 84.8929 160.612C85.8608 160.538 86.7195 160.468 87.5773 160.389C89.1357 160.244 90.691 160.048 92.2524 159.957C94.3127 159.837 96.3779 159.728 98.4404 159.739C101.903 159.756 105.365 159.92 108.828 159.929C111.402 159.937 113.976 159.802 116.55 159.722C118.722 159.654 120.895 159.574 123.067 159.501C125.349 159.425 127.631 159.354 129.913 159.278C132.085 159.206 134.259 159.154 136.43 159.05C139.011 158.928 141.59 158.742 144.171 158.626C144.721 158.602 145.281 158.841 145.831 158.821C149.106 158.7 152.379 158.534 155.653 158.393C156.249 158.368 156.848 158.424 157.442 158.384C159.391 158.252 161.336 158.074 163.285 157.96C163.724 157.934 164.178 158.178 164.616 158.153C166.602 158.038 168.583 157.856 170.569 157.737C170.934 157.715 171.315 157.954 171.681 157.932C173.63 157.813 175.575 157.63 177.524 157.516C177.963 157.49 178.417 157.734 178.855 157.709C180.841 157.594 182.822 157.408 184.808 157.293C185.247 157.268 185.701 157.512 186.139 157.486C188.052 157.372 189.96 157.183 191.873 157.072C192.348 157.044 192.838 157.291 193.313 157.263C195.226 157.152 197.135 156.968 199.047 156.848C199.376 156.827 199.72 157.063 200.05 157.043C202.108 156.921 204.167 156.612 206.22 156.652ZM206.182 47.7435C211.006 48.1897 215.549 49.7351 219.732 52.1227C222.191 53.5259 224.476 55.2613 226.715 57.0058C230.188 59.7119 232.916 63.1025 235.272 66.7996C237.028 69.5569 238.564 72.4366 239.476 75.5719C240.306 78.4224 241.047 81.3203 241.51 84.247C241.845 86.3608 241.647 88.5565 241.709 90.715C241.773 92.9211 241.541 95.0968 241.306 97.2913C240.733 102.648 239.728 107.896 238.223 113.072C237.57 115.318 238.041 117.642 238.469 119.916C238.844 121.908 239.535 123.77 240.596 125.501C240.724 125.71 240.713 126.002 240.767 126.256C240.495 126.238 240.209 126.27 239.954 126.195C238.115 125.658 237.519 124.159 237.08 122.516C236.766 121.338 236.481 120.136 236.001 119.022C235.451 117.748 235.238 117.869 234.032 118.47C231.549 119.706 229.025 120.88 226.449 121.905C222.958 123.293 219.287 124.013 215.573 124.595C213.558 124.91 211.522 125.525 210.004 126.996C209.298 127.68 208.751 128.651 208.451 129.593C208.074 130.772 207.988 132.014 208.689 133.235C209.104 133.958 209.541 134.081 210.232 133.891C213.587 132.968 216.917 131.944 220.303 131.157C222.904 130.553 225.585 130.3 228.212 129.796C230.938 129.273 233.683 129.145 236.444 129.157C236.652 129.158 236.86 129.213 237.067 129.242C236.879 129.286 236.692 129.333 236.503 129.372C233.936 129.897 231.367 130.412 228.802 130.948C226.478 131.433 224.16 131.949 221.836 132.436C219.239 132.98 216.632 133.482 214.041 134.053C212.776 134.331 211.512 134.653 210.293 135.083C208.591 135.683 208.057 136.738 207.963 138.666C207.858 140.837 208.233 142.87 208.755 144.884C209.693 148.501 211.3 151.799 213.899 154.588C216.083 156.933 218.546 158.831 221.677 159.64C223.366 160.076 225.131 160.351 226.872 160.417C229.044 160.5 231.155 160.093 233.214 159.228C235.794 158.143 237.787 156.439 239.266 154.158C240.89 151.652 241.959 148.881 242.345 145.914C242.665 143.45 242.998 140.962 242.979 138.488C242.951 134.919 242.212 131.438 240.832 128.116C240.746 127.909 240.411 127.618 241.069 127.599C242.81 127.549 244.537 129.134 244.56 130.943C244.58 132.597 244.636 134.256 244.548 135.906C244.39 138.896 247.584 142.805 250.216 143.479C250.791 143.626 250.843 143.422 250.702 143.125C249.098 139.73 250.082 136.411 251.036 133.131C252.876 126.798 255.398 120.712 257.924 114.627C260.394 108.675 262.766 102.684 265.165 96.7029C267.199 91.6299 269.201 86.5441 271.233 81.4706C273.191 76.5853 275.169 71.7084 277.141 66.8288C277.204 66.6725 277.308 66.5324 277.369 66.3757C277.487 66.0787 277.587 65.7752 277.694 65.4744C277.388 65.6816 277.009 65.8302 276.786 66.1048C274.152 69.354 271.699 72.766 268.88 75.846C265.867 79.1377 262.596 82.2101 259.283 85.2086C256.916 87.3506 254.295 89.2146 251.782 91.1962C251.547 91.3817 251.275 91.5212 251.021 91.6821C251.045 91.3857 251.099 91.0883 251.089 90.7931C251.012 88.5283 253.116 88.3247 254.381 87.3356C256.286 85.8463 258.266 84.4467 260.107 82.8842C263.538 79.9727 266.269 76.4194 269.051 72.9187C269.804 71.9724 270.609 71.068 271.445 70.0897C273.884 67.442 276.179 64.76 278.679 62.2829C280.871 60.1106 283.307 58.2115 286.385 57.3176C287.757 56.919 290.251 57.8338 291.174 59.2803C292.137 60.7897 292.521 62.4449 292.516 64.2444C292.506 67.9798 291.745 71.5987 290.956 75.2164C290.094 79.1636 289.259 83.118 288.299 87.042C287.736 89.3437 287.074 91.6368 286.245 93.8555C284.273 99.1331 282.271 104.404 280.091 109.599C278.85 112.554 277.316 115.399 275.756 118.207C274.891 119.763 273.613 120.95 271.557 120.856C270.715 120.818 270.174 121.797 270.057 122.993C269.889 124.732 269.746 126.486 269.387 128.191C268.66 131.643 267.112 134.782 265.256 137.756C263.854 140.003 262.295 142.152 260.847 144.372C259.845 145.909 258.517 147.15 256.698 147.246C255.559 147.306 254.374 146.584 253.218 146.188C253.03 146.123 252.864 145.948 252.727 145.791C252.16 145.142 251.724 144.185 251.017 143.91C250.356 143.654 249.395 144.301 248.599 144.22C247.239 144.083 246.102 143.379 245.27 142.242C245.108 142.021 244.924 141.506 244.747 142.353C244.268 144.651 243.661 146.927 243.014 149.186C241.834 153.302 239.65 156.842 236.313 159.537C234.244 161.207 231.86 162.313 229.067 162.467C226.235 162.622 223.696 161.854 221.162 160.728C217.575 159.135 214.422 156.962 211.477 154.384C207.252 150.686 204.049 146.255 201.85 141.169C200.62 138.324 199.899 135.252 199.066 132.249C198.226 129.224 197.171 126.322 195.434 123.669C193.861 121.265 192.714 118.636 192.279 115.79C192.134 114.842 192.457 113.787 192.715 112.82C193.23 110.896 193.514 108.954 193.079 107.006C192.863 106.035 192.269 105.154 191.924 104.204C190.544 100.393 189.092 96.6037 187.869 92.7426C187.025 90.0801 186.442 87.3278 185.881 84.5875C185.522 82.8329 185.41 81.0275 185.197 79.2438C185.041 77.9425 184.851 76.6426 184.767 75.3364C184.647 73.4595 184.672 71.5722 184.52 69.6987C184.323 67.2822 184.681 64.8891 185.276 62.6179C185.858 60.3966 186.993 58.2905 188.082 56.2368C189.343 53.8573 191.07 51.8145 193.406 50.3681C195.492 49.0763 197.719 48.1166 200.194 47.935C202.186 47.7888 204.208 47.5609 206.182 47.7435ZM190.306 106.054C190.167 106.283 190.084 106.611 189.881 106.723C188.695 107.379 187.509 108.045 186.271 108.592C184.172 109.521 182.035 110.363 179.804 111.242C176.317 112.795 172.871 114.214 169.583 115.937C166.308 117.654 163.262 119.76 160.42 122.17C156.258 125.698 152.901 129.837 150.732 134.835C149.845 136.878 149.238 139.115 148.942 141.323C148.551 144.243 148.598 147.222 148.44 150.175C148.308 152.653 148.161 155.131 147.999 157.608C147.938 158.542 147.212 157.849 146.83 158.018C146.8 158.032 146.483 157.656 146.502 157.483C146.686 155.836 147.016 154.199 147.101 152.548C147.209 150.467 147.111 148.376 147.131 146.29C147.17 142.292 147.932 138.453 149.595 134.795C151.144 131.388 153.233 128.37 155.712 125.577C159.455 121.362 163.935 118.136 168.819 115.418C173.44 112.847 178.229 110.651 183.187 108.812C185.338 108.014 187.432 107.063 189.558 106.195C189.788 106.101 190.056 106.099 190.306 106.054ZM248.96 154.44C250.859 154.708 252.75 155.039 254.648 155.324C255.805 155.497 256.965 155.714 258.129 155.766C259.836 155.841 261.548 155.756 263.257 155.794C264.51 155.822 265.761 155.929 267.012 156.016C267.898 156.078 268.782 156.218 269.668 156.232C271.718 156.265 273.77 156.264 275.82 156.238C280.624 156.176 285.428 156.041 290.232 156.048C291.459 156.049 292.686 156.472 293.914 156.698C293.985 156.711 294.089 156.667 294.129 156.705C294.41 156.972 294.678 157.254 294.95 157.531C294.595 157.559 294.239 157.609 293.884 157.61C291.454 157.617 289.024 157.635 286.595 157.604C285.636 157.591 284.679 157.419 283.719 157.393C280.198 157.298 276.676 157.226 273.154 157.16C271.896 157.137 270.638 157.157 269.27 157.157C267.696 157.157 266.23 157.184 264.766 157.15C262.525 157.098 260.286 156.968 258.045 156.937C255.213 156.899 252.379 156.982 249.548 156.904C248.223 156.868 246.899 156.611 245.584 156.389C244.85 156.265 244.678 155.584 244.922 155.031C245.09 154.649 245.653 154.248 246.057 154.227C247.02 154.178 247.998 154.305 248.96 154.44ZM192.739 108.574C192.661 108.617 192.56 108.642 192.509 108.707C190.91 110.727 189.131 112.636 187.765 114.804C185.931 117.717 184.416 120.836 183.51 124.189C183.02 126.002 182.666 127.851 182.24 129.682C181.961 130.882 181.327 131.874 180.29 132.539C178.913 133.422 177.453 134.181 176.096 135.093C172.717 137.362 170.577 140.576 169.329 144.388C168.631 146.521 168.191 148.705 168.595 150.99C168.841 152.378 168.943 153.793 169.096 155.197C169.121 155.42 169.074 155.651 169.061 155.879C168.764 155.852 168.325 155.938 168.198 155.777C167.85 155.337 167.473 154.818 167.394 154.287C167.157 152.704 167.063 151.099 166.898 149.505C166.864 149.172 166.764 148.846 166.694 148.517C166.399 148.846 166.06 149.145 165.815 149.507C164.174 151.924 162.559 154.358 160.915 156.773C160.795 156.95 160.513 157.017 160.307 157.135C160.253 156.766 160.036 156.312 160.176 156.043C160.696 155.048 161.265 154.061 161.942 153.166C163.526 151.072 165.321 149.123 166.76 146.938C167.708 145.498 168.222 143.762 168.865 142.133C169.524 140.466 170.564 139.101 171.908 137.94C173.604 136.476 175.292 135.002 177.038 133.478C178.224 132.22 179.494 131.117 180.454 129.79C181.72 128.04 182.171 125.908 182.683 123.831C183.767 119.438 185.698 115.456 188.547 111.929C189.257 111.051 189.929 110.128 190.739 109.35C191.179 108.927 191.867 108.759 192.451 108.494C192.521 108.462 192.642 108.545 192.739 108.574ZM34.0869 69.6324C35.3135 69.9498 35.4909 71.0161 34.5526 71.8304C32.4221 73.6793 31.4083 76.0398 31.2522 78.7812C31.1659 80.2954 31.3077 81.8223 31.2237 83.3367C30.9466 88.3291 32.4044 92.9245 34.5633 97.3082C36.6274 101.499 39.6328 104.951 43.9452 106.967C46.4197 108.124 49.0658 108.936 51.6716 109.792C53.9351 110.535 56.2544 111.109 58.542 111.782C60.7862 112.441 62.9968 113.04 65.3747 112.247C66.5945 111.84 67.5097 112.931 67.0426 114.113C65.2762 118.584 63.771 123.224 60.6681 126.994C58.8069 129.255 56.6534 131.348 54.3499 133.163C50.968 135.828 47.0793 137.729 43.1951 139.601C39.4065 141.426 35.7033 143.429 31.898 145.218C27.6111 147.234 23.2668 149.131 18.9196 151.016C15.4125 152.537 11.872 153.983 8.3279 155.418C7.48045 155.761 6.5727 156.001 5.66954 156.151C4.76461 156.301 2.77659 154.882 2.42144 153.944C1.52017 151.564 0.907525 149.117 0.654519 146.58C0.500549 145.037 0.293304 143.498 0.0549951 141.957C1.11372e-08 141.848 -1.48496e-08 141.739 0.0549944 141.575C0.146651 139.464 0.185094 137.407 0.21063 135.35C0.211333 135.294 0.0733253 135.236 0 135.178V134.358C0.0366552 134.303 0.105401 134.304 0.10545 134.303C0.174733 132.399 0.233633 130.495 0.307551 128.592C0.331433 127.977 0.400993 127.364 0.438962 126.749C0.75425 121.645 1.36062 116.574 2.66674 111.626C3.70901 107.678 5.08528 103.837 6.758 100.086C8.66604 95.8067 10.9858 91.7828 13.6587 87.9569C15.0205 86.0077 16.5079 84.1292 18.0904 82.3525C19.9946 80.2148 21.9509 78.0983 24.0849 76.1944C26.521 74.0208 29.1391 72.0398 31.7682 70.0955C32.3535 69.6627 33.3883 69.4516 34.0869 69.6324ZM30.89 72.6321C30.7664 72.6876 30.6268 72.722 30.5218 72.8016C27.2162 75.3072 23.9306 77.8381 21.1934 80.982C19.493 82.935 17.7548 84.8607 16.1494 86.8893C12.2476 91.8195 9.22822 97.2531 6.92927 103.249C6.85122 103.472 6.76065 103.692 6.69701 103.92C5.70915 107.449 4.6639 110.964 3.76747 114.516C3.3698 116.092 3.25563 117.741 3.04699 119.361C2.8174 121.144 2.56168 122.927 2.44012 124.719C2.33998 126.195 2.4749 127.685 2.40464 129.164C2.31737 131.002 2.06329 132.832 2.00171 134.67C1.9601 135.911 2.16047 137.159 2.19102 138.405C2.22793 139.911 2.17165 141.419 2.20854 142.925C2.23881 144.159 2.26843 145.403 2.43967 146.624C2.64936 148.118 3.02291 149.589 3.29571 151.075C3.6896 153.221 4.57137 154.052 6.67286 154.204C8.14573 154.311 9.26513 153.44 9.4713 152.061C9.49636 151.893 9.76042 151.601 9.79475 151.617C11.6515 152.489 13.2633 151.611 14.8905 150.92C18.3482 149.453 21.8215 148.019 25.2446 146.475C30.3377 144.178 35.4099 141.833 40.457 139.438C42.8184 138.318 45.1374 137.096 47.4105 135.807C51.8467 133.291 55.9021 130.308 59.1864 126.34C61.7319 123.265 63.3054 119.769 64.2173 115.944C64.3905 115.218 64.1354 114.587 63.2669 114.401C60.9125 113.895 58.5637 113.363 56.2057 112.875C51.4132 111.883 46.7805 110.501 42.4734 108.082C36.943 104.975 33.4003 100.283 31.2728 94.4879C30.2635 91.7386 29.4528 88.8894 29.4738 85.8955C29.4895 83.6476 29.2916 81.3798 29.5311 79.1574C29.7525 77.1033 30.4314 75.0983 30.9005 73.0698C30.9324 72.932 30.8951 72.7784 30.89 72.6321ZM123.107 105.119C124.418 106.02 125.714 106.943 126.984 107.9C127.329 108.159 127.356 108.417 127.512 107.738C127.756 106.678 129.265 106.381 130.169 107.135C132.241 108.864 133.287 111.188 134.045 113.715C134.703 115.907 134.442 118.135 134.507 120.35C134.548 121.772 135.879 122.844 137.276 122.901C138.31 122.943 139.396 123.397 140.326 123.909C142.575 125.15 144.021 127.107 144.732 129.573C145.497 132.228 144.785 134.591 143.246 136.798C141.846 138.804 140.572 140.906 138.54 142.377C137.417 143.191 136.122 143.866 135.242 144.894C134.298 145.998 133.213 146.717 131.927 147.214C128.758 148.437 125.296 146.851 123.744 144.209C122.346 141.828 118.98 142.351 117.675 144.281C117.106 145.122 116.95 146.234 116.524 147.186C116.264 147.77 116.517 147.682 116.908 147.623C118.844 147.336 120.783 147.06 122.721 146.786C122.821 146.772 122.928 146.811 123.031 146.825C122.954 146.884 122.883 146.953 122.8 147C120.877 148.086 118.797 148.7 116.621 148.96C114.972 149.156 113.287 149.471 111.661 149.304C110.381 149.173 109.078 148.537 107.946 147.856C106.612 147.053 106.212 145.689 106.237 144.095C106.287 141 107.475 138.388 109.435 136.125C109.999 135.472 110.996 135.198 111.79 134.741C112.091 134.567 112.53 134.546 111.997 133.986C109.669 131.541 107.602 128.892 106.187 125.792C105.964 125.302 105.733 124.797 105.636 124.276C105.576 123.955 105.665 123.497 105.873 123.276C106.004 123.137 106.524 123.237 106.787 123.38C107.182 123.596 107.494 123.957 107.859 124.233C108.479 124.705 108.824 124.505 108.656 123.769C108.178 121.677 108.617 119.692 109.353 117.773C109.75 116.738 110.395 115.794 110.994 114.851C111.051 114.761 111.628 114.897 111.878 115.059C112.343 115.359 112.746 115.757 113.175 116.114C113.204 115.542 113.213 114.969 113.269 114.4C113.302 114.062 113.385 113.723 113.488 113.398C114.001 111.769 114.277 111.687 115.636 112.708C115.819 112.845 116.037 112.935 116.239 113.046L116.297 112.632C116.306 112.562 116.314 112.493 116.32 112.424C116.47 110.634 116.112 109.009 114.803 107.68C114.788 107.664 115.072 107.197 115.235 107.184C117.12 107.036 119.006 106.958 120.73 107.965C121.083 108.171 121.434 108.378 121.841 108.64C122.005 108.491 122.188 108.295 122.211 108.082C122.313 107.118 122.359 106.148 122.471 105.185C122.477 105.133 122.966 105.023 123.107 105.119ZM110.547 136.294C110.504 136.373 110.477 136.468 110.417 136.531C108.273 138.795 107.272 141.485 107.352 144.604C107.395 146.298 108.298 147.545 109.992 147.854C111.068 148.051 112.185 148.042 113.286 148.072C113.419 148.075 113.635 147.765 113.686 147.568C114.011 146.308 113.987 144.903 115.338 143.937C115.715 143.791 116.092 143.646 116.468 143.499C116.639 143.432 116.942 143.37 116.95 143.286C116.965 143.106 116.879 142.828 116.741 142.742C116.372 142.514 115.967 142.262 115.551 142.204C113.632 141.937 112.271 140.926 111.49 139.185C111.119 138.358 110.917 137.454 110.638 136.584C110.607 136.488 110.577 136.391 110.547 136.294ZM115.666 144.703C115.52 145.255 115.353 145.803 115.249 146.362C115.232 146.456 115.526 146.725 115.612 146.699C115.96 146.593 116.072 144.92 115.666 144.703ZM123.62 106.311C123.738 106.713 123.904 107.108 123.963 107.518C124.097 108.449 124.016 109.339 123.102 109.888C122.371 110.326 121.823 109.799 121.326 109.415C120.198 108.541 118.864 108.428 117.539 108.261C116.815 108.171 116.782 108.468 117.018 109.091C117.366 110.007 117.799 110.98 117.772 111.917C117.755 112.504 117.004 113.11 116.503 113.632C116.036 114.119 115.589 113.889 115.219 113.408C115.163 113.334 114.98 113.358 114.856 113.336C114.864 113.534 114.839 113.74 114.887 113.927C115.177 115.04 114.762 116.115 113.595 116.755C112.787 117.198 112.218 116.522 111.727 115.999C111.358 115.606 111.324 115.845 111.168 116.144C109.805 118.753 109.648 121.481 110.372 124.284C110.552 124.982 110.231 125.328 109.656 125.302C108.986 125.271 108.329 125.007 107.66 124.873C107.35 124.811 107.027 124.816 106.711 124.79C106.797 125.096 106.836 125.424 106.976 125.702C108.133 128.003 109.62 130.085 111.55 131.776C112.688 132.774 113.387 133.649 113.353 135.371C113.309 137.62 114.505 139.458 116.581 140.681C118.234 141.655 119.992 141.451 121.736 141.511C122.628 141.542 123.277 141.85 123.808 142.558L124.02 142.841C125.109 144.302 126.186 145.757 128.135 146.268C130.333 146.843 132.343 146.613 134.037 145.064C134.39 144.741 134.394 143.97 134.409 143.402C134.412 143.298 133.697 143.116 133.302 143.072C131.723 142.896 130.136 143.296 128.542 142.865C126.29 142.255 124.221 141.358 122.515 139.734C122.194 139.427 121.923 139.067 121.629 138.732C122.147 138.854 122.667 138.973 123.184 139.102C123.313 139.134 123.461 139.172 123.554 139.258C125.967 141.481 128.798 142.45 132.07 142.192C135.391 141.929 137.102 140.186 137.273 137.271C137.45 134.262 136.869 131.346 135.484 128.617C135.283 128.223 135.285 127.675 135.334 127.213C135.522 125.418 135.972 123.606 134.045 122.329C133.722 122.115 133.632 121.397 133.61 120.904C133.544 119.441 133.083 118.895 131.656 118.763C130.785 118.682 130.297 118.16 130.098 117.343C130.04 117.106 130.043 116.854 130.018 116.609C129.786 116.818 129.492 116.988 129.333 117.243C128.525 118.536 127.321 119.335 126.054 120.109C125.413 120.501 125.205 120.456 125.046 119.73C124.972 119.388 124.694 119.091 124.508 118.774C124.33 119.028 124.145 119.278 123.974 119.538C123.749 119.88 123.59 120.286 123.307 120.568C122.296 121.573 121.274 122.574 120.185 123.49C119.948 123.689 119.236 123.693 119.055 123.497C118.817 123.239 118.849 122.697 118.838 122.275C118.826 121.855 118.93 121.432 118.932 121.011C118.933 120.846 118.803 120.547 118.719 120.542C118.538 120.532 118.259 120.62 118.177 120.76L117.748 121.482C117.32 122.205 116.899 122.933 116.554 123.695C115.631 125.737 115.253 127.906 115.202 130.147C115.195 130.463 114.858 130.802 114.605 131.064C114.518 131.153 114.071 131.086 114.044 131.005C113.925 130.652 113.833 130.262 113.858 129.894C113.897 129.311 114.048 128.735 114.134 128.154C114.652 124.645 116.171 121.66 118.794 119.259C118.89 119.171 119.225 119.165 119.231 119.184C119.469 119.998 119.692 120.817 119.892 121.641C119.937 121.827 119.895 122.034 119.894 122.231C120.07 122.151 120.266 122.099 120.418 121.987C122.077 120.76 123.404 119.248 124.356 117.406C124.585 116.962 124.906 116.566 125.185 116.147L125.674 117.038C125.837 117.336 125.997 117.634 126.15 117.936C126.209 118.052 126.116 118.244 126.172 118.363C126.214 118.451 126.46 118.551 126.487 118.522C127.335 117.647 128.149 116.74 129.009 115.878C129.339 115.548 129.96 115.004 130.117 115.1C130.629 115.413 131.004 115.963 131.392 116.455C131.48 116.567 131.337 116.851 131.419 116.982C131.569 117.222 131.889 117.617 131.994 117.577C132.526 117.371 133.06 117.102 133.489 116.733C133.661 116.586 133.565 116.126 133.481 115.699C133.04 112.908 131.938 110.441 129.927 108.419C129.8 108.292 129.669 108.169 129.541 108.044C129.506 108.212 129.472 108.38 129.437 108.548C129.245 109.474 128.248 110.032 127.529 109.471C126.621 108.763 125.901 107.819 125.034 107.053C124.646 106.711 124.096 106.552 123.62 106.311ZM200.46 129.171C200.382 129.248 200.25 129.317 200.236 129.405C200.185 129.718 200.109 130.049 200.158 130.354C200.429 132.025 200.769 133.685 201.019 135.358C201.456 138.277 202.187 141.111 203.695 143.666C204.229 144.572 205.098 145.284 205.826 146.074C205.908 146.163 206.07 146.18 206.195 146.231C206.19 146.153 206.193 146.074 206.178 145.999C206.002 145.087 205.932 144.136 205.622 143.271C204.884 141.208 204.032 139.185 203.116 137.036C202.566 135.548 201.985 134.07 201.477 132.567C201.128 131.533 200.881 130.465 200.585 129.413C200.56 129.327 200.502 129.251 200.46 129.171ZM259.282 124.268C259.278 124.368 259.069 124.451 258.972 124.557C258.709 124.846 258.402 125.112 258.205 125.442C256.04 129.075 254.902 133.076 254.021 137.165C253.787 138.251 253.579 139.342 253.359 140.649C253.286 141.275 253.139 141.903 253.159 142.526C253.183 143.25 253.176 144.061 253.495 144.673C254.388 146.388 256.785 146.339 258.256 145.436C259.617 144.6 260.271 143.253 261.008 141.981C262.265 139.812 263.314 137.521 264.619 135.385C266.395 132.478 268.145 129.584 268.946 126.228C269.187 125.218 268.672 124.53 267.595 124.561C265.059 124.634 262.594 124.134 260.125 123.671C259.296 123.516 259.315 123.473 259.282 124.268ZM136.621 123.814C136.182 125.701 136.463 127.503 137.006 129.284C137.798 131.879 138.661 134.454 138.396 137.227C138.211 139.167 137.339 140.699 135.672 141.77C135.416 141.935 135.301 142.32 135.121 142.603C135.458 142.673 135.798 142.804 136.133 142.791C136.339 142.783 136.561 142.583 136.734 142.423C137.967 141.277 139.349 140.243 140.369 138.929C141.396 137.608 142.059 136.004 142.99 134.415C143.204 133.399 143.456 132.388 143.623 131.364C143.997 129.067 142.847 126.856 140.75 126.075C139.378 125.564 137.875 125.374 137.292 123.707C137.197 123.435 136.841 122.863 136.621 123.814ZM70.2228 73.9758C72.902 74.294 75.5999 74.7906 78.1704 75.5954C80.9254 76.458 83.3391 78.0995 85.2926 80.2619C87.9558 83.2099 89.6932 86.6359 90.4653 90.5708C90.7922 92.237 90.8951 93.8911 90.8635 95.5658C90.8435 96.6288 90.7339 97.6904 90.6535 98.7518C90.4817 101.022 91.0514 103.181 91.6146 105.344C92.1916 107.559 91.9815 109.78 91.7783 112.029C91.4779 115.353 90.2276 118.361 88.871 121.318C87.9976 123.222 86.8152 124.989 85.7131 126.782C84.7808 128.298 83.765 129.763 82.7315 131.306C81.3376 133.5 79.977 135.627 78.6688 137.785C78.0921 138.737 77.6228 139.753 77.102 140.739C77.0384 140.859 76.9749 140.987 76.8816 141.082C76.5583 141.413 76.222 141.731 75.8906 142.054C75.8593 141.583 75.6731 141.055 75.8212 140.649C77.0068 137.4 78.8338 134.5 80.8151 131.686C83.2139 128.278 85.7627 124.962 87.4636 121.115C88.5812 118.588 89.463 115.987 89.7742 113.227C89.9546 111.628 90.1569 110.024 90.1937 108.419C90.2303 106.825 90.0741 105.226 89.9927 103.63C89.9886 103.551 89.8508 103.406 89.8432 103.41C89.6648 103.512 89.4595 103.6 89.3311 103.751C88.6485 104.555 87.9971 105.385 87.3138 106.188C85.5774 108.23 83.4631 109.603 80.7947 110.197C78.1589 110.784 75.943 110.017 74.0704 108.299C71.6973 106.122 71.733 103.46 73.3657 100.94C74.8593 98.6341 77.0238 97.4114 79.8077 97.0199C82.5294 96.6372 85.0002 97.3933 87.4712 98.1997C88.3842 98.4977 88.9465 98.8178 88.9899 97.5261C89.0391 96.0636 88.9486 94.5817 89.1577 93.1429C89.4265 91.2931 88.7817 89.6781 88.2601 87.9988C87.228 84.676 85.2339 82.0752 82.566 79.875C80.5193 78.187 78.2231 77.0267 75.7192 76.3465C73.1344 75.6443 70.5111 75.3227 67.7613 75.6016C63.3063 76.0536 59.4353 77.7587 55.918 80.3667C53.4265 82.2141 51.4875 84.6061 49.7692 87.1799C49.5131 87.5635 49.0903 87.8355 48.7461 88.1607C48.316 88.567 47.7424 88.684 47.4353 88.2089C47.2022 87.8482 47.1175 87.0788 47.3456 86.7852L47.8757 86.1016C48.9381 84.7326 50.0217 83.3651 51.2839 82.2001C52.83 80.7731 54.6021 79.5719 56.3576 78.3944C59.2919 76.4263 62.507 75.1021 66.0218 74.5641C67.4253 74.3493 68.865 73.8145 70.2228 73.9758ZM112.438 137.866C112.421 138.005 112.375 138.147 112.391 138.282C112.54 139.537 113.362 140.369 114.293 141.064C114.604 141.297 115.15 141.216 115.588 141.279C115.357 140.922 115.141 140.555 114.889 140.214C114.739 140.011 114.534 139.849 114.354 139.45C113.818 138.986 113.284 138.52 112.745 138.06C112.654 137.983 112.541 137.931 112.438 137.866ZM285.262 60.062C284.088 61.0387 282.921 62.0274 281.807 63.07C279.98 64.7803 278.822 66.9691 277.865 69.2112C275.853 73.9259 273.993 78.7052 272.089 83.4653C269.282 90.4804 266.491 97.5019 263.694 104.74C263.547 104.972 263.359 105.187 263.26 105.438C261.481 109.958 259.719 114.485 257.941 119.005C256.57 122.489 255.115 125.942 253.818 129.454C252.619 132.701 251.844 136.07 251.392 139.505C251.348 139.836 251.46 140.188 251.5 140.53C251.534 140.239 251.522 139.933 251.616 139.663C251.68 139.482 251.97 139.378 252.029 139.198C253.144 135.752 254.167 132.275 255.363 128.858C256.187 126.507 257.221 124.226 258.207 121.934C258.667 120.863 259.078 120.759 260.113 121.271C260.811 121.617 261.523 121.941 262.206 122.315C263.285 122.907 264.429 123.132 265.65 123.024C266.519 122.947 267.607 121.943 267.628 121.008C267.649 120.095 267.243 119.362 266.184 119.266C265.522 119.205 264.844 119.238 264.197 119.112C263.719 119.019 263.278 118.737 262.82 118.54C263.118 118.312 263.395 118.045 263.722 117.871C263.925 117.763 264.203 117.796 264.447 117.768C266.085 117.579 267.474 118.362 268.913 118.923C271.505 119.932 272.966 119.74 274.283 118.011C274.99 117.082 275.465 115.955 275.933 114.87C278.056 109.945 280.31 105.067 282.191 100.05C284.137 94.8608 285.95 89.5958 287.376 84.2459C288.909 78.4905 290.589 72.7269 290.885 66.7117C290.967 65.0553 290.824 63.4519 290.351 61.8162C289.588 59.1831 287.102 58.5303 285.262 60.062ZM195.151 112.78C195.057 112.96 194.938 113.132 194.874 113.322C194.051 115.761 194.179 118.204 195.319 120.463C196.512 122.828 197.973 125.059 199.33 127.34C199.388 127.437 199.58 127.455 199.71 127.509C199.751 127.333 199.867 127.136 199.823 126.984C199.434 125.653 198.992 124.336 198.628 122.997C198.553 122.722 198.635 122.261 198.828 122.089C199.113 121.835 199.592 121.589 199.936 121.647C200.932 121.813 201.758 122.996 201.856 124.177C202.018 126.127 202.076 128.093 202.37 130.024C202.845 133.128 204.069 136.003 205.429 138.817C205.503 138.969 205.647 139.088 205.758 139.222C205.866 139.048 206.026 138.888 206.075 138.698C206.245 138.036 206.277 137.321 206.542 136.703C207.477 134.525 207.462 132.432 206.318 130.323C205.692 129.169 205.205 127.94 204.545 126.635C204.08 125.296 203.859 123.793 203.092 122.656C201.91 120.901 200.316 119.426 198.966 117.776C197.775 116.32 196.678 114.787 195.539 113.289L195.151 112.78ZM132.738 133.564C132.989 133.993 133.182 134.39 133.5 134.622C134.694 135.495 134.56 137.845 133.385 138.569C133.122 138.731 132.668 138.595 132.302 138.596C132.302 138.299 132.211 137.965 132.317 137.711C133.061 135.921 132.288 134.454 130.339 133.984C130.034 133.911 129.757 133.725 129.466 133.591C129.733 133.427 129.994 133.254 130.268 133.102C130.56 132.94 130.864 132.797 131.164 132.647C132.291 132.085 132.472 132.178 132.738 133.564ZM134.712 124.205C134.889 125.223 134.835 126.324 134.652 127.348C134.509 128.147 132.413 128.587 131.273 128.439C130.069 128.283 129.328 127.564 128.58 126.798C127.928 126.13 127.185 125.605 126.265 125.976C125.331 126.353 125.296 127.281 125.339 128.268C125.077 130.005 124.573 131.41 123.057 132.438C121.049 133.799 118.737 132.802 117.835 131.152C117.733 130.966 117.552 130.822 117.408 130.658C117.299 130.818 117.155 130.965 117.086 131.141C116.544 132.51 115.955 133.866 115.506 135.265C115.227 136.138 115.625 136.534 116.517 136.525C117.113 136.519 117.709 136.514 118.305 136.531C118.461 136.535 118.614 136.621 118.769 136.67C118.683 136.815 118.631 137.041 118.505 137.092C117.943 137.324 117.277 137.789 116.801 137.651C115.551 137.289 114.456 136.604 114.385 135.056C114.269 132.534 115.623 130.631 117.063 128.776C118.702 126.663 121.123 125.918 123.564 125.226C126.629 124.358 129.693 123.486 132.76 122.621C133.398 122.441 134.538 123.199 134.712 124.205ZM122.989 126.166C121.896 126.6 120.815 127.078 119.77 127.616C117.966 128.545 117.776 130.187 119.278 131.489C120.84 132.843 122.846 132.384 123.436 130.449C123.766 129.364 123.837 128.201 124.025 126.856C124.076 126.041 123.563 125.939 122.989 126.166ZM127.52 126.973C127.616 127.011 127.709 127.061 127.808 127.086C129.292 127.465 130.446 129.881 129.741 131.189C129.601 131.448 129.316 131.624 129.098 131.838C129.044 131.625 128.983 131.413 128.936 131.198C128.797 130.562 128.663 129.924 128.475 129.235C128.137 128.54 127.847 127.899 127.566 127.254C127.529 127.17 127.534 127.067 127.52 126.973ZM132.131 123.293C130.901 123.722 129.718 124.285 128.296 124.792C128.259 124.957 128.142 125.158 128.198 125.281C128.907 126.836 131.571 127.933 133.166 127.347C134.107 127.001 134.628 125.808 134.318 124.709C134.103 123.947 132.841 123.045 132.131 123.293ZM245.201 85.6325C247.321 85.839 249.012 86.7649 250.302 88.589C251.011 89.5912 250.472 90.4218 250.306 91.2635C249.705 94.2982 248.979 97.3073 248.29 100.324C247.723 102.807 247.145 105.288 246.565 107.769C245.791 111.074 245.014 114.379 244.231 117.682C243.668 120.059 243.098 122.434 242.517 124.806C242.456 125.054 242.301 125.278 242.19 125.514C242.088 125.266 241.879 125.01 241.899 124.773C242.06 122.901 242.222 121.026 242.466 119.164C242.723 117.204 243.036 115.249 243.387 113.304C243.805 110.983 244.244 108.663 244.752 106.361C245.902 101.147 247.388 96.0337 249.087 90.9761C249.762 88.967 247.844 87.6406 246.293 87.6754C245.301 87.6976 244.446 87.924 243.535 88.1465C243.385 88.1833 243.148 87.8499 242.951 87.5786C242.951 87.3969 242.928 87.3137 242.954 87.2532C243.165 86.7731 242.399 85.8934 243.528 85.7884C244.087 85.7364 244.654 85.5791 245.201 85.6325ZM136.484 114.811C137.814 114.831 139.143 115.008 140.472 114.995C142.372 114.977 144.185 115.382 145.883 116.13C147.375 116.788 148.754 117.697 150.238 118.55C151.969 120.091 153.287 121.816 153.793 124.024C153.86 124.314 153.54 124.691 153.4 125.027C153.173 124.824 152.803 124.658 152.74 124.414C151.534 119.738 148.137 117.463 143.701 116.321C141.278 115.698 138.826 115.852 136.367 116.071C136.048 116.099 135.334 116.52 135.308 115.681C135.283 114.91 135.935 114.803 136.484 114.811ZM199.709 49.2905C195.388 49.9037 192.193 52.3831 189.771 55.9428C187.132 59.8224 186.249 64.2316 186.133 68.7627C186.051 71.9977 186.438 75.2541 186.759 78.4866C187 80.9017 187.342 83.3228 187.872 85.6892C188.541 88.6719 189.462 91.598 190.249 94.5552C191.565 99.4997 193.222 104.328 195.322 108.994C197.56 113.967 200.503 118.473 204.638 122.116C205.972 123.293 207.52 124.142 209.319 124.321C211.561 124.544 213.738 124.121 215.881 123.466C220.467 122.063 225.1 120.803 229.639 119.266C233.785 117.864 236.366 114.856 237.287 110.584C237.978 107.382 238.56 104.151 239.043 100.911C239.453 98.1534 239.787 95.3706 239.903 92.5888C239.992 90.4614 239.714 88.3159 239.552 86.182C239.428 84.5555 239.231 82.9346 239.067 81.0923C238.532 77.8551 237.563 74.7569 236.286 71.7277C234.347 67.1248 231.674 63.075 228.061 59.5802C224.123 55.7706 219.416 53.3473 214.298 51.6805C211.409 50.7398 208.419 50.0476 205.427 49.5024C203.564 49.1629 201.572 49.026 199.709 49.2905ZM71.0605 78.9139C70.932 79.1147 70.8176 79.3264 70.6729 79.5146C67.9848 83.0104 65.1389 86.3969 62.6424 90.0246C59.6968 94.3048 57.2356 98.8892 55.3248 103.825C54.5807 105.372 53.8997 106.868 53.1978 108.355C52.8262 109.142 52.0536 109.043 51.527 108.79C50.9568 108.515 51.0272 107.934 51.3687 107.323C54.182 102.287 56.8824 97.1874 59.7609 92.1902C61.5265 89.125 63.4341 86.1262 65.4945 83.2533C66.5968 81.7164 68.1513 80.5026 69.5206 79.1622C69.7025 78.9842 69.9864 78.8583 70.2399 78.8202C70.5028 78.7806 70.7861 78.877 71.0605 78.9139ZM78.2729 99.0126C75.2588 99.8121 73.7605 102.019 74.0217 104.92C74.1862 106.749 74.9099 107.92 76.6435 108.413C78.6307 108.978 80.6147 108.719 82.486 107.967C85.1702 106.887 87.3659 105.255 88.0319 101.98C88.1016 101.098 87.8477 100.452 87.0615 99.8776C84.2753 97.841 81.3346 98.2005 78.2729 99.0126ZM141.106 41.5654C141.033 41.6566 140.959 41.6931 140.886 41.7843C140.65 41.8906 140.358 41.8708 140.187 42.0042C135.926 45.3336 133.253 49.6832 131.849 54.851C131.182 57.3052 130.879 59.8081 130.99 62.3329C131.184 66.7758 132.579 70.8364 135.106 74.5316C137.867 78.5688 141.535 81.5397 145.914 83.6242C148.424 84.8188 151.088 85.6787 153.909 85.8289C155.179 85.8965 156.478 85.6877 157.723 85.873C160.116 86.229 162.342 85.5851 164.552 84.9422C169.003 83.6476 172.92 81.4111 176.275 78.1785C178.75 75.7937 180.891 73.2011 182.304 70.0561C182.332 69.9944 182.367 69.9358 182.398 69.8758C182.44 69.9572 182.528 70.0446 182.518 70.1193C182.307 71.7158 182.409 73.3326 181.274 74.7575C177.76 79.1678 173.684 82.8833 168.403 85.0409C166.144 85.9639 163.732 86.5567 161.346 87.1186C159.911 87.4565 158.389 87.6002 156.913 87.5614C153.179 87.4633 149.576 86.6752 146.129 85.1919C142.449 83.6083 139.226 81.3841 136.48 78.4956C133.287 75.1361 131.058 71.2259 130.116 66.6797C129.741 64.8688 129.443 62.9971 129.468 61.1579C129.547 55.4124 131.236 50.1154 134.582 45.4122C135.494 44.1306 136.72 43.0658 137.832 41.9312C138.356 41.3964 140.685 41.1385 141.106 41.5654ZM145.801 41.6209C145.857 41.6273 145.905 41.6949 145.956 41.734C145.861 41.768 145.767 41.8058 145.671 41.8353C141.921 42.9801 139.25 45.4418 137.466 48.8503C136.372 50.9392 135.779 53.2092 135.445 55.5768C134.767 60.3896 135.878 64.8209 138.188 68.9505C141.043 74.0527 145.08 77.9356 150.668 79.9458C152.45 80.5869 154.291 81.2751 156.151 81.443C160.615 81.8464 164.903 81.0463 168.878 78.8092C171.841 77.1415 174.276 74.9098 176.459 72.3192C178.992 69.3143 180.432 65.8121 181.328 62.0689C181.642 60.7567 181.507 59.3376 181.589 57.968C181.605 57.7113 181.676 57.458 181.722 57.2032C182.022 57.3582 182.485 57.4399 182.593 57.6813C182.978 58.5415 183.572 59.4905 183.483 60.3428C183.301 62.0951 182.861 63.8519 182.292 65.5262C180.815 69.8716 178.204 73.4966 174.817 76.5486C171.664 79.3883 168.03 81.3722 163.895 82.3677C162.495 82.7048 161.079 83.0921 159.654 83.1744C158.334 83.2505 156.982 83.0196 155.665 82.7977C153.91 82.5021 152.118 82.2558 150.444 81.6864C145.82 80.1139 141.942 77.4417 138.815 73.6101C136.317 70.5489 134.873 67.071 134.181 63.2569C133.367 58.7691 134.097 54.4209 135.757 50.2227C136.881 47.3821 138.519 44.8647 140.764 42.7665C140.934 42.6077 141.027 42.3671 141.156 42.055C141.229 41.9089 141.302 41.8724 141.375 41.8358C142.814 41.0147 144.314 41.448 145.801 41.6209ZM310.591 80.7568C312.095 80.7728 313.596 80.9773 315.099 81.0951C316.929 81.2385 318.757 81.4188 320.59 81.4894C322.343 81.5568 324.104 81.461 325.858 81.5222C326.722 81.5524 327.603 81.7052 328.424 81.9496C328.704 82.0329 328.826 82.5661 329.02 82.8937C328.753 82.973 328.491 83.0749 328.218 83.1258C327.901 83.185 327.574 83.1995 327.196 83.1826C323.549 83.0639 319.958 82.9693 316.366 82.9413C314.911 82.93 313.455 83.1172 312 83.1089C311.287 83.1049 310.572 82.872 309.863 82.7216C309.124 82.5647 308.903 81.9516 309.179 81.5039C309.415 81.1192 310.106 80.7516 310.591 80.7568ZM156.629 44.6538C157.451 48.5739 158.212 52.5073 159.018 56.431C159.432 58.4454 158.94 59.2814 157.208 60.2595C154.919 61.5517 152.705 62.9913 150.518 64.4595C149.422 65.1949 148.523 65.4508 147.923 64.8697C147.356 64.321 147.263 63.8379 148.019 63.3233C150.385 61.7125 152.762 60.1131 155.05 58.3905C155.548 58.0155 155.996 57.1201 155.945 56.5106C155.757 54.2849 155.361 52.0767 155.018 49.866C154.875 48.9435 154.669 48.0312 154.492 47.0039C154.408 46.0976 154.165 45.2729 154.296 44.5163C154.379 44.0421 154.976 43.3947 155.426 43.3135C156.225 43.1695 156.495 44.0155 156.629 44.6538ZM307.449 35.4943C307.583 35.6338 307.656 36.0136 307.562 36.1522C307.111 36.8172 306.594 37.4373 306.045 38.1282C304.274 40.5423 302.58 42.918 300.816 45.2413C300.586 45.5456 299.838 45.8355 299.603 45.6919C299.004 45.3267 299.543 44.9371 299.792 44.5232C301.44 41.7766 303.035 38.9988 304.669 36.2435C305.421 34.9748 306.644 34.6527 307.449 35.4943ZM257.216 0.000868883C257.505 0.0250276 257.829 0.373302 258.023 0.660595C258.737 1.71463 258.362 2.89945 258.22 3.99448C257.972 5.9051 257.523 7.78842 257.173 9.68603C257.01 10.5723 256.881 11.4652 256.737 12.4648C256.449 13.9521 256.135 15.3248 255.878 16.7083C255.41 19.2212 254.992 21.7437 254.522 24.2563C254.13 26.3523 253.706 28.4424 253.274 30.5302C252.563 33.9581 251.858 37.3874 251.098 40.8041C250.89 41.7415 250.16 42.0927 249.561 41.6442C249.359 41.4929 249.158 41.1052 249.206 40.8808C250.326 35.6544 251.526 30.4455 252.612 25.2123C253.411 21.3647 253.983 17.4676 254.816 13.6284C255.609 9.97089 256.018 6.30417 255.901 2.56139C255.881 1.91401 256.184 1.23027 256.448 0.611351C256.567 0.330969 256.969 -0.0197566 257.216 0.000868883ZM197.893 25.9557C198.104 26.3117 198.32 26.6643 198.534 27.1302C198.89 29.0237 199.257 30.8029 199.598 32.5878C199.769 33.4875 199.901 34.3959 200.03 35.3037C200.062 35.5292 200.011 35.7675 199.998 36C199.684 35.9473 199.177 36.0008 199.088 35.824C198.63 34.9137 198.219 33.9656 197.909 32.9897C197.554 31.8717 197.405 30.6776 197.005 29.5815C196.786 28.9817 196.189 28.5448 195.841 27.9811C195.541 27.4934 195.188 26.9352 195.173 26.399C195.164 26.0548 195.679 25.4767 196.044 25.3886C196.682 25.2344 197.441 25.1917 197.893 25.9557Z" fill="#00160A"/>
<path d="M125.094 135.211C126.393 134.863 127.332 134.16 127.193 133.641C127.054 133.122 125.889 132.983 124.591 133.331C123.293 133.679 122.353 134.382 122.492 134.901C122.631 135.42 123.796 135.559 125.094 135.211Z" fill="#FFB61D"/>
<path fill-rule="evenodd" clip-rule="evenodd" d="M134.03 130.989C134.957 130.641 135.491 129.939 135.3 129.42C135.121 128.901 134.435 128.762 133.692 129.109C132.875 129.457 132.148 130.16 132.144 130.679C132.151 131.198 133.03 131.337 134.03 130.989Z" fill="#FFB61D"/>
</svg>
